<?xml version="1.0" encoding="UTF-8"?>
<svg version="1.1" xmlns="http://www.w3.org/2000/svg" width="513" height="512">
<path d="M0 0 C1.48250748 0.00081573 1.48250748 0.00081573 2.9949646 0.00164795 C61.53550373 0.14927926 117.85021595 20.34017155 163.25 57.375 C163.80606934 57.82810547 164.36213867 58.28121094 164.93505859 58.74804688 C177.96241869 69.4518457 189.8708522 81.06461864 200.25 94.375 C201.11660302 95.4416397 201.98518803 96.50667134 202.85546875 97.5703125 C221.09613358 120.02210981 235.11342265 145.93812423 244.25 173.375 C244.52247559 174.18420898 244.79495117 174.99341797 245.07568359 175.82714844 C248.31719326 185.60436903 250.85334585 195.49010751 253 205.5625 C253.19875732 206.48716064 253.39751465 207.41182129 253.60229492 208.36450195 C256.82634017 224.23321673 257.62711905 239.84903978 257.5625 256 C257.56034485 256.97088562 257.5581897 257.94177124 257.55596924 258.94207764 C257.50490848 273.28306653 257.10105121 287.27727486 254.25 301.375 C253.95996094 302.87426025 253.95996094 302.87426025 253.6640625 304.40380859 C244.48232174 350.85803251 223.55159832 393.64758995 191.25 428.375 C190.07877852 429.72522913 188.91192767 431.07926491 187.75 432.4375 C181.40169839 439.68854175 174.57230394 446.12363589 167.04296875 452.13671875 C165.25312652 453.57109581 163.48264294 455.03017734 161.73828125 456.51953125 C148.20572293 468.02116963 132.96071765 477.18300735 117.25 485.375 C116.18338135 485.94081787 116.18338135 485.94081787 115.09521484 486.51806641 C93.7869374 497.70309395 69.86763789 505.04338082 46.25 509.375 C45.43869629 509.53581055 44.62739258 509.69662109 43.79150391 509.86230469 C16.0770442 515.19941525 -16.09007998 514.77401908 -43.75 509.375 C-44.64702637 509.21402832 -45.54405273 509.05305664 -46.46826172 508.88720703 C-98.74995516 499.42688322 -143.45989385 473.34620755 -181.75 437.375 C-182.73419922 436.45460938 -182.73419922 436.45460938 -183.73828125 435.515625 C-188.01084808 431.39038807 -191.72695605 426.86725039 -195.44140625 422.23828125 C-196.90409348 420.4241531 -198.3887174 418.62731811 -199.90234375 416.85546875 C-210.88293322 403.92895203 -219.90823261 389.38481991 -227.75 374.375 C-228.14396973 373.63040527 -228.53793945 372.88581055 -228.94384766 372.11865234 C-240.46875333 350.06921925 -248.26639241 325.8213366 -252.75 301.375 C-252.91081055 300.56369629 -253.07162109 299.75239258 -253.23730469 298.91650391 C-258.55093659 271.32396382 -258.33375819 238.89745952 -252.75 211.375 C-252.55132324 210.35954102 -252.35264648 209.34408203 -252.14794922 208.29785156 C-243.77363645 166.4325606 -225.75592395 127.48067827 -198.75 94.375 C-198.29689453 93.81893066 -197.84378906 93.26286133 -197.37695312 92.68994141 C-186.68684133 79.6792395 -175.08844556 67.68983419 -161.75 57.375 C-160.47351588 56.35862835 -159.19750814 55.34165824 -157.921875 54.32421875 C-148.00188191 46.48860031 -137.74798458 39.60426567 -126.75 33.375 C-125.93547363 32.91351563 -125.12094727 32.45203125 -124.28173828 31.9765625 C-97.44332275 16.96322439 -68.16709936 6.97183027 -37.75 2.375 C-36.62174805 2.19839844 -35.49349609 2.02179687 -34.33105469 1.83984375 C-22.88652325 0.21279688 -11.54805372 -0.02397294 0 0 Z M-36.0625 33 C-37.6252063 33.26623169 -37.6252063 33.26623169 -39.21948242 33.5378418 C-59.4788161 37.16057524 -80.69323935 43.3022055 -98.75 53.375 C-95.57976438 59.81057831 -92.40066187 66.19695683 -88.75 72.375 C-85.19108055 71.24288044 -81.70754917 69.98353306 -78.23828125 68.60546875 C-58.67909896 60.85427942 -38.52175888 55.08178019 -17.4375 53.5859375 C-15.71653932 53.54618619 -15.71653932 53.54618619 -14.75 52.375 C-14.66314397 50.81327255 -14.64297781 49.24770656 -14.65234375 47.68359375 C-14.65556641 46.73935547 -14.65878906 45.79511719 -14.66210938 44.82226562 C-14.67048828 43.82904297 -14.67886719 42.83582031 -14.6875 41.8125 C-14.69201172 40.81541016 -14.69652344 39.81832031 -14.70117188 38.79101562 C-14.71299993 36.31895151 -14.72948151 33.84700482 -14.75 31.375 C-22.02711114 31.14272009 -28.89310538 31.77138223 -36.0625 33 Z M16.25 31.375 C16.22112186 34.85414941 16.20324313 38.33326831 16.1875 41.8125 C16.17912109 42.80572266 16.17074219 43.79894531 16.16210938 44.82226562 C16.15888672 45.76650391 16.15566406 46.71074219 16.15234375 47.68359375 C16.14710693 48.55814209 16.14187012 49.43269043 16.13647461 50.33374023 C16.02215191 52.36940206 16.02215191 52.36940206 17.25 53.375 C18.63359646 53.61298159 20.02687294 53.7951894 21.421875 53.953125 C44.62113039 56.74272091 67.24601449 61.79083203 88.25 72.375 C88.91 72.375 89.57 72.375 90.25 72.375 C95.2 63.465 95.2 63.465 100.25 54.375 C97.34176955 51.46676955 95.78829754 50.55939641 92.0859375 49.0703125 C91.0549292 48.65410645 90.0239209 48.23790039 88.96166992 47.80908203 C87.86056885 47.37708496 86.75946777 46.94508789 85.625 46.5 C84.49360596 46.05382324 83.36221191 45.60764648 82.1965332 45.14794922 C63.18086443 37.75469396 41.85952407 31.05488095 21.25 31.3125 C19.58333333 31.33333333 17.91666667 31.35416667 16.25 31.375 Z M-130.09375 71.68359375 C-130.75810059 72.17883545 -131.42245117 72.67407715 -132.10693359 73.18432617 C-132.81414551 73.72162354 -133.52135742 74.2589209 -134.25 74.8125 C-135.33595459 75.632948 -135.33595459 75.632948 -136.44384766 76.4699707 C-142.15454334 80.82846842 -147.49911022 85.47357217 -152.75 90.375 C-154.416341 91.83370545 -156.08301367 93.29203208 -157.75 94.75 C-166.35570258 102.55392904 -173.47304737 111.13221995 -180.375 120.4375 C-181.00374023 121.2836084 -181.63248047 122.1297168 -182.28027344 123.00146484 C-183.15087402 124.19376709 -183.15087402 124.19376709 -184.0390625 125.41015625 C-184.56193848 126.1256665 -185.08481445 126.84117676 -185.62353516 127.57836914 C-186.92706973 129.30398569 -186.92706973 129.30398569 -186.75 131.375 C-180.81 134.675 -174.87 137.975 -168.75 141.375 C-165.50961587 138.13461587 -162.95950761 135.09081942 -160.25 131.4375 C-154.86883697 124.30809536 -148.91346632 117.82944542 -142.75 111.375 C-142.14800781 110.72015625 -141.54601562 110.0653125 -140.92578125 109.390625 C-133.27981019 101.30168836 -123.80894795 94.77634842 -114.75 88.375 C-116.34623144 83.98116294 -118.53024333 80.08504193 -120.875 76.0625 C-121.24753906 75.41732422 -121.62007813 74.77214844 -122.00390625 74.10742188 C-122.91632213 72.52824055 -123.83275509 70.95138136 -124.75 69.375 C-127.31333804 69.375 -128.05397008 70.15954737 -130.09375 71.68359375 Z M126.25 69.375 C124.25966426 71.96892441 122.70748055 74.86525182 121.0625 77.6875 C120.58619141 78.47318359 120.10988281 79.25886719 119.61914062 80.06835938 C119.17376953 80.82568359 118.72839844 81.58300781 118.26953125 82.36328125 C117.85807861 83.05977783 117.44662598 83.75627441 117.02270508 84.47387695 C115.94339138 86.53878301 115.94339138 86.53878301 117.25 89.375 C119.32515238 91.09245364 119.32515238 91.09245364 121.9375 92.8125 C140.81212411 106.17896532 155.93419543 122.57060215 169.25 141.375 C175.68557831 138.20476438 182.07195683 135.02566187 188.25 131.375 C186.78840771 127.05411789 184.48329459 123.73244251 181.6875 120.1875 C181.24494873 119.61942627 180.80239746 119.05135254 180.34643555 118.46606445 C176.84693558 114.02230446 173.15310253 109.78588326 169.31640625 105.62890625 C167.48259442 103.6286994 165.73962633 101.58156762 164 99.5 C155.98689667 90.39420076 146.78833713 82.81947997 137.0625 75.625 C136.22428711 75.00415527 135.38607422 74.38331055 134.52246094 73.74365234 C130.74366284 70.59245231 130.74366284 70.59245231 126.25 69.375 Z M-72.75 98.375 C-68.90618834 106.28034428 -64.79477056 113.94016642 -60.3125 121.5 C-59.08270121 123.59077414 -57.85355854 125.68193433 -56.625 127.7734375 C-55.99207031 128.84948242 -55.35914063 129.92552734 -54.70703125 131.03417969 C-51.37965594 136.71429492 -48.0966979 142.41984607 -44.8125 148.125 C-40.15050203 156.22343523 -35.46440125 164.30693144 -30.75 172.375 C-25.47 171.055 -20.19 169.735 -14.75 168.375 C-14.75 140.325 -14.75 112.275 -14.75 83.375 C-34.51101264 83.375 -54.87425742 90.39431381 -72.75 98.375 Z M100.25 114.375 C99.33026569 115.79387494 98.46374392 117.24722321 97.6171875 118.7109375 C97.06603271 119.65984863 96.51487793 120.60875977 95.94702148 121.58642578 C95.34575439 122.63040527 94.7444873 123.67438477 94.125 124.75 C93.18926147 126.36430908 93.18926147 126.36430908 92.23461914 128.01123047 C90.23527516 131.46325984 88.24151562 134.91845161 86.25 138.375 C85.61594238 139.47521484 84.98188477 140.57542969 84.32861328 141.70898438 C83.70583496 142.78986328 83.08305664 143.87074219 82.44140625 144.984375 C81.82031982 146.06219238 81.1992334 147.14000977 80.55932617 148.25048828 C79.31249173 150.41500718 78.066559 152.58004574 76.8215332 154.74560547 C73.72063218 160.13037442 70.59431809 165.49759329 67.4140625 170.8359375 C66.80763916 171.85413574 66.20121582 172.87233398 65.57641602 173.92138672 C64.42469031 175.84990956 63.26909656 177.77612911 62.10913086 179.69970703 C61.60003174 180.55161621 61.09093262 181.40352539 60.56640625 182.28125 C60.11724854 183.02697266 59.66809082 183.77269531 59.20532227 184.54101562 C58.09600638 186.32598283 58.09600638 186.32598283 58.25 188.375 C59.90160781 190.04580281 59.90160781 190.04580281 62 191.75 C64.88831663 194.17832546 67.61082148 196.67638052 70.25 199.375 C71.17554688 198.82714844 72.10109375 198.27929688 73.0546875 197.71484375 C81.86296098 192.5118432 90.70260973 187.36458822 99.5625 182.25 C100.64442627 181.62367676 101.72635254 180.99735352 102.84106445 180.35205078 C108.24785562 177.22913909 113.66549805 174.13225783 119.12348938 171.09991455 C121.72605081 169.65332497 124.32354652 168.19775861 126.92098999 166.74200439 C128.17599917 166.04234503 129.43366232 165.34742388 130.69400024 164.65740967 C132.44955932 163.69600493 134.19573049 162.71751711 135.94140625 161.73828125 C136.94373291 161.18438721 137.94605957 160.63049316 138.97875977 160.05981445 C141.3596112 158.58069082 141.3596112 158.58069082 142.17456055 156.31323242 C142.29782285 153.14630867 140.52196424 151.7176896 138.5 149.375 C137.66726563 148.40691406 136.83453125 147.43882812 135.9765625 146.44140625 C135.06888588 145.418225 134.16001844 144.39609899 133.25 143.375 C132.59016113 142.62259033 132.59016113 142.62259033 131.91699219 141.85498047 C122.79760194 131.47439795 113.05569008 121.7110461 101.25 114.375 C100.92 114.375 100.59 114.375 100.25 114.375 Z M-202.75 157.375 C-216.72316618 182.46318473 -224.75 212.74088737 -224.75 241.375 C-217.49 241.375 -210.23 241.375 -202.75 241.375 C-202.37875 238.075 -202.0075 234.775 -201.625 231.375 C-199.17739456 211.85313494 -193.94836543 193.65039364 -186.56835938 175.45214844 C-185.52090082 172.79350363 -184.61370999 170.09833049 -183.75 167.375 C-186.53748519 165.70126249 -189.33064427 164.03723733 -192.125 162.375 C-193.31609375 161.65957031 -193.31609375 161.65957031 -194.53125 160.9296875 C-195.29179687 160.47851562 -196.05234375 160.02734375 -196.8359375 159.5625 C-197.5376709 159.14355469 -198.2394043 158.72460938 -198.96240234 158.29296875 C-200.71160139 157.22273004 -200.71160139 157.22273004 -202.75 157.375 Z M200.34887695 158.17944336 C199.65238037 158.60362549 198.95588379 159.02780762 198.23828125 159.46484375 C197.48095703 159.91923828 196.72363281 160.37363281 195.94335938 160.84179688 C194.76483398 161.56979492 194.76483398 161.56979492 193.5625 162.3125 C192.76521484 162.79396484 191.96792969 163.27542969 191.14648438 163.77148438 C189.17527257 164.96365439 187.21031588 166.1650261 185.25 167.375 C186.36200568 170.88122199 187.60279354 174.30411669 188.984375 177.7109375 C197.36291483 198.51038653 201.74744946 219.13010628 204.25 241.375 C211.51 241.375 218.77 241.375 226.25 241.375 C226.25 216.42970631 219.41869294 191.84876473 210 168.875 C209.5757373 167.83537109 209.15147461 166.79574219 208.71435547 165.72460938 C208.30846191 164.77392578 207.90256836 163.82324219 207.484375 162.84375 C207.12569336 162.00263672 206.76701172 161.16152344 206.39746094 160.29492188 C204.79764874 157.61812973 203.27516527 156.94121041 200.34887695 158.17944336 Z M-157.75 183.375 C-165.49364267 201.25128148 -172.75 221.6666253 -172.75 241.375 C-144.7 241.375 -116.65 241.375 -87.75 241.375 C-86.43 236.095 -85.11 230.815 -83.75 225.375 C-94.81467861 218.42411216 -106.12485208 211.92265855 -117.4556427 205.41677856 C-121.62969404 203.02004198 -125.80028746 200.61738031 -129.96875 198.2109375 C-130.84990227 197.70225883 -130.84990227 197.70225883 -131.74885559 197.18330383 C-133.47843244 196.18475228 -135.20796658 195.18612676 -136.9375 194.1875 C-140.01122915 192.41316273 -143.08508513 190.63909529 -146.16162109 188.86962891 C-147.76795749 187.94206888 -149.37060459 187.00804926 -150.96728516 186.06396484 C-154.14283304 184.03713274 -154.14283304 184.03713274 -157.75 183.375 Z M-42.75 215.375 C-53.32674454 227.55811018 -59.60906198 242.87316746 -59.09375 259.1484375 C-57.43117296 274.75399021 -51.58362085 289.6637026 -39.75 300.375 C-24.86809365 312.39120061 -9.65297143 316.50691446 9.25 315.375 C23.75612452 313.42320674 36.98808518 305.73983363 46.5390625 294.73828125 C56.25150658 281.98842489 61.97246596 266.54269187 60.25 250.375 C57.26227717 232.83991241 49.77973612 218.14540509 35.0625 207.625 C10.34751039 190.70367828 -21.53631346 194.65086008 -42.75 215.375 Z M-224.75 271.375 C-224.75 296.32029369 -217.91869294 320.90123527 -208.5 343.875 C-207.86360596 345.43444336 -207.86360596 345.43444336 -207.21435547 347.02539062 C-206.80846191 347.97607422 -206.40256836 348.92675781 -205.984375 349.90625 C-205.44635254 351.16791992 -205.44635254 351.16791992 -204.89746094 352.45507812 C-203.83326685 354.70952105 -203.83326685 354.70952105 -200.75 355.375 C-198.7634153 354.58901491 -198.7634153 354.58901491 -196.73828125 353.28515625 C-195.98095703 352.83076172 -195.22363281 352.37636719 -194.44335938 351.90820312 C-193.65767578 351.42287109 -192.87199219 350.93753906 -192.0625 350.4375 C-191.26521484 349.95603516 -190.46792969 349.47457031 -189.64648438 348.97851562 C-187.67527257 347.78634561 -185.71031588 346.5849739 -183.75 345.375 C-184.88211956 341.81608055 -186.14146694 338.33254917 -187.51953125 334.86328125 C-195.76563136 314.05727051 -200.52315844 293.64341565 -202.75 271.375 C-210.01 271.375 -217.27 271.375 -224.75 271.375 Z M89.25 271.375 C87.93 276.655 86.61 281.935 85.25 287.375 C96.31467861 294.32588784 107.62485208 300.82734145 118.9556427 307.33322144 C123.12969404 309.72995802 127.30028746 312.13261969 131.46875 314.5390625 C132.05618484 314.87818161 132.64361969 315.21730072 133.24885559 315.56669617 C134.97843244 316.56524772 136.70796658 317.56387324 138.4375 318.5625 C141.51122915 320.33683727 144.58508513 322.11090471 147.66162109 323.88037109 C149.26795749 324.80793112 150.87060459 325.74195074 152.46728516 326.68603516 C155.64283304 328.71286726 155.64283304 328.71286726 159.25 329.375 C167.23728006 310.27140233 172.51838506 292.15437924 174.25 271.375 C146.2 271.375 118.15 271.375 89.25 271.375 Z M204.25 271.375 C203.87875 274.675 203.5075 277.975 203.125 281.375 C200.67739456 300.89686506 195.44836543 319.09960636 188.06835938 337.29785156 C187.02090082 339.95649637 186.11370999 342.65166951 185.25 345.375 C188.01092412 347.07913664 190.78513998 348.76030685 193.5625 350.4375 C194.34818359 350.92283203 195.13386719 351.40816406 195.94335938 351.90820312 C197.0793457 352.58979492 197.0793457 352.58979492 198.23828125 353.28515625 C199.28302612 353.92142944 199.28302612 353.92142944 200.34887695 354.57055664 C202.40898426 355.68918371 202.40898426 355.68918371 205.25 354.375 C206.38767059 352.662122 206.38767059 352.662122 207.265625 350.4921875 C207.6263208 349.66654297 207.9870166 348.84089844 208.35864258 347.99023438 C208.73529053 347.08595703 209.11193848 346.18167969 209.5 345.25 C209.89405029 344.31220703 210.28810059 343.37441406 210.6940918 342.40820312 C217.73043674 325.24458298 222.29439965 307.66120729 225.25 289.375 C225.44851563 288.2509375 225.64703125 287.126875 225.8515625 285.96875 C226.38781197 281.13199006 226.25 276.24139601 226.25 271.375 C218.99 271.375 211.73 271.375 204.25 271.375 Z M-68.75 313.375 C-69.67554688 313.92285156 -70.60109375 314.47070312 -71.5546875 315.03515625 C-80.36296098 320.2381568 -89.20260973 325.38541178 -98.0625 330.5 C-99.6853894 331.43948486 -99.6853894 331.43948486 -101.34106445 332.39794922 C-106.74785562 335.52086091 -112.16549805 338.61774217 -117.62348938 341.65008545 C-120.22605081 343.09667503 -122.82354652 344.55224139 -125.42098999 346.00799561 C-126.67599917 346.70765497 -127.93366232 347.40257612 -129.19400024 348.09259033 C-130.94955932 349.05399507 -132.69573049 350.03248289 -134.44140625 351.01171875 C-135.44373291 351.56561279 -136.44605957 352.11950684 -137.47875977 352.69018555 C-139.8596112 354.16930918 -139.8596112 354.16930918 -140.67456055 356.43676758 C-140.79782285 359.60369133 -139.02196424 361.0323104 -137 363.375 C-136.16726562 364.34308594 -135.33453125 365.31117188 -134.4765625 366.30859375 C-133.56888588 367.331775 -132.66001844 368.35390101 -131.75 369.375 C-131.31010742 369.87660645 -130.87021484 370.37821289 -130.41699219 370.89501953 C-121.23069367 381.35176358 -111.43925142 390.71739928 -99.75 398.375 C-96.93215963 395.8666488 -95.29276277 393.07577062 -93.44921875 389.80078125 C-92.48846436 388.10465698 -92.48846436 388.10465698 -91.50830078 386.37426758 C-91.17090881 385.77353424 -90.83351685 385.1728009 -90.48590088 384.55386353 C-88.69969891 381.3740663 -86.8972953 378.20345488 -85.09765625 375.03125 C-84.73254944 374.38658279 -84.36744263 373.74191559 -83.99127197 373.07771301 C-80.50074934 366.9194338 -76.94796403 360.79829815 -73.375 354.6875 C-72.80595947 353.71256592 -72.23691895 352.73763184 -71.65063477 351.7331543 C-69.00325281 347.20351412 -66.34249403 342.68249079 -63.65625 338.17578125 C-63.18364746 337.38067139 -62.71104492 336.58556152 -62.22412109 335.76635742 C-61.35081224 334.299306 -60.47377116 332.8344672 -59.59228516 331.37231445 C-57.46459441 328.10132767 -57.46459441 328.10132767 -56.75 324.375 C-58.40160781 322.70419719 -58.40160781 322.70419719 -60.5 321 C-63.38831663 318.57167454 -66.11082148 316.07361948 -68.75 313.375 Z M16.25 344.375 C16.25 372.425 16.25 400.475 16.25 429.375 C26.8558005 428.51008709 26.8558005 428.51008709 37.25 426.75 C38.43770996 426.49875366 38.43770996 426.49875366 39.64941406 426.24243164 C51.55990741 423.57062458 63.09035865 419.28345188 74.25 414.375 C70.70440054 406.89464992 66.78410342 399.74420905 62.55493164 392.63647461 C58.58156734 385.95805725 54.69058976 379.23413823 50.8125 372.5 C50.17425293 371.39462891 49.53600586 370.28925781 48.87841797 369.15039062 C45.8707465 363.93923793 42.87522128 358.72211401 39.9140625 353.484375 C39.4080249 352.59476074 38.9019873 351.70514648 38.38061523 350.78857422 C37.4390366 349.13224962 36.50336293 347.47255016 35.57446289 345.80908203 C34.52237586 343.96459123 33.39434696 342.16371559 32.25 340.375 C26.75252583 340.375 21.53595306 342.8647277 16.25 344.375 Z M169.25 371.375 C167.94987493 373.06114796 166.68674492 374.77581693 165.4375 376.5 C151.50399381 395.37811163 135.37032759 410.83547868 116.25 424.375 C117.84623144 428.76883706 120.03024333 432.66495807 122.375 436.6875 C122.74753906 437.33267578 123.12007813 437.97785156 123.50390625 438.64257812 C124.41632213 440.22175945 125.33275509 441.79861864 126.25 443.375 C130.57082926 441.91342559 133.89269308 439.60841151 137.4375 436.8125 C138.29178589 436.1464978 138.29178589 436.1464978 139.16333008 435.46704102 C143.55237602 432.00879988 147.74769444 428.37127055 151.85546875 424.58203125 C153.46366789 423.09975961 155.09183582 421.63888925 156.73828125 420.19921875 C166.35306751 411.78067339 174.28320934 402.54782644 181.875 392.3125 C182.81811035 391.0433374 182.81811035 391.0433374 183.78027344 389.74853516 C184.65087402 388.55623291 184.65087402 388.55623291 185.5390625 387.33984375 C186.32337646 386.26657837 186.32337646 386.26657837 187.12353516 385.17163086 C188.42706973 383.44601431 188.42706973 383.44601431 188.25 381.375 C185.27273264 379.70492313 182.2928803 378.03951428 179.3125 376.375 C178.46236328 375.89804687 177.61222656 375.42109375 176.73632812 374.9296875 C175.92744141 374.47851562 175.11855469 374.02734375 174.28515625 373.5625 C173.5362915 373.14355469 172.78742676 372.72460938 172.01586914 372.29296875 C170.43382352 371.29812655 170.43382352 371.29812655 169.25 371.375 Z M-172.78515625 373.5625 C-173.59404297 374.01367188 -174.40292969 374.46484375 -175.23632812 374.9296875 C-176.08646484 375.40664063 -176.93660156 375.88359375 -177.8125 376.375 C-178.66650391 376.85195313 -179.52050781 377.32890625 -180.40039062 377.8203125 C-182.517988 379.0033278 -184.63446331 380.18830479 -186.75 381.375 C-185.28840771 385.69588211 -182.98329459 389.01755749 -180.1875 392.5625 C-179.74494873 393.13057373 -179.30239746 393.69864746 -178.84643555 394.28393555 C-175.34693558 398.72769554 -171.65310253 402.96411674 -167.81640625 407.12109375 C-165.98259442 409.1213006 -164.23962633 411.16843238 -162.5 413.25 C-154.50238141 422.33820294 -145.290065 429.94877284 -135.625 437.1875 C-134.79516602 437.81672363 -133.96533203 438.44594727 -133.11035156 439.09423828 C-131.93811035 439.9544458 -131.93811035 439.9544458 -130.7421875 440.83203125 C-130.04464355 441.34741455 -129.34709961 441.86279785 -128.62841797 442.39379883 C-128.00854004 442.71759521 -127.38866211 443.0413916 -126.75 443.375 C-122.23892596 441.87130865 -121.21829837 438.52372733 -119 434.5 C-118.57589844 433.76652344 -118.15179688 433.03304687 -117.71484375 432.27734375 C-117.31910156 431.56964844 -116.92335938 430.86195313 -116.515625 430.1328125 C-115.97083496 429.16045654 -115.97083496 429.16045654 -115.41503906 428.16845703 C-114.4659436 426.18327309 -114.4659436 426.18327309 -115.75 423.375 C-117.82515238 421.65754636 -117.82515238 421.65754636 -120.4375 419.9375 C-138.13017949 407.40805382 -153.07477194 392.18914702 -165.5078125 374.453125 C-166.24773437 373.43734375 -166.98765625 372.4215625 -167.75 371.375 C-169.60771493 371.375 -171.20302925 372.67739399 -172.78515625 373.5625 Z M-88.75 440.375 C-93.7 449.285 -93.7 449.285 -98.75 458.375 C-95.84176955 461.28323045 -94.28829754 462.19060359 -90.5859375 463.6796875 C-89.5549292 464.09589355 -88.5239209 464.51209961 -87.46166992 464.94091797 C-86.36056885 465.37291504 -85.25946777 465.80491211 -84.125 466.25 C-82.99360596 466.69617676 -81.86221191 467.14235352 -80.6965332 467.60205078 C-61.68086443 474.99530604 -40.35952407 481.69511905 -19.75 481.4375 C-18.08333333 481.41666667 -16.41666667 481.39583333 -14.75 481.375 C-14.72112186 477.89585059 -14.70324313 474.41673169 -14.6875 470.9375 C-14.67493164 469.44766602 -14.67493164 469.44766602 -14.66210938 467.92773438 C-14.65727539 466.51137695 -14.65727539 466.51137695 -14.65234375 465.06640625 C-14.64448853 463.75458374 -14.64448853 463.75458374 -14.63647461 462.41625977 C-14.52215191 460.38059794 -14.52215191 460.38059794 -15.75 459.375 C-17.13359646 459.13701841 -18.52687294 458.9548106 -19.921875 458.796875 C-43.12113039 456.00727909 -65.74601449 450.95916797 -86.75 440.375 C-87.41 440.375 -88.07 440.375 -88.75 440.375 Z M82.33666992 442.91503906 C62.19784158 451.79106338 41.14441121 457.35595528 19.17041016 459.11791992 C17.24472312 459.17793244 17.24472312 459.17793244 16.25 460.375 C16.16314397 461.93672745 16.14297781 463.50229344 16.15234375 465.06640625 C16.15556641 466.01064453 16.15878906 466.95488281 16.16210938 467.92773438 C16.17048828 468.92095703 16.17886719 469.91417969 16.1875 470.9375 C16.19201172 471.93458984 16.19652344 472.93167969 16.20117188 473.95898438 C16.21299993 476.43104849 16.22948151 478.90299518 16.25 481.375 C23.52711114 481.60727991 30.39310538 480.97861777 37.5625 479.75 C38.6043042 479.57251221 39.6461084 479.39502441 40.71948242 479.2121582 C60.9788161 475.58942476 82.19323935 469.4477945 100.25 459.375 C97.07976438 452.93942169 93.90066187 446.55304317 90.25 440.375 C87.29696192 440.375 84.99442874 441.740434 82.33666992 442.91503906 Z " fill="#000000" transform="translate(255.75,-0.375)"/>
<path d="M0 0 C3.12578199 3.12578199 5.06966456 6.36926865 7.1875 10.1875 C7.55552734 10.84169922 7.92355469 11.49589844 8.30273438 12.16992188 C9.2062466 13.77746961 10.1037241 15.38840651 11 17 C16.62997239 16.34258708 21.2393259 14.87920154 26.44921875 12.7421875 C29.15288689 11.9555153 30.39837147 12.03733652 33 13 C32.7834375 14.10859375 32.566875 15.2171875 32.34375 16.359375 C32.06230682 17.82287953 31.7810675 19.28642327 31.5 20.75 C31.35691406 21.47960937 31.21382813 22.20921875 31.06640625 22.9609375 C30.41111121 26.39343532 30 29.49169491 30 33 C36.27 35.31 42.54 37.62 49 40 C47.28632943 43.42734115 46.68930093 44.54998747 43.9609375 46.796875 C43.38085938 47.28027344 42.80078125 47.76367188 42.203125 48.26171875 C41.59984375 48.75285156 40.9965625 49.24398437 40.375 49.75 C39.76398438 50.25660156 39.15296875 50.76320313 38.5234375 51.28515625 C37.02070947 52.5296029 35.51102533 53.76564128 34 55 C35.1225346 57.27208206 36.24791521 59.54267645 37.375 61.8125 C37.69210937 62.45509766 38.00921875 63.09769531 38.3359375 63.75976562 C39.76458611 66.63194461 41.21785473 69.3267821 43 72 C43 72.99 43 73.98 43 75 C35.74 75 28.48 75 21 75 C20.814375 77.413125 20.814375 77.413125 20.625 79.875 C20.13504182 85.34975013 19.19761344 90.6398078 18 96 C13.79046213 94.2703384 10.64856424 91.31793255 7.25 88.375 C6.64800781 87.859375 6.04601562 87.34375 5.42578125 86.8125 C3.94739134 85.54530865 2.47326829 84.27314225 1 83 C-4.02756964 86.65033647 -8.76279591 90.47093966 -13.3359375 94.6796875 C-15 96 -15 96 -17 96 C-17.50734284 93.6263603 -18.00602386 91.25142575 -18.5 88.875 C-18.64308594 88.20984375 -18.78617188 87.5446875 -18.93359375 86.859375 C-19.78704806 82.71402549 -20 79.31170894 -20 75 C-27.26 75 -34.52 75 -42 75 C-40.9085489 69.54274451 -38.7144627 66.16126 -35.61914062 61.72851562 C-33.467248 58.59716363 -33.467248 58.59716363 -33.34765625 54.94921875 C-35.80754135 52.04736848 -38.65968571 49.74471697 -41.625 47.375 C-43.80471432 45.62754971 -45.90808024 43.85621049 -48 42 C-48 41.34 -48 40.68 -48 40 C-41.73 37.69 -35.46 35.38 -29 33 C-29.309375 30.64875 -29.61875 28.2975 -29.9375 25.875 C-30.03281006 25.14651855 -30.12812012 24.41803711 -30.22631836 23.66748047 C-30.74352008 19.76385152 -31.32914429 15.88008436 -32 12 C-24.51570035 12.83801039 -18.06923354 15.37428469 -11 18 C-7.37 12.06 -3.74 6.12 0 0 Z " fill="#000000" transform="translate(256,207)"/>
</svg>
