<svg width="120" height="40" viewBox="0 0 120 40" fill="none" xmlns="http://www.w3.org/2000/svg">
  <!-- Background shape with gradient -->
  <rect width="40" height="40" rx="8" fill="url(#paint0_linear)"/>
  
  <!-- Controller icon -->
  <path d="M24 14H16C14.9 14 14 14.9 14 16V24C14 25.1 14.9 26 16 26H24C25.1 26 26 25.1 26 24V16C26 14.9 25.1 14 24 14ZM20 23C18.34 23 17 21.66 17 20C17 18.34 18.34 17 20 17C21.66 17 23 18.34 23 20C23 21.66 21.66 23 20 23Z" fill="white"/>
  
  <!-- Buttons -->
  <circle cx="20" cy="20" r="1.5" fill="#ff00ff"/>
  <circle cx="24" cy="16" r="1" fill="#00ffff"/>
  <circle cx="16" cy="16" r="1" fill="#00ffff"/>
  <circle cx="16" cy="24" r="1" fill="#00ffff"/>
  <circle cx="24" cy="24" r="1" fill="#00ffff"/>
  
  <!-- Text -->
  <path d="M45 23V17C45 16.4477 45.4477 16 46 16H49C50.1046 16 51 16.8954 51 18C51 19.1046 50.1046 20 49 20H46.5V23H45Z" fill="white"/>
  <path d="M46.5 19H49C49.2761 19 49.5 18.7761 49.5 18.5C49.5 18.2239 49.2761 18 49 18H46.5V19Z" fill="white"/>
  <path d="M52 23V16H53.5V20.5L56.5 16H58L55 20.5L58 23H56.5L53.5 20.5V23H52Z" fill="white"/>
  <path d="M60 23V16H61.5V23H60Z" fill="white"/>
  <path d="M67 19C67 17.8954 66.1046 17 65 17H63V23H64.5V21H65C66.1046 21 67 20.1046 67 19ZM64.5 19.5H65C65.2761 19.5 65.5 19.2761 65.5 19C65.5 18.7239 65.2761 18.5 65 18.5H64.5V19.5Z" fill="white"/>
  <path d="M72 23V22H69.5V20H71.5V19H69.5V17H72V16H68V23H72Z" fill="white"/>
  <path d="M76 23C77.6569 23 79 21.6569 79 20C79 18.3431 77.6569 17 76 17H74V23H76Z" fill="white"/>
  <path d="M75.5 21.5V18.5H76C76.8284 18.5 77.5 19.1716 77.5 20C77.5 20.8284 76.8284 21.5 76 21.5H75.5Z" fill="white"/>
  <path d="M80 23V16H84V17H81.5V19H83.5V20H81.5V22H84V23H80Z" fill="white"/>
  <path d="M88 23C89.6569 23 91 21.6569 91 20C91 18.3431 89.6569 17 88 17C86.3431 17 85 18.3431 85 20C85 21.6569 86.3431 23 88 23ZM88 21.5C87.1716 21.5 86.5 20.8284 86.5 20C86.5 19.1716 87.1716 18.5 88 18.5C88.8284 18.5 89.5 19.1716 89.5 20C89.5 20.8284 88.8284 21.5 88 21.5Z" fill="white"/>
  <path d="M95 23C96.6569 23 98 21.6569 98 20C98 18.3431 96.6569 17 95 17C93.3431 17 92 18.3431 92 20C92 21.6569 93.3431 23 95 23ZM95 21.5C94.1716 21.5 93.5 20.8284 93.5 20C93.5 19.1716 94.1716 18.5 95 18.5C95.8284 18.5 96.5 19.1716 96.5 20C96.5 20.8284 95.8284 21.5 95 21.5Z" fill="white"/>
  <path d="M102 16C102.552 16 103 16.4477 103 17V22C103 22.5523 102.552 23 102 23H99V16H102Z" fill="white"/>
  <path d="M100.5 21.5H101.5C101.776 21.5 102 21.2761 102 21V18C102 17.7239 101.776 17.5 101.5 17.5H100.5V21.5Z" fill="white"/>
  
  <!-- Glowing effect around edges -->
  <rect x="1" y="1" width="38" height="38" rx="7" stroke="url(#paint1_linear)" stroke-width="1"/>
  
  <!-- Gradients definition -->
  <defs>
    <linearGradient id="paint0_linear" x1="0" y1="0" x2="40" y2="40" gradientUnits="userSpaceOnUse">
      <stop offset="0" stop-color="#1a1a1a"/>
      <stop offset="1" stop-color="#2a2a2a"/>
    </linearGradient>
    <linearGradient id="paint1_linear" x1="0" y1="0" x2="40" y2="40" gradientUnits="userSpaceOnUse">
      <stop offset="0" stop-color="#ff00ff"/>
      <stop offset="1" stop-color="#00ffff"/>
    </linearGradient>
  </defs>
</svg>