<?xml version="1.0" encoding="UTF-8"?>
<svg version="1.1" xmlns="http://www.w3.org/2000/svg" width="58" height="56">
<path d="M0 0 C2.97841956 1.49476653 5.69856254 3.32898961 8.46875 5.17578125 C8.46875 5.83578125 8.46875 6.49578125 8.46875 7.17578125 C9.12875 7.17578125 9.78875 7.17578125 10.46875 7.17578125 C15.16428488 12.69905465 17.47734084 19.21886877 17.46484375 26.4296875 C16.90219288 33.31318216 15.44294944 39.86452337 10.90625 45.17578125 C8.46875 47.17578125 8.46875 47.17578125 6.46875 48.17578125 C6.46875 48.83578125 6.46875 49.49578125 6.46875 50.17578125 C-2.32446728 55.41789155 -10.9064293 56.9000432 -21.19140625 54.57421875 C-26.23893805 52.76040514 -26.23893805 52.76040514 -27.53125 50.17578125 C-23.24125 50.17578125 -18.95125 50.17578125 -14.53125 50.17578125 C-15.46066406 50.005625 -16.39007812 49.83546875 -17.34765625 49.66015625 C-30.80616072 47.02178415 -30.80616072 47.02178415 -35.53125 43.17578125 C-36.19921875 40.0390625 -36.19921875 40.0390625 -36.53125 37.17578125 C-35.64566406 37.46453125 -34.76007812 37.75328125 -33.84765625 38.05078125 C-22.63476609 41.41114792 -11.10335927 42.9449825 0.46875 40.17578125 C-0.09932373 40.19672852 -0.66739746 40.21767578 -1.25268555 40.23925781 C-28.79921597 41.11914294 -28.79921597 41.11914294 -39.53125 32.17578125 C-41.02422212 29.18983701 -40.64880228 26.46724501 -40.53125 23.17578125 C-40.20125 22.51578125 -39.87125 21.85578125 -39.53125 21.17578125 C-37.59216807 22.12831272 -35.68030716 23.08905709 -33.8125 24.17578125 C-24.58604476 29.3555456 -14.80443496 29.67226882 -4.53125 28.17578125 C-5.17449219 28.21058594 -5.81773438 28.24539062 -6.48046875 28.28125 C-16.26017853 28.57422276 -26.79916598 27.6870099 -34.53125 21.17578125 C-35.170625 20.74265625 -35.81 20.30953125 -36.46875 19.86328125 C-37.53125 18.17578125 -37.53125 18.17578125 -37.46875 14.61328125 C-36.53125 11.17578125 -36.53125 11.17578125 -34.46875 9.73828125 C-33.5096875 9.45984375 -33.5096875 9.45984375 -32.53125 9.17578125 C-31.7578125 10.32046875 -31.7578125 10.32046875 -30.96875 11.48828125 C-27.40105274 15.42189617 -24.06236165 17.00580879 -18.85546875 17.35546875 C-16.4058002 17.36239851 -13.97699538 17.30864871 -11.53125 17.17578125 C-12.25570313 17.0778125 -12.98015625 16.97984375 -13.7265625 16.87890625 C-20.12553057 15.88919919 -24.8419771 14.86505415 -29.53125 10.17578125 C-29.90625 7.86328125 -29.90625 7.86328125 -29.53125 5.17578125 C-25.42314189 1.17578125 -25.42314189 1.17578125 -22.53125 1.17578125 C-22.0775 2.14515625 -21.62375 3.11453125 -21.15625 4.11328125 C-19.87338779 7.24657707 -19.87338779 7.24657707 -17.53125 8.17578125 C-15.53164988 8.21577325 -13.53077758 8.21924924 -11.53125 8.17578125 C-13.84125 7.18578125 -16.15125 6.19578125 -18.53125 5.17578125 C-18.15625 2.73828125 -18.15625 2.73828125 -17.53125 0.17578125 C-12.641485 -2.26910125 -5.0871086 -1.65645049 0 0 Z " fill="#FFFFFF" transform="translate(40.53125,0.82421875)"/>
</svg>
