<?xml version="1.0" encoding="UTF-8"?>
<svg version="1.1" xmlns="http://www.w3.org/2000/svg" width="84" height="84">
<path d="M0 0 C2.94290953 -0.26919511 4.49921643 -0.34777964 6.9679718 1.36669922 C7.91062141 2.32600342 7.91062141 2.32600342 8.87231445 3.3046875 C9.59268387 4.02543457 10.31305328 4.74618164 11.05525208 5.48876953 C11.8169017 6.27622559 12.57855133 7.06368164 13.36328125 7.875 C14.55125557 9.07358643 14.55125557 9.07358643 15.76322937 10.29638672 C18.29161426 12.85277343 20.80207165 15.42598917 23.3125 18 C25.02293634 19.73551131 26.73451151 21.46990103 28.44726562 23.203125 C32.64481483 27.45582077 36.82777217 31.72246715 41 36 C44.08975905 34.62857919 46.15093536 33.07569146 48.49584961 30.65185547 C49.16011459 29.97130096 49.82437958 29.29074646 50.5087738 28.58956909 C51.56984093 27.4894902 51.56984093 27.4894902 52.65234375 26.3671875 C54.16558363 24.82379508 55.67926914 23.28083947 57.19335938 21.73828125 C59.57297819 19.30278434 61.94850091 16.86362987 64.31616211 14.41650391 C66.60465302 12.05561494 68.90841927 9.71054108 71.21484375 7.3671875 C71.9201976 6.62975311 72.62555145 5.89231873 73.35227966 5.13253784 C74.01969681 4.45828766 74.68711395 3.78403748 75.37475586 3.08935547 C76.24601357 2.19239456 76.24601357 2.19239456 77.13487244 1.27731323 C79.53610157 -0.36714359 81.15115637 -0.24195601 84 0 C84.26919511 2.94290953 84.34777964 4.49921643 82.63330078 6.9679718 C81.99376465 7.59640488 81.35422852 8.22483795 80.6953125 8.87231445 C79.97456543 9.59268387 79.25381836 10.31305328 78.51123047 11.05525208 C77.72377441 11.8169017 76.93631836 12.57855133 76.125 13.36328125 C75.32594238 14.15526413 74.52688477 14.94724701 73.70361328 15.76322937 C71.14722657 18.29161426 68.57401083 20.80207165 66 23.3125 C64.26448869 25.02293634 62.53009897 26.73451151 60.796875 28.44726562 C56.54417923 32.64481483 52.27753285 36.82777217 48 41 C49.37142081 44.08975905 50.92430854 46.15093536 53.34814453 48.49584961 C54.02869904 49.16011459 54.70925354 49.82437958 55.41043091 50.5087738 C56.14381683 51.21615189 56.87720276 51.92352997 57.6328125 52.65234375 C59.17620492 54.16558363 60.71916053 55.67926914 62.26171875 57.19335938 C64.69721566 59.57297819 67.13637013 61.94850091 69.58349609 64.31616211 C71.94438506 66.60465302 74.28945892 68.90841927 76.6328125 71.21484375 C77.37024689 71.9201976 78.10768127 72.62555145 78.86746216 73.35227966 C79.54171234 74.01969681 80.21596252 74.68711395 80.91064453 75.37475586 C81.50861847 75.95559433 82.10659241 76.5364328 82.72268677 77.13487244 C84.36714359 79.53610157 84.24195601 81.15115637 84 84 C81.05709047 84.26919511 79.50078357 84.34777964 77.0320282 82.63330078 C76.40359512 81.99376465 75.77516205 81.35422852 75.12768555 80.6953125 C74.40731613 79.97456543 73.68694672 79.25381836 72.94474792 78.51123047 C72.1830983 77.72377441 71.42144867 76.93631836 70.63671875 76.125 C69.84473587 75.32594238 69.05275299 74.52688477 68.23677063 73.70361328 C65.70838574 71.14722657 63.19792835 68.57401083 60.6875 66 C58.97706366 64.26448869 57.26548849 62.53009897 55.55273438 60.796875 C51.35518517 56.54417923 47.17222783 52.27753285 43 48 C39.91024095 49.37142081 37.84906464 50.92430854 35.50415039 53.34814453 C34.83988541 54.02869904 34.17562042 54.70925354 33.4912262 55.41043091 C32.78384811 56.14381683 32.07647003 56.87720276 31.34765625 57.6328125 C29.83441637 59.17620492 28.32073086 60.71916053 26.80664062 62.26171875 C24.42702181 64.69721566 22.05149909 67.13637013 19.68383789 69.58349609 C17.39534698 71.94438506 15.09158073 74.28945892 12.78515625 76.6328125 C12.0798024 77.37024689 11.37444855 78.10768127 10.64772034 78.86746216 C9.98030319 79.54171234 9.31288605 80.21596252 8.62524414 80.91064453 C8.04440567 81.50861847 7.4635672 82.10659241 6.86512756 82.72268677 C4.46389843 84.36714359 2.84884363 84.24195601 0 84 C-0.26919511 81.05709047 -0.34777964 79.50078357 1.36669922 77.0320282 C2.32600342 76.08937859 2.32600342 76.08937859 3.3046875 75.12768555 C4.38580811 74.04713142 4.38580811 74.04713142 5.48876953 72.94474792 C6.27622559 72.1830983 7.06368164 71.42144867 7.875 70.63671875 C8.67405762 69.84473587 9.47311523 69.05275299 10.29638672 68.23677063 C12.85277343 65.70838574 15.42598917 63.19792835 18 60.6875 C19.73551131 58.97706366 21.46990103 57.26548849 23.203125 55.55273438 C27.45582077 51.35518517 31.72246715 47.17222783 36 43 C34.62857919 39.91024095 33.07569146 37.84906464 30.65185547 35.50415039 C29.97130096 34.83988541 29.29074646 34.17562042 28.58956909 33.4912262 C27.85618317 32.78384811 27.12279724 32.07647003 26.3671875 31.34765625 C24.82379508 29.83441637 23.28083947 28.32073086 21.73828125 26.80664062 C19.30278434 24.42702181 16.86362987 22.05149909 14.41650391 19.68383789 C12.05561494 17.39534698 9.71054108 15.09158073 7.3671875 12.78515625 C6.62975311 12.0798024 5.89231873 11.37444855 5.13253784 10.64772034 C4.45828766 9.98030319 3.78403748 9.31288605 3.08935547 8.62524414 C2.49138153 8.04440567 1.89340759 7.4635672 1.27731323 6.86512756 C-0.36714359 4.46389843 -0.24195601 2.84884363 0 0 Z " fill="#000000" transform="translate(0,0)"/>
<path d="M0 0 C3.4125541 1.61915371 5.85298938 3.95509915 8.47851562 6.60546875 C9.02871368 7.14946823 9.57891174 7.69346771 10.14578247 8.25395203 C11.30205887 9.40314246 12.45324779 10.55747168 13.59960938 11.71655273 C15.36074653 13.49160131 17.14462416 15.24128657 18.93164062 16.99023438 C20.05288456 18.11052755 21.17272673 19.23222581 22.29101562 20.35546875 C22.82733612 20.87853104 23.36365662 21.40159332 23.91622925 21.94050598 C25.38427734 23.4465332 25.38427734 23.4465332 27.48632812 26.1796875 C27.31103516 28.54370117 27.31103516 28.54370117 26.48632812 30.1796875 C24.30395508 30.46679688 24.30395508 30.46679688 21.48632812 30.1796875 C18.9909668 28.25195312 18.9909668 28.25195312 16.40429688 25.5859375 C15.94525467 25.11982056 15.48621246 24.65370361 15.01325989 24.17346191 C13.55459904 22.68688656 12.11430948 21.18386442 10.67382812 19.6796875 C9.68605971 18.66683239 8.69713926 17.65509942 7.70703125 16.64453125 C5.28664329 14.16911505 2.88242911 11.67864581 0.48632812 9.1796875 C-3.07606016 10.68160209 -5.24083031 12.73684682 -7.88476562 15.53125 C-8.70654297 16.38203125 -9.52832031 17.2328125 -10.375 18.109375 C-12.09449468 19.90839142 -13.80804076 21.71311209 -15.515625 23.5234375 C-16.33869141 24.37164062 -17.16175781 25.21984375 -18.00976562 26.09375 C-18.75411865 26.8770166 -19.49847168 27.6602832 -20.26538086 28.46728516 C-22.91950979 30.48879241 -24.25595316 30.55468186 -27.51367188 30.1796875 C-28.35205078 28.56176758 -28.35205078 28.56176758 -28.51367188 26.1796875 C-26.78222425 23.92510608 -25.10796389 22.04963233 -23.09960938 20.06640625 C-22.53295563 19.4925972 -21.96630188 18.91878815 -21.38247681 18.32759094 C-20.17969252 17.11701753 -18.97045373 15.91282839 -17.75537109 14.71459961 C-15.89723652 12.87566366 -14.07024344 11.00935584 -12.24414062 9.13867188 C-11.07273522 7.96697608 -9.89961248 6.79699416 -8.72460938 5.62890625 C-8.17856049 5.06757492 -7.6325116 4.50624359 -7.06991577 3.92790222 C-3.26097228 0.23310758 -3.26097228 0.23310758 0 0 Z " fill="#000000" transform="translate(42.513671875,53.8203125)"/>
<path d="M0 0 C0.53987549 0.27215332 1.07975098 0.54430664 1.63598633 0.82470703 C1.9230957 3.00708008 1.9230957 3.00708008 1.63598633 5.82470703 C-0.29174805 8.32006836 -0.29174805 8.32006836 -2.95776367 10.90673828 C-3.42388062 11.36578049 -3.88999756 11.82482269 -4.37023926 12.29777527 C-5.85681461 13.75643612 -7.35983675 15.19672568 -8.86401367 16.63720703 C-9.87686878 17.62497544 -10.88860175 18.61389589 -11.89916992 19.60400391 C-14.37458612 22.02439187 -16.86505536 24.42860605 -19.36401367 26.82470703 C-17.86209909 30.38709532 -15.80685435 32.55186547 -13.01245117 35.19580078 C-12.16166992 36.01757812 -11.31088867 36.83935547 -10.43432617 37.68603516 C-8.63530975 39.40552983 -6.83058908 41.11907592 -5.02026367 42.82666016 C-4.17206055 43.64972656 -3.32385742 44.47279297 -2.44995117 45.32080078 C-1.27505127 46.43733032 -1.27505127 46.43733032 -0.07641602 47.57641602 C1.94509124 50.23054495 2.01098069 51.56698831 1.63598633 54.82470703 C0.01806641 55.66308594 0.01806641 55.66308594 -2.36401367 55.82470703 C-4.61859509 54.09325941 -6.49406884 52.41899905 -8.47729492 50.41064453 C-9.05110397 49.84399078 -9.62491302 49.27733704 -10.21611023 48.69351196 C-11.42668364 47.49072767 -12.63087278 46.28148889 -13.82910156 45.06640625 C-15.66803752 43.20827168 -17.53434534 41.3812786 -19.4050293 39.55517578 C-20.57672509 38.38377038 -21.74670701 37.21064763 -22.91479492 36.03564453 C-23.47612625 35.48959564 -24.03745758 34.94354675 -24.61579895 34.38095093 C-28.3105936 30.57200744 -28.3105936 30.57200744 -28.54370117 27.31103516 C-26.92454746 23.89848106 -24.58860202 21.45804578 -21.93823242 18.83251953 C-21.39423294 18.28232147 -20.85023346 17.73212341 -20.28974915 17.16525269 C-19.14055871 16.00897629 -17.98622949 14.85778737 -16.82714844 13.71142578 C-15.05209986 11.95028863 -13.3024146 10.16641099 -11.5534668 8.37939453 C-10.43317363 7.25815059 -9.31147536 6.13830843 -8.18823242 5.02001953 C-7.66517014 4.48369904 -7.14210785 3.94737854 -6.60319519 3.39480591 C-2.89996675 -0.2150342 -2.89996675 -0.2150342 0 0 Z " fill="#000000" transform="translate(82.364013671875,14.17529296875)"/>
<path d="M0 0 C4.38191196 0.26017405 6.95931332 3.47391919 9.89453125 6.390625 C10.44614426 6.93225281 10.99775726 7.47388062 11.56608582 8.03192139 C12.72727707 9.17794774 13.88444936 10.32805863 15.0378418 11.48193359 C16.80823767 13.2457535 18.60122344 14.98419648 20.39648438 16.72265625 C21.52229863 17.83967093 22.64669771 18.95811413 23.76953125 20.078125 C24.57871758 20.8549765 24.57871758 20.8549765 25.4042511 21.64752197 C27.60065214 23.88549206 28.9535231 25.30134285 29.16601562 28.49560547 C27.56757985 31.92876171 25.23012763 34.3611739 22.57421875 36.9921875 C22.03021927 37.54238556 21.48621979 38.09258362 20.92573547 38.65945435 C19.77654504 39.81573074 18.62221582 40.96691966 17.46313477 42.11328125 C15.68808619 43.8744184 13.93840093 45.65829604 12.18945312 47.4453125 C11.06915995 48.56655644 9.94746169 49.6863986 8.82421875 50.8046875 C8.30115646 51.341008 7.77809418 51.87732849 7.23918152 52.42990112 C5.7331543 53.89794922 5.7331543 53.89794922 3 56 C0.63598633 55.82470703 0.63598633 55.82470703 -1 55 C-1.28710938 52.81762695 -1.28710938 52.81762695 -1 50 C0.92773437 47.50463867 0.92773437 47.50463867 3.59375 44.91796875 C4.05986694 44.45892654 4.52598389 43.99988434 5.00622559 43.52693176 C6.49280094 42.06827091 7.99582308 40.62798135 9.5 39.1875 C10.51285511 38.19973159 11.52458808 37.21081114 12.53515625 36.22070312 C15.01057245 33.80031517 17.50104169 31.39610098 20 29 C18.49808541 25.43761171 16.44284068 23.27284156 13.6484375 20.62890625 C12.79765625 19.80712891 11.946875 18.98535156 11.0703125 18.13867188 C9.27129608 16.4191772 7.46657541 14.70563111 5.65625 12.99804688 C4.80804687 12.17498047 3.95984375 11.35191406 3.0859375 10.50390625 C2.3026709 9.75955322 1.5194043 9.0152002 0.71240234 8.24829102 C-1 6 -1 6 -1.31787109 3.28100586 C-1 1 -1 1 0 0 Z " fill="#000000" transform="translate(1,14)"/>
<path d="M0 0 C2.18237305 -0.28710938 2.18237305 -0.28710938 5 0 C7.49536133 1.92773437 7.49536133 1.92773437 10.08203125 4.59375 C10.54107346 5.05986694 11.00011566 5.52598389 11.47306824 6.00622559 C12.93172909 7.49280094 14.37201865 8.99582308 15.8125 10.5 C16.80026841 11.51285511 17.78918886 12.52458808 18.77929688 13.53515625 C21.19968483 16.01057245 23.60389902 18.50104169 26 21 C29.56238829 19.49808541 31.72715844 17.44284068 34.37109375 14.6484375 C35.19287109 13.79765625 36.01464844 12.946875 36.86132812 12.0703125 C38.5808228 10.27129608 40.29436889 8.46657541 42.00195312 6.65625 C42.82501953 5.80804687 43.64808594 4.95984375 44.49609375 4.0859375 C45.24044678 3.3026709 45.9847998 2.5194043 46.75170898 1.71240234 C49.40583792 -0.30910491 50.74228128 -0.37499436 54 0 C54.83837891 1.61791992 54.83837891 1.61791992 55 4 C53.26855238 6.25458142 51.59429201 8.13005517 49.5859375 10.11328125 C49.01928375 10.6870903 48.45263 11.26089935 47.86880493 11.85209656 C46.66602064 13.06266997 45.45678185 14.26685911 44.24169922 15.46508789 C42.38356465 17.30402384 40.55657157 19.17033166 38.73046875 21.04101562 C37.55906335 22.21271142 36.3859406 23.38269334 35.2109375 24.55078125 C34.66488861 25.11211258 34.11883972 25.67344391 33.5562439 26.25178528 C29.74730041 29.94657992 29.74730041 29.94657992 26.48632812 30.1796875 C23.07377403 28.56053379 20.63333875 26.22458835 18.0078125 23.57421875 C17.18251541 22.75821953 17.18251541 22.75821953 16.34054565 21.92573547 C15.18426926 20.77654504 14.03308034 19.62221582 12.88671875 18.46313477 C11.1255816 16.68808619 9.34170396 14.93840093 7.5546875 13.18945312 C6.43344356 12.06915995 5.3136014 10.94746169 4.1953125 9.82421875 C3.39083176 9.03962532 3.39083176 9.03962532 2.57009888 8.23918152 C1.10205078 6.7331543 1.10205078 6.7331543 -1 4 C-0.82470703 1.63598633 -0.82470703 1.63598633 0 0 Z " fill="#000000" transform="translate(15,0)"/>
</svg>
