<svg width="512" height="512" viewBox="0 0 512 512" fill="none" xmlns="http://www.w3.org/2000/svg">
  <rect width="512" height="512" rx="100" fill="url(#paint0_linear)"/>
  <path d="M256 109C189.726 109 136 162.726 136 229C136 258.399 147.399 285.193 166.193 305.535C170.586 310.277 173.139 316.366 172.584 322.864C171.474 336.06 169.813 345.102 154.317 347.913C148.775 348.918 144.382 353.661 144.382 359.651C144.382 366.595 150.201 372.065 157.145 371.338C199.475 366.595 256 368.605 256 368.605C256 368.605 312.525 366.595 354.855 371.338C361.799 371.973 367.618 366.595 367.618 359.651C367.618 353.753 363.225 348.918 357.683 347.913C342.187 345.102 340.526 336.06 339.416 322.864C338.861 316.275 341.414 310.277 345.807 305.535C364.601 285.193 376 258.399 376 229C376 162.726 322.274 109 256 109Z" fill="white"/>
  <path d="M192 216C203.046 216 212 207.046 212 196C212 184.954 203.046 176 192 176C180.954 176 172 184.954 172 196C172 207.046 180.954 216 192 216Z" fill="#6C63FF"/>
  <path d="M320 216C331.046 216 340 207.046 340 196C340 184.954 331.046 176 320 176C308.954 176 300 184.954 300 196C300 207.046 308.954 216 320 216Z" fill="#6C63FF"/>
  <path d="M243 264H269C272.314 264 275 261.314 275 258C275 254.686 272.314 252 269 252H243C239.686 252 237 254.686 237 258C237 261.314 239.686 264 243 264Z" fill="#6C63FF"/>
  <path d="M268.222 275H275.778C279.092 275 281.778 277.686 281.778 281C281.778 284.314 279.092 287 275.778 287H268.222C264.908 287 262.222 284.314 262.222 281C262.222 277.686 264.908 275 268.222 275Z" fill="#6C63FF"/>
  <path d="M243.778 275H236.222C232.908 275 230.222 277.686 230.222 281C230.222 284.314 232.908 287 236.222 287H243.778C247.092 287 249.778 284.314 249.778 281C249.778 277.686 247.092 275 243.778 275Z" fill="#6C63FF"/>
  <path d="M162 383C148.193 383 137 394.193 137 408V417C137 420.314 139.686 423 143 423H181C184.314 423 187 420.314 187 417V408C187 394.193 175.807 383 162 383Z" fill="#6C63FF"/>
  <path d="M350 383C336.193 383 325 394.193 325 408V417C325 420.314 327.686 423 331 423H369C372.314 423 375 420.314 375 417V408C375 394.193 363.807 383 350 383Z" fill="#6C63FF"/>
  <path d="M129.639 195.456C126.553 195.456 124.055 197.954 124.055 201.04V206.624C124.055 209.71 126.553 212.208 129.639 212.208C132.725 212.208 135.223 209.71 135.223 206.624V201.04C135.223 197.954 132.725 195.456 129.639 195.456Z" fill="#FF6584"/>
  <path d="M382.361 195.456C379.275 195.456 376.777 197.954 376.777 201.04V206.624C376.777 209.71 379.275 212.208 382.361 212.208C385.447 212.208 387.945 209.71 387.945 206.624V201.04C387.945 197.954 385.447 195.456 382.361 195.456Z" fill="#FF6584"/>
  <defs>
    <linearGradient id="paint0_linear" x1="0" y1="0" x2="512" y2="512" gradientUnits="userSpaceOnUse">
      <stop stop-color="#6C63FF"/>
      <stop offset="1" stop-color="#FF6584"/>
    </linearGradient>
  </defs>
</svg>