<?xml version="1.0" encoding="UTF-8"?>
<svg version="1.1" xmlns="http://www.w3.org/2000/svg" width="512" height="512">
<path d="M0 0 C1.31681159 -0.00445784 2.63362318 -0.00891569 3.99033815 -0.01350862 C5.45023748 -0.01341933 6.91013681 -0.01322949 8.37003613 -0.01294994 C9.92212379 -0.01625025 11.4742106 -0.01997618 13.02629632 -0.02409142 C17.29390595 -0.03410093 21.56150152 -0.03782654 25.82912123 -0.04048073 C30.43129709 -0.04438702 35.03346185 -0.05396528 39.63563061 -0.0626936 C50.75274127 -0.0824511 61.86985283 -0.09252431 72.98697665 -0.10142139 C78.22540377 -0.10580634 83.46382988 -0.11117269 88.7022562 -0.11641026 C106.1224986 -0.13342348 123.54274038 -0.14791613 140.96298981 -0.155159 C145.48312728 -0.15706882 150.00326476 -0.15898916 154.52340221 -0.16094494 C155.64683012 -0.16142868 156.77025803 -0.16191242 157.92772921 -0.16241082 C176.11343929 -0.17070539 194.29908347 -0.19603221 212.48476479 -0.22852562 C231.16636667 -0.26163217 249.84793511 -0.2796111 268.52956647 -0.28280324 C279.01414398 -0.28496524 289.49862546 -0.29366823 299.98317432 -0.31926441 C308.9154191 -0.34102074 317.84754452 -0.3489977 326.77981279 -0.33929763 C331.33269712 -0.33476691 335.88533544 -0.33656715 340.43818569 -0.35605907 C344.6166011 -0.3737924 348.79459288 -0.37261156 352.97301342 -0.35716178 C354.47448981 -0.35480099 355.97599633 -0.35902867 357.47742692 -0.37099043 C380.74029807 -0.54465369 400.33628792 7.51399345 417.33858776 23.57172108 C433.08976856 40.27636318 439.18132794 60.85564645 439.03402233 83.30769825 C439.03864472 84.86999716 439.04500652 86.4322917 439.05293131 87.99457735 C439.06946422 92.23938478 439.06145237 96.48382755 439.04898643 100.72863543 C439.03987184 105.32516322 439.05393715 109.92163176 439.06490612 114.51814747 C439.08262759 123.50338877 439.07888001 132.4884959 439.06725556 141.47374231 C439.05819688 148.78016525 439.05700773 156.08655076 439.06135082 163.39297771 C439.06196375 164.43556558 439.06257669 165.47815345 439.06320819 166.55233489 C439.06448718 168.67077038 439.06578403 170.78920587 439.06709856 172.90764134 C439.07848554 192.73931399 439.06541994 212.5709125 439.04389709 232.40257298 C439.0260252 249.39592311 439.02913465 266.38916393 439.04757214 283.38251209 C439.0690076 303.14808033 439.07738985 322.91358372 439.06512308 342.67916197 C439.06384897 344.78920137 439.06259149 346.89924078 439.06135082 349.0092802 C439.06073372 350.0472834 439.06011662 351.0852866 439.05948082 352.15474444 C439.05603614 359.4475974 439.06183713 366.74040902 439.07126904 374.03325558 C439.08252006 382.92758698 439.07938383 391.82177729 439.05814606 400.71609265 C439.0476777 405.24866245 439.04344142 409.78099752 439.05674267 414.31356525 C439.06876026 418.47177541 439.06195182 422.62953572 439.04083246 426.78770571 C439.03640573 428.28276935 439.03854288 429.77787189 439.04833561 431.27291001 C439.12686713 444.27069506 437.03459174 456.64002858 430.90108776 468.25922108 C430.39013561 469.24559559 430.39013561 469.24559559 429.8688612 470.25189686 C419.58060037 489.43473421 403.15833818 503.02790993 382.40108776 509.57172108 C376.5142252 511.24191236 371.18589793 512.2587996 365.04938221 512.26844215 C363.73195392 512.2729 362.41452564 512.27735784 361.05717528 512.28195077 C359.59658693 512.28186148 358.13599859 512.28167164 356.67541027 512.2813921 C355.12260991 512.2846924 353.56981041 512.28841832 352.017012 512.29253358 C347.74747175 512.30254306 343.47794556 512.30626869 339.20839524 512.30892289 C334.60419351 512.31282915 330.00000287 512.32240737 325.39580822 512.33113575 C314.27425347 512.3508927 303.15269781 512.36096612 292.0311299 512.36986354 C286.7910796 512.37424834 281.5510303 512.37961471 276.3109808 512.38485241 C258.88644718 512.40186512 241.46191419 512.41635811 224.03737354 512.42360115 C219.51619624 512.42551099 214.99501895 512.42743133 210.47384167 512.42938709 C209.35015145 512.42987083 208.22646123 512.43035457 207.06871979 512.43085297 C188.87586764 512.43914881 170.68308134 512.46447802 152.49025793 512.49696777 C133.80301082 512.53006774 115.11579714 512.54805263 96.42852056 512.55124539 C85.94006256 512.55340793 75.45170053 512.56211898 64.96327114 512.58770657 C56.02843594 512.60945383 47.09372002 512.61744425 38.15886135 512.60773978 C33.60407571 512.60320654 29.04953599 512.60502421 24.49478436 512.62450123 C20.31580438 512.64221614 16.1372482 512.64106835 11.9582632 512.62560394 C10.45545873 512.6232404 8.95262426 512.62748547 7.44986542 512.63943259 C-5.57758639 512.73649301 -17.95224334 510.65722922 -29.59891224 504.50922108 C-30.58528675 503.99826893 -30.58528675 503.99826893 -31.59158802 503.47699451 C-50.77442538 493.18873369 -64.36760109 476.76647149 -70.91141224 456.00922108 C-72.58160352 450.12235852 -73.59849076 444.79403125 -73.60813332 438.65751553 C-73.61259116 437.34008724 -73.617049 436.02265895 -73.62164193 434.66530859 C-73.62155264 433.20472025 -73.6213628 431.74413191 -73.62108326 430.28354359 C-73.62438356 428.73074323 -73.62810948 427.17794373 -73.63222474 425.62514532 C-73.64223422 421.35560507 -73.64595985 417.08607888 -73.64861405 412.81652856 C-73.65252031 408.21232682 -73.66209853 403.60813618 -73.67082691 399.00394154 C-73.69058386 387.88238678 -73.70065728 376.76083113 -73.7095547 365.63926321 C-73.7139395 360.39921291 -73.71930587 355.15916362 -73.72454357 349.91911411 C-73.74155628 332.4945805 -73.75604927 315.07004751 -73.76329231 297.64550686 C-73.76520215 293.12432956 -73.76712249 288.60315226 -73.76907825 284.08197498 C-73.76980386 282.39643965 -73.76980386 282.39643965 -73.77054413 280.67685311 C-73.77883998 262.48400096 -73.80416918 244.29121466 -73.83665893 226.09839125 C-73.86975891 207.41114414 -73.88774379 188.72393045 -73.89093655 170.03665388 C-73.8930991 159.54819587 -73.90181014 149.05983385 -73.92739773 138.57140446 C-73.949145 129.63656925 -73.95713542 120.70185334 -73.94743095 111.76699467 C-73.9428977 107.21220903 -73.94471537 102.65766931 -73.96419239 98.10291767 C-73.9819073 93.9239377 -73.98075951 89.74538152 -73.9652951 85.56639652 C-73.96293156 84.06359205 -73.96717664 82.56075757 -73.97912375 81.05799873 C-74.07618417 68.03054693 -71.99692038 55.65588998 -65.84891224 44.00922108 C-65.50827747 43.35163807 -65.16764271 42.69405506 -64.81668568 42.0165453 C-54.52842485 22.83370794 -38.10616266 9.24053223 -17.34891224 2.69672108 C-11.4631063 1.02682957 -6.13540297 0.0096454 0 0 Z M173.52608776 110.13422108 C171.89473946 113.55142705 171.27256576 116.29163056 171.24761486 120.06337452 C171.23645138 121.0294614 171.2252879 121.99554829 171.21378613 122.99091053 C171.21162594 124.03891834 171.20946575 125.08692616 171.2072401 126.16669178 C171.19719448 127.27932896 171.18714886 128.39196613 171.17679882 129.53831959 C171.14593338 133.21220863 171.12892207 136.88602468 171.11202526 140.56000233 C171.09331635 143.10877073 171.07374315 145.65753293 171.05333996 148.20628834 C171.00723143 154.22681187 170.9698337 160.24732845 170.93666708 166.26793212 C170.89841065 173.12408208 170.84900976 179.98013766 170.79868293 186.83620799 C170.69543673 200.93547563 170.60615263 215.0348041 170.52608776 229.13422108 C170.115088 228.71861235 169.70408823 228.30300362 169.28063393 227.87480068 C159.27003371 217.75368289 149.24554307 207.64650111 139.20550728 197.55457973 C134.35050568 192.6738184 129.5002795 187.78848439 124.66109753 182.89203358 C119.99114594 178.16684249 115.30814459 173.45485645 110.61697102 168.75071812 C108.82922885 166.95373646 107.04589389 165.15235914 105.26706791 163.34655094 C102.77500344 160.81819927 100.26773444 158.30592281 97.75631237 155.79681873 C96.65794804 154.67148983 96.65794804 154.67148983 95.53739452 153.52342701 C91.38231793 149.40967052 88.39333868 146.96364406 82.52608776 146.13422108 C78.35112246 147.57940137 75.69463601 149.25366105 73.52608776 153.13422108 C72.39153989 156.21370815 72.34430633 157.63620409 73.47489452 160.73361683 C76.39359146 165.57242626 80.21329445 169.21344538 84.22017956 173.16888905 C85.10819256 174.05734013 85.99620556 174.94579121 86.91112804 175.86116505 C89.33734355 178.28565331 91.77000528 180.70330848 94.20581698 183.11813211 C96.7536506 185.64716401 99.2929453 188.18474043 101.83317089 190.7214098 C106.64010599 195.51903469 111.45463448 200.30896327 116.27196103 205.09615147 C121.75790769 210.54852221 127.23529996 216.00945235 132.71200216 221.47110629 C143.97389488 232.70167321 155.24644369 243.92148148 166.52608776 255.13422108 C165.08701469 258.1342715 163.66751994 260.24155966 161.30489635 262.59833241 C160.65016338 263.25614201 159.99543041 263.91395161 159.32085705 264.59169483 C158.61256756 265.29279881 157.90427807 265.99390278 157.17452526 266.71625233 C156.44166302 267.44865635 155.70880077 268.18106037 154.95373058 268.93565845 C153.40094948 270.48541955 151.84573973 272.03275053 150.28829479 273.57782459 C147.92564948 275.92234775 145.57097041 278.27463855 143.21749401 280.6283617 C141.70363943 282.13729525 140.18933059 283.64577323 138.67452526 285.15375233 C137.97838116 285.84878361 137.28223705 286.54381489 136.56499767 287.25990772 C133.37068701 290.42396625 130.14779099 293.49872354 126.73336315 296.42474842 C121.24720866 301.16564316 116.17945192 306.33672622 111.06124401 311.46625233 C109.97662709 312.55019427 108.89186188 313.63398785 107.80695629 314.71764088 C105.55049339 316.97263968 103.29582376 319.22941177 101.04244518 321.48749256 C98.15180044 324.38387515 95.25663321 327.27568928 92.36014175 330.16622353 C90.12706039 332.39569938 87.89635615 334.62754135 85.66637516 336.86011791 C84.59896224 337.92819801 83.53080572 338.99553551 82.46189594 340.06211758 C80.97573713 341.54574562 79.49280622 343.03252555 78.0107069 344.52020741 C76.74451267 345.78759502 76.74451267 345.78759502 75.45273876 347.08058643 C72.42235934 350.31069513 72.19286616 352.66734451 72.23311901 357.09515858 C72.68863743 360.26556675 74.27924433 361.95346128 76.52608776 364.13422108 C80.11475345 365.92855392 83.62531431 365.82712695 87.52608776 365.13422108 C89.54489411 363.85447142 89.54489411 363.85447142 91.34371471 362.08293629 C92.03397747 361.44455263 92.72424023 360.80616898 93.43542004 360.14844036 C94.12534039 359.483748 94.81526073 358.81905563 95.52608776 358.13422108 C96.1587254 357.52638342 96.79136303 356.91854576 97.4431715 356.29228878 C99.41927996 354.36328241 101.37157506 352.41267 103.31905651 350.45477772 C104.05174252 349.72223774 104.78442852 348.98969776 105.53931713 348.2349596 C107.93312194 345.84046445 110.32337646 343.4424591 112.71358776 341.04437733 C114.38345326 339.37264453 116.05354133 337.70113403 117.72384167 336.0298357 C122.09896708 331.65090972 126.47107983 327.26898791 130.84255505 322.88641834 C135.31206016 318.40664599 139.78443139 313.92973701 144.25655651 309.45258045 C153.01586169 300.68258139 161.77198429 291.90941221 170.52608776 283.13422108 C170.52847611 283.7162158 170.53086447 284.29821053 170.5333252 284.89784145 C170.59250514 299.07021503 170.6680743 313.24242235 170.76180267 327.41461086 C170.80673569 334.26823481 170.84615601 341.12180708 170.87252331 347.97552967 C170.89798268 354.58920515 170.93890424 361.20266837 170.98927402 367.81620884 C171.00596447 370.3399453 171.01746515 372.86372158 171.02370167 375.38750553 C171.03331872 378.92132428 171.06135085 382.45455153 171.09371471 385.98822498 C171.09227962 387.03263752 171.09084454 388.07705006 171.08936596 389.15311146 C171.17157191 395.49624136 171.80499042 400.11077959 176.21358776 405.00922108 C179.63133344 406.67190817 182.84749565 406.79241847 186.52608776 406.13422108 C190.61551248 403.73390657 192.05860334 401.55287334 193.52608776 397.13422108 C193.831002 394.72047091 193.831002 394.72047091 193.80456066 392.20506763 C193.81572414 391.23898075 193.82688763 390.27289387 193.8383894 389.27753162 C193.84054958 388.22952381 193.84270977 387.181516 193.84493542 386.10175037 C193.85498104 384.9891132 193.86502666 383.87647602 193.8753767 382.73012257 C193.90624214 379.05623352 193.92325346 375.38241747 193.94015026 371.70843983 C193.95885917 369.15967142 193.97843237 366.61090922 193.99883556 364.06215382 C194.04494409 358.04163028 194.08234182 352.02111371 194.11550844 346.00051004 C194.15376488 339.14436008 194.20316577 332.2883045 194.25349259 325.43223417 C194.3567388 311.33296652 194.44602289 297.23363805 194.52608776 283.13422108 C198.81608144 287.39931969 203.10264513 291.66782676 207.38619518 295.93939686 C208.84100793 297.38921025 210.29672059 298.83812124 211.75338268 300.28607655 C213.85843327 302.3788675 215.96012395 304.47498482 218.06124401 306.57172108 C218.70320217 307.20851795 219.34516033 307.84531483 220.00657177 308.50140858 C223.81787159 312.31224417 227.42047289 316.24550196 230.9434824 320.32381344 C232.92913207 322.5952801 235.01258362 324.74777051 237.14449596 326.88202381 C238.39532719 328.13758327 238.39532719 328.13758327 239.67142773 329.41850758 C240.54772335 330.29277897 241.42401897 331.16705036 242.32686901 332.06781483 C243.24445492 332.98635746 244.16204082 333.90490009 245.10743237 334.85127735 C247.03288384 336.77819057 248.96010083 338.70331483 250.88863659 340.627141 C253.36128491 343.09404446 255.82935095 345.56547644 258.29615021 348.03822708 C260.6581349 350.40468229 263.02390865 352.76733375 265.38936901 355.13031483 C266.27578579 356.01875584 267.16220257 356.90719685 268.07548046 357.82256031 C268.89360714 358.63753483 269.71173382 359.45250935 270.55465221 360.29218006 C271.27522305 361.0119553 271.99579388 361.73173054 272.73820019 362.47331715 C276.05928539 365.55852426 278.89729782 365.47793153 283.26827526 365.40765858 C286.75811272 364.9850139 288.27800137 363.79105045 290.52608776 361.13422108 C292.16761893 357.44077594 292.94694074 355.34483699 291.6007185 351.47232533 C288.63347142 346.69799132 284.8194676 343.03583253 280.83199596 339.09955311 C279.94398296 338.21110203 279.05596996 337.32265095 278.14104748 336.40727711 C275.71483197 333.98278885 273.28217024 331.56513367 270.84635854 329.15031004 C268.29852492 326.62127814 265.75923023 324.08370172 263.21900463 321.54703236 C258.41206954 316.74940747 253.59754104 311.95947888 248.78021449 307.17229068 C243.29426783 301.71991994 237.81687556 296.2589898 232.34017336 290.79733586 C221.07828064 279.56676894 209.80573183 268.34696067 198.52608776 257.13422108 C199.94728145 253.896522 201.66048744 251.76122106 204.16988659 249.28355885 C204.92701946 248.53090244 205.68415234 247.77824604 206.46422863 247.00278187 C207.29546246 246.18659382 208.12669628 245.37040577 208.98311901 244.52948475 C209.85801983 243.66232334 210.73292065 242.79516193 211.63433361 241.90172291 C213.53551232 240.01820607 215.43836331 238.13656222 217.34405041 236.25762463 C220.35916138 233.2839326 223.36498262 230.30096926 226.36910534 227.31618214 C234.91215365 218.83066797 243.46509503 210.35521383 252.0329237 201.89471912 C256.76664328 197.22014278 261.49130643 192.53660524 266.20628548 187.84312516 C269.18800942 184.87601325 272.18045437 181.92030509 275.18134594 178.97258699 C277.48735346 176.7009235 279.77691347 174.41278029 282.06905651 172.127141 C282.90029034 171.31702564 283.73152416 170.50691029 284.58794689 169.67224598 C288.87564476 165.36199208 291.74258866 162.2695543 292.52608776 156.13422108 C291.08090746 151.95925577 289.40664779 149.30276933 285.52608776 147.13422108 C282.39033334 145.97894313 281.00581497 145.95189505 277.86358166 147.14613819 C273.41762884 149.79450939 270.11903206 153.14698809 266.50118542 156.81854725 C265.72002361 157.59927097 264.93886181 158.3799947 264.13402843 159.18437672 C261.56222452 161.75826516 259.00120098 164.34260533 256.44015026 166.92718983 C254.65576151 168.71717569 252.87070783 170.50649893 251.0850172 172.29518604 C246.87222825 176.51824628 242.66618754 180.74791441 238.46336591 184.9808858 C233.67604549 189.8017972 228.88015212 194.6141414 224.08353639 199.42580163 C214.22151674 209.31913619 204.37025704 219.22312699 194.52608776 229.13422108 C194.52369941 228.55222635 194.52131105 227.97023163 194.51885033 227.3706007 C194.45967038 213.19822712 194.38410123 199.0260198 194.29037285 184.85383129 C194.24543983 178.00020735 194.20601951 171.14663507 194.17965221 164.29291248 C194.15419284 157.679237 194.11327129 151.06577379 194.0629015 144.45223331 C194.04621105 141.92849685 194.03471038 139.40472057 194.02847385 136.88093662 C194.0188568 133.34711787 193.99082467 129.81389062 193.95846081 126.28021717 C193.9598959 125.23580463 193.96133099 124.1913921 193.96280956 123.1153307 C193.88060361 116.77220079 193.2471851 112.15766256 188.83858776 107.25922108 C182.94039658 104.38983077 177.8565745 105.42163257 173.52608776 110.13422108 Z " fill="#000000" transform="translate(73.4739122390747,-0.13422107696533203)"/>
</svg>
