<svg width="100" height="100" viewBox="0 0 100 100" fill="none" xmlns="http://www.w3.org/2000/svg">
  <rect width="100" height="100" rx="20" fill="url(#paint0_linear)" />
  <path d="M30 25H70V75H30V25Z" fill="url(#paint1_radial)" />
  <path d="M30 25H50V45H30V25Z" fill="#8B5CF6" />
  <path d="M50 25H70V45H50V25Z" fill="#EC4899" />
  <path d="M30 45H50V65H30V45Z" fill="#10B981" />
  <path d="M50 45H70V65H50V45Z" fill="#F59E0B" />
  <path d="M30 65H50V75H30V65Z" fill="#0EA5E9" />
  <path d="M50 65H70V75H50V65Z" fill="#EC4899" />
  <path d="M65.9834 19.9999C64.1187 19.3522 61.9377 19.6212 60.3005 20.7186C58.6634 21.8161 57.7012 23.6884 57.7012 25.6844V45.3156C57.7012 47.3116 58.6634 49.1839 60.3005 50.2814C61.9377 51.3788 64.1187 51.6478 65.9834 51.0001C69.4129 49.7046 71.7012 46.2786 71.7012 42.3844V28.6156C71.7012 24.7214 69.4129 21.2954 65.9834 19.9999Z" fill="#EC4899" />
  <defs>
    <linearGradient id="paint0_linear" x1="0" y1="0" x2="100" y2="100" gradientUnits="userSpaceOnUse">
      <stop stop-color="#0F172A" />
      <stop offset="1" stop-color="#1E293B" />
    </linearGradient>
    <radialGradient id="paint1_radial" cx="0" cy="0" r="1" gradientUnits="userSpaceOnUse" gradientTransform="translate(50 50) rotate(90) scale(25 20)">
      <stop stop-color="#8B5CF6" stop-opacity="0.3" />
      <stop offset="1" stop-color="#EC4899" stop-opacity="0.1" />
    </radialGradient>
  </defs>
</svg>