<?xml version="1.0" encoding="UTF-8"?>
<svg version="1.1" xmlns="http://www.w3.org/2000/svg" width="512" height="512">
<path d="M0 0 C0.5986084 0.31936523 1.1972168 0.63873047 1.81396484 0.96777344 C37.08997594 19.9085589 65.12875475 49.5554347 85 84 C85.53850586 84.90637207 85.53850586 84.90637207 86.08789062 85.83105469 C113.31482042 131.77324502 118.3363235 189.60374561 105.42578125 240.78515625 C90.47138308 296.75792446 53.51753353 343.35688728 3.625 372.25 C-37.10543257 395.30461188 -84.78515856 403.39209425 -131 397 C-131.80131348 396.89236328 -132.60262695 396.78472656 -133.42822266 396.67382812 C-169.14249929 391.60350371 -204.24600265 375.94764103 -232 353 C-233.06236452 352.14175936 -234.12486714 351.28368963 -235.1875 350.42578125 C-252.59624222 336.19750751 -266.71314625 319.78391832 -279 301 C-279.49435547 300.25105469 -279.98871094 299.50210937 -280.49804688 298.73046875 C-309.56593142 254.21208702 -318.78749971 196.86605696 -308.39794922 144.99414062 C-300.27484027 107.09846832 -283.34396525 72.74437739 -257.01953125 44.20703125 C-255.26095093 42.28517848 -253.59180225 40.32352511 -251.9375 38.3125 C-248.63918788 34.44953119 -244.87286063 31.27112691 -241 28 C-240.08605469 27.18660156 -239.17210937 26.37320313 -238.23046875 25.53515625 C-226.7820197 15.42478967 -214.1561397 7.0471989 -200.75 -0.25 C-200.05938477 -0.6330127 -199.36876953 -1.01602539 -198.65722656 -1.41064453 C-194.61881958 -3.53115582 -191.56160897 -4.57606222 -187 -4 C-184.05572265 -1.93104835 -183.15667045 -0.49090073 -182.0625 2.9375 C-181.98475728 6.74689337 -182.70755837 7.97751104 -185 11 C-187.25418449 12.39586039 -189.37328516 13.55535584 -191.75 14.6875 C-207.84253922 22.8173085 -221.87255234 33.69301782 -235 46 C-235.49371094 46.45971191 -235.98742187 46.91942383 -236.49609375 47.39306641 C-245.85817111 56.18022817 -256.20497227 66.40994454 -262 78 C-232.96 78.33 -203.92 78.66 -174 79 C-173.34 77.35 -172.68 75.7 -172 74 C-170.93090786 72.10273548 -169.82138304 70.22797452 -168.68359375 68.37109375 C-168.01054199 67.26805908 -167.33749023 66.16502441 -166.64404297 65.02856445 C-165.90854729 63.83153151 -165.17303244 62.63451035 -164.4375 61.4375 C-163.67292961 60.18669273 -162.9087766 58.93563023 -162.14501953 57.68432617 C-160.55683491 55.08312826 -158.96685972 52.48303848 -157.37548828 49.88378906 C-154.04755364 44.44589882 -150.73693339 38.99751 -147.4284668 33.54776001 C-146.72713286 32.39252974 -146.02563591 31.23739841 -145.32397461 30.08236694 C-137.8332241 17.75118764 -130.4075602 5.38132444 -123 -7 C-123.61931396 -6.88406494 -124.23862793 -6.76812988 -124.87670898 -6.64868164 C-127.72969004 -6.11658964 -130.58357752 -5.58951827 -133.4375 -5.0625 C-134.41138672 -4.88009766 -135.38527344 -4.69769531 -136.38867188 -4.50976562 C-152.96453287 -1.4606942 -152.96453287 -1.4606942 -157 -3.5625 C-159.43478807 -6.52989796 -160 -8.16733326 -160 -12 C-159.0625 -14.6875 -159.0625 -14.6875 -157 -17 C-150.71166438 -19.77806608 -144.44668134 -21.01402345 -137.6875 -22.125 C-136.71876953 -22.29386719 -135.75003906 -22.46273437 -134.75195312 -22.63671875 C-88.54569968 -30.46619732 -41.10719655 -22.22306498 0 0 Z M-102 -9 C-103.71136367 -6.79016985 -103.71136367 -6.79016985 -105.5625 -3.75 C-105.94470703 -3.14430176 -106.32691406 -2.53860352 -106.72070312 -1.91455078 C-113.56765157 9.0098232 -120.18736728 20.07840177 -126.85772705 31.11120605 C-129.85169569 36.06185279 -132.84990641 41.00992787 -135.85012817 45.95678711 C-136.57198088 47.147213 -137.29356122 48.33780409 -138.01486206 49.52856445 C-142.69785817 57.25840525 -147.41478272 64.96393691 -152.31030273 72.56152344 C-154.36143323 75.54292446 -154.36143323 75.54292446 -155 79 C-119.36 79 -83.72 79 -47 79 C-51.77233796 70.20943853 -51.77233796 70.20943853 -56.8125 61.609375 C-57.48804932 60.49997559 -58.16359863 59.39057617 -58.85961914 58.24755859 C-59.57302532 57.08167262 -60.28648695 55.91582057 -61 54.75 C-61.75471372 53.51267757 -62.50918548 52.27520753 -63.26342773 51.03759766 C-64.78620576 48.53961195 -66.31028941 46.04243059 -67.83544922 43.54589844 C-70.35755239 39.41629023 -72.86879258 35.28011058 -75.37988281 31.14379883 C-77.6316106 27.43851084 -79.89158994 23.73827845 -82.15087891 20.03759766 C-83.85160653 17.24376969 -85.54464238 14.44547022 -87.2353363 11.64556885 C-88.70858851 9.20893987 -90.18791818 6.77603647 -91.66842651 4.34381104 C-92.38595583 3.16206711 -93.10093023 1.97876788 -93.81326294 0.79388428 C-94.8011131 -0.84848253 -95.79875758 -2.48494636 -96.796875 -4.12109375 C-97.36760742 -5.0639624 -97.93833984 -6.00683105 -98.52636719 -6.97827148 C-99.01266602 -7.64544189 -99.49896484 -8.3126123 -100 -9 C-100.66 -9 -101.32 -9 -102 -9 Z M-80 -8 C-78.66728148 -4.44224859 -77.08585549 -1.2764827 -75.12109375 1.97265625 C-74.53835693 2.94025879 -73.95562012 3.90786133 -73.35522461 4.90478516 C-72.72237549 5.94683105 -72.08952637 6.98887695 -71.4375 8.0625 C-70.77564697 9.15868652 -70.11379395 10.25487305 -69.43188477 11.38427734 C-67.6553066 14.32592662 -65.87384371 17.26458539 -64.09082031 20.20233154 C-63.01157509 21.98092429 -61.93334678 23.7601292 -60.85546875 25.53955078 C-56.94941975 31.98736517 -53.03703428 38.43129445 -49.11871338 44.87165833 C-46.72699609 48.80313517 -44.33924231 52.73699729 -41.953125 56.671875 C-40.697955 58.7396066 -39.44274853 60.80731607 -38.1875 62.875 C-37.33466431 64.28289795 -37.33466431 64.28289795 -36.46459961 65.71923828 C-35.93358643 66.59306152 -35.40257324 67.46688477 -34.85546875 68.3671875 C-34.16940552 69.49809814 -34.16940552 69.49809814 -33.46948242 70.65185547 C-32.98455322 71.42674316 -32.49962402 72.20163086 -32 73 C-31.49134903 74.02438171 -30.98269806 75.04876343 -30.45863342 76.10418701 C-27.79805354 79.28289993 -27.79805354 79.28289993 -24.06427002 79.7215271 C-22.44034473 79.73889528 -20.81586129 79.72301679 -19.19238281 79.68115234 C-18.30422379 79.6820285 -17.41606476 79.68290466 -16.50099182 79.68380737 C-13.56747248 79.67962958 -10.63624441 79.63296918 -7.703125 79.5859375 C-5.66861215 79.57474603 -3.63408313 79.56620561 -1.59954834 79.56021118 C3.75368952 79.53730914 9.10594958 79.47837339 14.45880127 79.4119873 C19.92161837 79.35059482 25.38459357 79.32320261 30.84765625 79.29296875 C41.56553363 79.22863203 52.28268549 79.12623535 63 79 C61.88573582 77.22732942 60.76865948 75.4564263 59.65039062 73.6862793 C59.02861938 72.69991989 58.40684814 71.71356049 57.76623535 70.6973114 C55.88530965 67.82485031 53.8625033 65.30282531 51.5 62.8125 C50.73558594 61.99394531 49.97117187 61.17539063 49.18359375 60.33203125 C48.46300781 59.56246094 47.74242187 58.79289062 47 58 C45.84860458 56.67146683 44.70241615 55.33839567 43.5625 54 C31.20642182 39.92309815 16.81322382 28.90364276 1 19 C0.40058594 18.62133789 -0.19882812 18.24267578 -0.81640625 17.85253906 C-24.48987745 3.1141415 -52.26954382 -5.63475521 -80 -8 Z M-273 95 C-274.37197733 97.96990528 -274.37197733 97.96990528 -272.8034668 100.56518555 C-272.19156494 101.5787915 -271.57966309 102.59239746 -270.94921875 103.63671875 C-270.27576416 104.76263428 -269.60230957 105.8885498 -268.90844727 107.04858398 C-268.16844172 108.26174527 -267.42811894 109.47471309 -266.6875 110.6875 C-265.93666599 111.93322181 -265.18658759 113.17939935 -264.43725586 114.42602539 C-260.34528829 121.21696093 -256.20152753 127.97648533 -251.9621582 134.67651367 C-247.50776763 141.72782605 -243.19856923 148.86808387 -238.875 156 C-238.48466583 156.64379608 -238.09433167 157.28759216 -237.69216919 157.95089722 C-235.46003574 161.63307826 -233.2294034 165.31616519 -231 169 C-227.27999453 167.75999818 -226.96398717 166.74095088 -225.0234375 163.41796875 C-224.44368164 162.43707275 -223.86392578 161.45617676 -223.26660156 160.44555664 C-222.64237305 159.37039795 -222.01814453 158.29523926 -221.375 157.1875 C-220.37206822 155.48737523 -219.36910448 153.7872687 -218.36462402 152.08805847 C-217.66116729 150.89729041 -216.95879588 149.7058806 -216.25744629 148.51387024 C-212.67277046 142.42401561 -209.01032965 136.38241703 -205.33572388 130.3465271 C-204.2542584 128.56949727 -203.17462195 126.79136834 -202.09545898 125.01293945 C-198.90891593 119.76407068 -195.71143248 114.52245648 -192.48046875 109.30078125 C-191.69978027 108.03609009 -191.69978027 108.03609009 -190.90332031 106.74584961 C-189.95478553 105.21166886 -189.00255028 103.67976722 -188.04589844 102.15063477 C-185.77777438 98.8243429 -185.77777438 98.8243429 -185 95 C-214.04 95 -243.08 95 -273 95 Z M-172 105 C-173.0055512 106.66389915 -174.01642968 108.32460349 -175.03515625 109.98046875 C-176.04787559 111.71404503 -177.05685546 113.44981009 -178.0625 115.1875 C-179.20315188 117.13746525 -180.34512102 119.08666045 -181.48828125 121.03515625 C-182.06916504 122.02531738 -182.65004883 123.01547852 -183.24853516 124.03564453 C-187.76199695 131.67468177 -192.42200655 139.22610757 -197.04785156 146.79736328 C-199.21289466 150.34926865 -201.36912716 153.90642305 -203.5234375 157.46484375 C-204.2958899 158.74007678 -205.06835081 160.01530467 -205.84082031 161.29052734 C-206.97249957 163.1588612 -208.10379577 165.0274207 -209.23376465 166.89678955 C-210.28224356 168.63114004 -211.3324992 170.36441604 -212.3828125 172.09765625 C-213.28604248 173.59051147 -213.28604248 173.59051147 -214.20751953 175.11352539 C-216 178 -216 178 -218.28857422 181.05639648 C-220.2419727 183.81058433 -220.2419727 183.81058433 -219.89648438 186.61889648 C-219.00357732 188.99049847 -218.01912741 190.96294001 -216.65625 193.09765625 C-215.9132666 194.27726929 -215.9132666 194.27726929 -215.15527344 195.48071289 C-214.6090332 196.33270264 -214.06279297 197.18469238 -213.5 198.0625 C-212.30597487 199.95750427 -211.11333729 201.85338333 -209.921875 203.75 C-209.28443359 204.76191406 -208.64699219 205.77382813 -207.99023438 206.81640625 C-204.88440136 211.7845199 -201.84717019 216.79399263 -198.81317139 221.80615234 C-197.74434863 223.57183601 -196.67433537 225.33679304 -195.60400391 227.1015625 C-192.63272036 232.00136558 -189.66424942 236.90287094 -186.69628906 241.8046875 C-184.78907842 244.95450601 -182.88073035 248.10363328 -180.97180176 251.25241089 C-179.91220106 253.00110583 -178.8540137 254.75065012 -177.79589844 256.50024414 C-171.66996013 267.83789827 -171.66996013 267.83789827 -164 278 C-162.38189568 278.11560954 -160.75879106 278.1618409 -159.13667297 278.18081665 C-158.08378586 278.19519775 -157.03089874 278.20957886 -155.94610596 278.22439575 C-154.78093445 278.23493988 -153.61576294 278.24548401 -152.4152832 278.25634766 C-151.19582504 278.27095032 -149.97636688 278.28555298 -148.71995544 278.30059814 C-137.46163506 278.42663368 -126.20255111 278.4967627 -114.94366169 278.54844093 C-106.61972544 278.58734186 -98.29714345 278.65566251 -89.97380191 278.76298869 C-84.12322751 278.83588436 -78.27302302 278.87428239 -72.42201298 278.88746679 C-68.92678555 278.89632875 -65.43323065 278.92054314 -61.93850136 278.98213577 C-58.03583446 279.05013309 -54.13497492 279.04687911 -50.23168945 279.03759766 C-49.0766391 279.06838409 -47.92158875 279.09917053 -46.73153687 279.13088989 C-40.78464469 279.14253879 -40.78464469 279.14253879 -35.98316479 276.03736973 C-34.43852949 273.75000124 -33.19299802 271.48538678 -32 269 C-31.34926514 267.96125732 -30.69853027 266.92251465 -30.02807617 265.85229492 C-29.45549072 264.90459229 -28.88290527 263.95688965 -28.29296875 262.98046875 C-27.30272705 261.34525269 -27.30272705 261.34525269 -26.29248047 259.67700195 C-25.59078982 258.51385303 -24.88913052 257.3506852 -24.1875 256.1875 C-23.44177512 254.95454654 -22.69583967 253.72172042 -21.94970703 252.48901367 C-20.40271985 249.93291504 -18.85663202 247.37627545 -17.31103516 244.81933594 C-15.09177563 241.14963553 -12.86548462 237.48424527 -10.63671875 233.8203125 C-6.41773561 226.88428765 -2.20612821 219.94382756 2 213 C2.35912476 212.4073938 2.71824951 211.8147876 3.08825684 211.20422363 C5.56388699 207.11834699 8.03328923 203.02876782 10.5 198.9375 C11.14146973 197.87829346 11.78293945 196.81908691 12.44384766 195.7277832 C13.02956543 194.75413818 13.6152832 193.78049316 14.21875 192.77734375 C14.73373047 191.92390381 15.24871094 191.07046387 15.77929688 190.19116211 C17.12430431 187.93617028 17.12430431 187.93617028 18 185 C16.81253534 182.3945811 16.81253534 182.3945811 14.9765625 179.56640625 C14.29400391 178.45716797 13.61144531 177.34792969 12.90820312 176.20507812 C12.14721579 174.99083504 11.38614576 173.77664378 10.625 172.5625 C9.84461937 171.30079989 9.06533882 170.03841875 8.28710938 168.77539062 C6.6673532 166.14853409 5.04287147 163.52469084 3.41503906 160.90283203 C0.0850359 155.53155387 -3.18714532 150.12547676 -6.459198 144.71878052 C-8.20284205 141.83932657 -9.95142386 138.96287305 -11.69921875 136.0859375 C-14.30943434 131.78784519 -16.91647112 127.48784249 -19.5206604 123.18609619 C-21.07609128 120.6169845 -22.63249115 118.04846049 -24.18896484 115.47998047 C-24.92854406 114.25891943 -25.66765176 113.03757264 -26.40625 111.81591797 C-27.43238721 110.11873607 -28.46030179 108.42262919 -29.48828125 106.7265625 C-30.07134033 105.76314941 -30.65439941 104.79973633 -31.25512695 103.80712891 C-31.83093506 102.88077637 -32.40674316 101.95442383 -33 101 C-33.44656952 99.96942474 -33.89313904 98.93884949 -34.35324097 97.87704468 C-37.38979268 94.57629276 -38.01288532 94.53194326 -42.29328918 94.21118164 C-44.55942152 94.16321396 -46.826406 94.14881618 -49.09301758 94.16015625 C-50.33081467 94.14321716 -51.56861176 94.12627808 -52.84391785 94.10882568 C-56.23731337 94.07003082 -59.62850981 94.05853165 -63.02197862 94.06232071 C-65.8573666 94.06256021 -68.69254912 94.04542786 -71.52787989 94.02876568 C-78.2203049 93.9902951 -84.91223105 93.98452902 -91.60473633 93.99804688 C-98.50037533 94.01131942 -105.39387213 93.96564322 -112.28907663 93.89141941 C-118.21545739 93.82994843 -124.14115058 93.80731341 -130.06784362 93.81509304 C-133.60490942 93.81922211 -137.14030963 93.80837662 -140.67707253 93.75930786 C-144.62516125 93.70634297 -148.57046577 93.73428042 -152.51879883 93.76953125 C-153.68424225 93.74300476 -154.84968567 93.71647827 -156.05044556 93.68914795 C-165.10643216 93.87697494 -167.89696265 97.22850791 -172 105 Z M-18 95 C-13.97495589 102.37924753 -9.89612204 109.60260628 -5.5 116.75 C-4.26424569 118.769484 -3.02857092 120.78901667 -1.79296875 122.80859375 C-1.16567871 123.83194824 -0.53838867 124.85530273 0.10791016 125.90966797 C3.14532932 130.87065529 6.16552705 135.84209473 9.1875 140.8125 C15.11251712 150.54930583 21.05216875 160.27711667 27 170 C31.09471888 165.26610549 34.16443921 159.9722182 37.375 154.625 C38.63144539 152.54683569 39.88795768 150.46871181 41.14453125 148.390625 C42.10480225 146.79831055 42.10480225 146.79831055 43.08447266 145.17382812 C45.49046762 141.18734655 47.90648457 137.20703807 50.32641602 133.22900391 C51.48084049 131.33120865 52.63368154 129.43244926 53.78491211 127.53271484 C56.7461354 122.65594892 59.74418236 117.8073614 62.8046875 112.9921875 C63.4143335 112.02748535 64.02397949 111.0627832 64.65209961 110.06884766 C65.81866902 108.22703028 66.99362856 106.39049314 68.17797852 104.56005859 C68.69545654 103.74102051 69.21293457 102.92198242 69.74609375 102.078125 C70.20685303 101.36043945 70.6676123 100.64275391 71.14233398 99.90332031 C72.32655519 97.84956999 72.32655519 97.84956999 71 95 C41.63 95 12.26 95 -18 95 Z M80 114 C78.69003052 115.75800171 78.69003052 115.75800171 77.41796875 118.07421875 C76.90484131 118.95867676 76.39171387 119.84313477 75.86303711 120.75439453 C75.31010986 121.72231934 74.75718262 122.69024414 74.1875 123.6875 C73.00710875 125.72115633 71.8247678 127.75368206 70.640625 129.78515625 C70.03541016 130.82430176 69.43019531 131.86344727 68.80664062 132.93408203 C66.09028818 137.54380555 63.27085536 142.08656343 60.4375 146.625 C56.07207961 153.63544877 51.75281528 160.67059018 47.5 167.75 C47.01974365 168.54744629 46.5394873 169.34489258 46.04467773 170.16650391 C45.13337682 171.68784923 44.2321997 173.21531417 43.34228516 174.74926758 C42.41611323 176.30226485 41.43778221 177.82491609 40.41943359 179.3190918 C38.98543634 181.53494891 37.82985029 183.49376004 37 186 C37.97512716 189.19855539 38.73827302 190.7007016 40.625 193.3125 C41.59652195 194.80112509 42.56645668 196.29078675 43.53515625 197.78125 C44.36297607 199.01488281 44.36297607 199.01488281 45.20751953 200.2734375 C48.2760485 204.94101193 51.11710255 209.74785656 53.99264526 214.53561401 C55.79659732 217.53173771 57.61758956 220.51745899 59.4375 223.50390625 C63.76983537 230.61903919 68.09352683 237.73940275 72.41574097 244.86068726 C74.23649938 247.86042999 76.05772161 250.85989102 77.87890625 253.859375 C78.91927083 255.57291667 79.95963542 257.28645833 81 259 C83.11030943 256.38378696 84.48555924 254.15048407 85.46484375 250.9375 C85.70557617 250.15133301 85.94630859 249.36516602 86.19433594 248.55517578 C86.43958008 247.71196777 86.68482422 246.86875977 86.9375 246 C87.19692383 245.11425293 87.45634766 244.22850586 87.72363281 243.31591797 C93.44291637 223.27716424 97.15040947 201.90318492 96 181 C95.95891113 180.22172852 95.91782227 179.44345703 95.87548828 178.64160156 C94.58247647 156.09444998 89.64312089 135.20659594 82 114 C81.34 114 80.68 114 80 114 Z M-283 116 C-287.85500441 129.50067835 -291.76421074 142.81570984 -294 157 C-294.11714355 157.74282227 -294.23428711 158.48564453 -294.35498047 159.25097656 C-299.28751636 192.1882965 -295.08742638 226.05452696 -283 257 C-280.12416618 253.54749953 -277.72555803 250.04648184 -275.4609375 246.16796875 C-274.80327393 245.04793457 -274.14561035 243.92790039 -273.46801758 242.77392578 C-273.1263858 242.18838928 -272.78475403 241.60285278 -272.43276978 240.99957275 C-270.64276419 237.93310174 -268.83894294 234.87478493 -267.03515625 231.81640625 C-266.68150497 231.2163678 -266.3278537 230.61632935 -265.96348572 229.99810791 C-263.30792766 225.50065563 -260.59627792 221.04400411 -257.8125 216.625 C-257.43939697 216.02856689 -257.06629395 215.43213379 -256.68188477 214.81762695 C-254.31479358 211.04625251 -251.89913479 207.30902421 -249.46875 203.578125 C-248.24976165 201.67723616 -247.03100987 199.77619559 -245.8125 197.875 C-245.22251221 196.98506348 -244.63252441 196.09512695 -244.0246582 195.17822266 C-240.94054083 190.40534291 -240.94054083 190.40534291 -239.79296875 184.953125 C-241.5684278 180.60928344 -243.95375492 176.80696181 -246.5 172.875 C-247.6851147 171.00486922 -248.86862297 169.13371976 -250.05078125 167.26171875 C-250.68709473 166.25802246 -251.3234082 165.25432617 -251.97900391 164.22021484 C-255.24307087 159.01931568 -258.4135899 153.76242697 -261.58810425 148.50656128 C-266.67455401 140.09051656 -271.76934562 131.67863915 -276.9375 123.3125 C-277.52954224 122.34219849 -277.52954224 122.34219849 -278.13354492 121.35229492 C-280.03344387 118.13207244 -280.03344387 118.13207244 -283 116 Z M27 201 C26.14220231 202.3084166 25.33654264 203.651002 24.55078125 205.00390625 C24.03974854 205.87781006 23.52871582 206.75171387 23.00219727 207.65209961 C22.44459717 208.61253174 21.88699707 209.57296387 21.3125 210.5625 C16.62811188 218.56193351 11.89295536 226.52535888 7.0625 234.4375 C6.48870605 235.37811279 5.91491211 236.31872559 5.32373047 237.2878418 C2.91827634 241.22827173 0.50970172 245.16678838 -1.89941406 249.10498047 C-3.7885297 252.19412152 -5.67553913 255.28454243 -7.5625 258.375 C-8.13411865 259.30755615 -8.7057373 260.2401123 -9.29467773 261.20092773 C-9.83809814 262.09110596 -10.38151855 262.98128418 -10.94140625 263.8984375 C-11.41263916 264.66849121 -11.88387207 265.43854492 -12.36938477 266.23193359 C-14.65467909 270.11135672 -16.81339337 274.06410806 -19 278 C11.03 278 41.06 278 72 278 C72.33 277.34 72.66 276.68 73 276 C71.88972503 273.59605762 71.88972503 273.59605762 70.1953125 270.8828125 C69.55754883 269.81490479 68.91978516 268.74699707 68.26269531 267.64672852 C67.55032324 266.47270186 66.83775262 265.29879566 66.125 264.125 C65.39616754 262.91176261 64.66798733 261.69813317 63.94042969 260.48413086 C61.63820086 256.64924586 59.31970234 252.82433135 57 249 C56.25411044 247.76813986 55.50834024 246.53620744 54.76269531 245.30419922 C51.88527608 240.55146532 49.0054298 235.80023845 46.11376953 231.05615234 C42.81810493 225.64882575 39.53472625 220.23518414 36.296875 214.79296875 C35.45527832 213.37939087 35.45527832 213.37939087 34.59667969 211.93725586 C33.55771063 210.18864233 32.5217407 208.43824217 31.48925781 206.68579102 C31.03905273 205.92838623 30.58884766 205.17098145 30.125 204.390625 C29.54105469 203.4011084 29.54105469 203.4011084 28.9453125 202.39160156 C28.63335937 201.93237305 28.32140625 201.47314453 28 201 C27.67 201 27.34 201 27 201 Z M-230 202 C-234.85903673 208.04779189 -238.71727176 214.79912203 -242.60327148 221.48974609 C-246.45560429 228.11096526 -250.40439595 234.67160379 -254.3807373 241.21878052 C-255.49540067 243.0549237 -256.60762869 244.89252674 -257.71972656 246.73022461 C-260.86730093 251.92173251 -264.03101018 257.09604609 -267.3515625 262.1796875 C-267.82916016 262.91566162 -268.30675781 263.65163574 -268.79882812 264.40991211 C-269.6515778 265.71368347 -270.5165605 267.00957831 -271.39648438 268.29516602 C-274.03880202 272.33932837 -274.02379954 272.8810023 -273 278 C-243.63 278 -214.26 278 -184 278 C-185.40766633 274.48083418 -186.68673361 271.63613188 -188.58203125 268.4375 C-189.09475586 267.5697998 -189.60748047 266.70209961 -190.13574219 265.80810547 C-190.9657373 264.41809326 -190.9657373 264.41809326 -191.8125 263 C-192.39290039 262.02305176 -192.97330078 261.04610352 -193.57128906 260.03955078 C-197.90782017 252.76631426 -202.33327127 245.551141 -206.81469727 238.36645508 C-210.10396293 233.0869041 -213.34997703 227.78348735 -216.5625 222.45703125 C-216.9513739 221.8129834 -217.3402478 221.16893555 -217.74090576 220.50537109 C-219.29753113 217.92674835 -220.85391118 215.34801848 -222.4029541 212.76483154 C-223.47910402 210.97025613 -224.55949261 209.17829542 -225.640625 207.38671875 C-226.57696777 205.82763794 -226.57696777 205.82763794 -227.53222656 204.23706055 C-228.0165918 203.49883057 -228.50095703 202.76060059 -229 202 C-229.33 202 -229.66 202 -230 202 Z M-263 294 C-261.33348458 298.4574211 -259.0256981 301.87402926 -256.0625 305.5625 C-255.57740967 306.1723877 -255.09231934 306.78227539 -254.5925293 307.41064453 C-249.66702029 313.53279098 -244.41962675 319.31478664 -239 325 C-238.31292969 325.72832031 -237.62585938 326.45664062 -236.91796875 327.20703125 C-223.43802628 341.12623865 -207.11035634 352.07907622 -190 361 C-189.34725098 361.34272949 -188.69450195 361.68545898 -188.02197266 362.03857422 C-168.02376669 372.38691513 -143.8121851 381.6221505 -121 381 C-124.30146464 374.10051555 -127.97509554 367.58583595 -132.0625 361.125 C-133.22250905 359.27155563 -134.38133608 357.41737103 -135.5390625 355.5625 C-136.11946289 354.63308594 -136.69986328 353.70367187 -137.29785156 352.74609375 C-139.88908054 348.56563714 -142.41678141 344.34823116 -144.9375 340.125 C-149.34340966 332.75140966 -153.78267571 325.39906185 -158.25 318.0625 C-158.80421631 317.15193848 -159.35843262 316.24137695 -159.92944336 315.30322266 C-161.00317743 313.54117306 -162.0954691 311.7902565 -163.20869446 310.05288696 C-165 307 -165 307 -166.36456299 303.65423584 C-168.11129076 299.84400211 -169.66207531 296.62042637 -173 294 C-179.42557704 291.64081826 -186.75278346 292.49194474 -193.46875 292.73046875 C-195.4750776 292.75473768 -197.48148263 292.7732322 -199.48791504 292.78620911 C-204.7507674 292.83567865 -210.00890089 292.96320342 -215.26989746 293.10736084 C-220.64542798 293.24072828 -226.0217269 293.29979998 -231.3984375 293.36523438 C-241.93435708 293.50435573 -252.46678513 293.72600221 -263 294 Z M-154 294 C-150.63041076 300.73917849 -147.25247078 307.05143583 -143.25 313.375 C-142.09385889 315.22190986 -140.93897726 317.06960856 -139.78515625 318.91796875 C-138.86694092 320.3882251 -138.86694092 320.3882251 -137.93017578 321.88818359 C-134.83641996 326.87591591 -131.79798192 331.89704556 -128.75924683 336.918396 C-127.68802937 338.68662618 -126.61412415 340.4531944 -125.53930664 342.21923828 C-122.20883024 347.69366153 -118.88984329 353.17365371 -115.61930847 358.68415833 C-114.16616936 361.12778146 -112.70172813 363.56451051 -111.23526001 366.00015259 C-110.20538262 367.72013451 -109.19079884 369.44924419 -108.17651367 371.1784668 C-107.55494385 372.2075415 -106.93337402 373.23661621 -106.29296875 374.296875 C-105.7518042 375.20791992 -105.21063965 376.11896484 -104.65307617 377.05761719 C-104.10756104 377.69860352 -103.5620459 378.33958984 -103 379 C-101.68 379 -100.36 379 -99 379 C-97.26379252 377.02981272 -97.26379252 377.02981272 -95.8203125 374.33984375 C-95.22847168 373.33018555 -94.63663086 372.32052734 -94.02685547 371.28027344 C-93.39924316 370.1771582 -92.77163086 369.07404297 -92.125 367.9375 C-91.11926864 366.21486269 -90.11351407 364.49223798 -89.10586548 362.77072144 C-88.07109834 360.99969245 -87.0422138 359.22533358 -86.01367188 357.45068359 C-82.4783616 351.39247852 -78.81164958 345.41539765 -75.15112305 339.43237305 C-74.58433838 338.50593994 -74.01755371 337.57950684 -73.43359375 336.625 C-72.8701123 335.70460938 -72.30663086 334.78421875 -71.72607422 333.8359375 C-69.93886559 330.89955624 -68.1734482 327.95079554 -66.41015625 325 C-65.25284264 323.08318933 -64.09529924 321.16651738 -62.9375 319.25 C-62.41333496 318.3621582 -61.88916992 317.47431641 -61.34912109 316.55957031 C-56.56803794 308.69885709 -56.56803794 308.69885709 -52 307 C-48.25 307.6875 -48.25 307.6875 -45 309 C-43.40608195 312.18783609 -43.65502254 314.45166038 -44 318 C-45.39406221 321.20106824 -47.24019168 324.06729451 -49.125 327 C-50.23178907 328.78123867 -51.33855915 330.56248914 -52.4453125 332.34375 C-53.02829102 333.26929688 -53.61126953 334.19484375 -54.21191406 335.1484375 C-57.19219435 339.90126025 -60.0904095 344.70370926 -63 349.5 C-64.16909453 351.41807622 -65.33836513 353.33604514 -66.5078125 355.25390625 C-71.71562705 363.80960159 -76.86045348 372.40317386 -82 381 C-72.02357011 385.98821494 -47.94671364 376.32553 -37.58984375 372.90673828 C-12.20988506 364.0208817 11.42336193 350.4910574 31 332 C32.28810702 330.91243658 33.57969534 329.82898087 34.875 328.75 C43.49325493 321.18739477 50.86259542 312.44521496 57.75 303.3125 C58.27561523 302.61713135 58.80123047 301.9217627 59.34277344 301.20532227 C62.05264376 297.94758183 62.05264376 297.94758183 63 294 C-8.61 294 -80.22 294 -154 294 Z " fill="#000000" transform="translate(358,71)"/>
<path d="M0 0 C0.96988861 0.00182281 1.93977722 0.00364563 2.9390564 0.00552368 C17.29056055 0.05091691 31.25442918 0.5562653 45.375 3.3125 C46.72053955 3.55395752 46.72053955 3.55395752 48.09326172 3.80029297 C107.90338904 14.62287989 165.41745829 48.68064457 202.375 97.3125 C202.79168945 97.85277832 203.20837891 98.39305664 203.63769531 98.94970703 C230.19012111 133.4911012 248.03135845 174.12484291 254.375 217.3125 C254.55232666 218.51712891 254.72965332 219.72175781 254.91235352 220.96289062 C256.511325 232.62017354 256.7334053 244.18436098 256.6875 255.9375 C256.68476578 257.39233292 256.68476578 257.39233292 256.68197632 258.8765564 C256.63658309 273.22806055 256.1312347 287.19192918 253.375 301.3125 C253.21402832 302.20952637 253.05305664 303.10655273 252.88720703 304.03076172 C242.06462011 363.84088904 208.00685543 421.35495829 159.375 458.3125 C158.83472168 458.72918945 158.29444336 459.14587891 157.73779297 459.57519531 C123.1963988 486.12762111 82.56265709 503.96885845 39.375 510.3125 C38.17037109 510.48982666 36.96574219 510.66715332 35.72460938 510.84985352 C24.0673269 512.44882494 12.50313934 512.67090972 0.75 512.625 C-0.21955627 512.62317719 -1.18911255 512.62135437 -2.18804932 512.61947632 C-16.51740966 512.57413492 -30.53739418 512.16447455 -44.625 509.3125 C-45.5428125 509.13025879 -46.460625 508.94801758 -47.40625 508.76025391 C-53.85780257 507.44868658 -60.24790118 505.94605484 -66.625 504.3125 C-67.74116699 504.03067871 -67.74116699 504.03067871 -68.87988281 503.74316406 C-87.29383044 499.00235423 -104.88937367 491.26153001 -121.625 482.3125 C-122.28693359 481.96219727 -122.94886719 481.61189453 -123.63085938 481.25097656 C-131.20880761 477.21544719 -138.49234643 472.90543561 -145.5 467.9375 C-146.0892627 467.52064941 -146.67852539 467.10379883 -147.28564453 466.67431641 C-149.99676681 464.6991507 -151.74185998 463.13721003 -153.625 460.3125 C-154.0625 457.4375 -154.0625 457.4375 -153.625 454.3125 C-151.28720584 451.14960202 -149.87724472 449.51817391 -145.9375 448.87109375 C-141.33144557 449.48487223 -138.50190886 451.62098201 -134.75 454.25 C-133.23156836 455.27050972 -131.71067828 456.28736985 -130.1875 457.30078125 C-129.42308594 457.8107666 -128.65867187 458.32075195 -127.87109375 458.84619141 C-121.98887917 462.68625453 -115.83536455 466.03839816 -109.625 469.3125 C-108.94373047 469.67553223 -108.26246094 470.03856445 -107.56054688 470.41259766 C-74.56793735 487.74212634 -37.10517117 495.79601964 0 495.625 C0.82749756 495.62317719 1.65499512 495.62135437 2.50756836 495.61947632 C15.98820143 495.56970058 29.10633011 494.85271874 42.375 492.3125 C43.24833984 492.15152832 44.12167969 491.99055664 45.02148438 491.82470703 C100.44872869 481.31855967 153.99720232 450.61466068 188.375 405.3125 C188.8076416 404.74563477 189.2402832 404.17876953 189.68603516 403.59472656 C216.31555993 368.5544075 232.46166038 328.85217087 238.375 285.3125 C238.4795752 284.55864014 238.58415039 283.80478027 238.69189453 283.02807617 C239.71945933 274.43715651 239.61879562 265.76486874 239.625 257.125 C239.62567474 256.28001953 239.62634949 255.43503906 239.62704468 254.56445312 C239.60980445 240.94241737 238.94225811 227.72240829 236.375 214.3125 C236.21402832 213.43916016 236.05305664 212.56582031 235.88720703 211.66601562 C225.38105967 156.23877131 194.67716068 102.69029768 149.375 68.3125 C148.80813477 67.8798584 148.24126953 67.4472168 147.65722656 67.00146484 C112.6169075 40.37194007 72.91467087 24.22583962 29.375 18.3125 C28.62114014 18.2079248 27.86728027 18.10334961 27.09057617 17.99560547 C18.49965651 16.96804067 9.82736874 17.06870438 1.1875 17.0625 C0.34251953 17.06182526 -0.50246094 17.06115051 -1.37304688 17.06045532 C-14.99508263 17.07769555 -28.21509171 17.74524189 -41.625 20.3125 C-42.49833984 20.47347168 -43.37167969 20.63444336 -44.27148438 20.80029297 C-99.69872869 31.30644033 -153.24720232 62.01033932 -187.625 107.3125 C-188.0576416 107.87936523 -188.4902832 108.44623047 -188.93603516 109.03027344 C-215.56555993 144.0705925 -231.71166038 183.77282913 -237.625 227.3125 C-237.7295752 228.06635986 -237.83415039 228.82021973 -237.94189453 229.59692383 C-238.96945933 238.18784349 -238.86879562 246.86013126 -238.875 255.5 C-238.87567474 256.34498047 -238.87634949 257.18996094 -238.87704468 258.06054688 C-238.85980445 271.68258263 -238.19225811 284.90259171 -235.625 298.3125 C-235.46402832 299.18583984 -235.30305664 300.05917969 -235.13720703 300.95898438 C-226.78081463 345.04477408 -206.53286436 383.61307702 -177.2890625 417.21875 C-176.4006156 418.24963296 -175.51256864 419.28086079 -174.625 420.3125 C-173.85929687 421.19808594 -173.09359375 422.08367187 -172.3046875 422.99609375 C-169.93762641 426.26043614 -170.05285174 428.3789807 -170.625 432.3125 C-172.76447338 435.78914424 -174.27814277 436.22877584 -178.25 437.1875 C-183.71009244 436.89372879 -186.6176134 433.02842841 -190.125 429.2109375 C-190.95 428.25445312 -191.775 427.29796875 -192.625 426.3125 C-193.3675 425.45914062 -194.11 424.60578125 -194.875 423.7265625 C-197.19308499 420.96969713 -199.4205086 418.16104147 -201.625 415.3125 C-202.04894043 414.7649707 -202.47288086 414.21744141 -202.90966797 413.65332031 C-210.58403938 403.66570212 -217.31917367 393.21048264 -223.625 382.3125 C-224.01929199 381.63525879 -224.41358398 380.95801758 -224.81982422 380.26025391 C-239.72785371 354.34126191 -249.28651819 324.84898362 -253.625 295.3125 C-253.80232666 294.10787109 -253.97965332 292.90324219 -254.16235352 291.66210938 C-255.761325 280.00482646 -255.9834053 268.44063902 -255.9375 256.6875 C-255.93567719 255.71761139 -255.93385437 254.74772278 -255.93197632 253.7484436 C-255.88658309 239.39693945 -255.3812347 225.43307082 -252.625 211.3125 C-252.38354248 209.96696045 -252.38354248 209.96696045 -252.13720703 208.59423828 C-241.31462011 148.78411096 -207.25685543 91.27004171 -158.625 54.3125 C-158.08472168 53.89581055 -157.54444336 53.47912109 -156.98779297 53.04980469 C-122.4463988 26.49737889 -81.81265709 8.65614155 -38.625 2.3125 C-37.42037109 2.13517334 -36.21574219 1.95784668 -34.97460938 1.77514648 C-23.31732646 0.176175 -11.75313902 -0.0459053 0 0 Z " fill="#000000" transform="translate(255.625,-0.3125)"/>
<path d="M0 0 C4.31799709 4.03055979 8.49830592 8.19190161 12.671875 12.37109375 C13.88375552 13.57907989 15.09585661 14.78684479 16.3081665 15.99440002 C18.83629176 18.51510012 21.3605552 21.03959203 23.88232422 23.56665039 C27.10385807 26.79399211 30.33665004 30.00978973 33.57264328 33.22262478 C36.0744035 35.70961501 38.56916192 38.20353853 41.06198883 40.69948006 C42.25089098 41.88787124 43.44213727 43.07392235 44.63582611 44.25750542 C46.30586246 45.91512301 47.96597423 47.58211226 49.62402344 49.25170898 C50.11136459 49.7314064 50.59870575 50.21110382 51.10081482 50.70533752 C56.23324111 55.91658841 59.87081601 61.50732832 60 69 C58.15075853 81.84862579 44.95317028 91.21894027 36.2109375 99.9921875 C35.39243254 100.81493353 35.39243254 100.81493353 34.55739212 101.65430069 C31.67959634 104.54693875 28.79905562 107.43680776 25.91601562 110.32421875 C22.95616935 113.28958389 20.00574768 116.26414785 17.05733299 119.24087334 C14.76831749 121.54855687 12.47257816 123.84946198 10.17497635 126.1485939 C9.08412289 127.2424558 7.99574882 128.33879655 6.91001511 129.43774033 C-7.32439252 143.83317918 -7.32439252 143.83317918 -17 144 C-29.84862579 142.15075853 -39.21894027 128.95317028 -47.9921875 120.2109375 C-48.54068485 119.66526752 -49.08918221 119.11959755 -49.65430069 118.55739212 C-52.54693875 115.67959634 -55.43680776 112.79905562 -58.32421875 109.91601562 C-61.28958389 106.95616935 -64.26414785 104.00574768 -67.24087334 101.05733299 C-69.54855687 98.76831749 -71.84946198 96.47257816 -74.1485939 94.17497635 C-75.2424558 93.08412289 -76.33879655 91.99574882 -77.43774033 90.91001511 C-91.83317918 76.67560748 -91.83317918 76.67560748 -92 67 C-90.15075853 54.15137421 -76.95317028 44.78105973 -68.2109375 36.0078125 C-67.66526752 35.45931515 -67.11959755 34.91081779 -66.55739212 34.34569931 C-63.67959634 31.45306125 -60.79905562 28.56319224 -57.91601562 25.67578125 C-54.95616935 22.71041611 -52.00574768 19.73585215 -49.05733299 16.75912666 C-46.76831749 14.45144313 -44.47257816 12.15053802 -42.17497635 9.8514061 C-41.08412289 8.7575442 -39.99574882 7.66120345 -38.91001511 6.56225967 C-26.17445077 -6.31737975 -15.32744474 -13.08502702 0 0 Z M-20.92959595 12.68075562 C-21.46474823 13.22309845 -21.99990051 13.76544128 -22.55126953 14.32421875 C-23.11726868 14.88992584 -23.68326782 15.45563293 -24.26641846 16.03848267 C-26.14332666 17.91678854 -28.01304459 19.80208833 -29.8828125 21.6875 C-31.17989277 22.98830884 -32.47741418 24.28867796 -33.77536011 25.58862305 C-37.19597861 29.01689025 -40.61054971 32.45112047 -44.02392578 35.88659668 C-47.50583053 39.38893325 -50.99337987 42.88563882 -54.48046875 46.3828125 C-61.32587125 53.24968672 -68.16490283 60.12286915 -75 67 C-73.3993244 70.97526224 -70.62856444 73.64020304 -67.63232422 76.59472656 C-66.81258621 77.41490265 -66.81258621 77.41490265 -65.97628784 78.25164795 C-64.17378907 80.05275649 -62.36431604 81.84668247 -60.5546875 83.640625 C-59.30157633 84.89000495 -58.04890681 86.13982801 -56.79666138 87.39007568 C-53.50324045 90.67586872 -50.20385709 93.9556107 -46.90319824 97.23413086 C-43.53471006 100.58214253 -40.1718924 103.93583907 -36.80859375 107.2890625 C-30.21126824 113.86495296 -23.60763017 120.43446516 -17 127 C-13.02473776 125.3993244 -10.35979696 122.62856444 -7.40527344 119.63232422 C-6.85848938 119.08583221 -6.31170532 118.53934021 -5.74835205 117.97628784 C-3.94724351 116.17378907 -2.15331753 114.36431604 -0.359375 112.5546875 C0.89000495 111.30157633 2.13982801 110.04890681 3.39007568 108.79666138 C6.67586872 105.50324045 9.9556107 102.20385709 13.23413086 98.90319824 C16.58214253 95.53471006 19.93583907 92.1718924 23.2890625 88.80859375 C29.86495296 82.21126824 36.43446516 75.60763017 43 69 C41.3991259 65.03607741 38.64517519 62.36287411 35.6640625 59.40527344 C35.12078308 58.85848938 34.57750366 58.31170532 34.01776123 57.74835205 C32.22516477 55.94697052 30.42537258 54.15298232 28.625 52.359375 C27.37682289 51.10985071 26.12894281 49.86002965 24.88134766 48.60992432 C22.26854023 45.99417032 19.65215399 43.38206354 17.03320312 40.77246094 C13.67024761 37.42092324 10.316381 34.06045611 6.96511841 30.69723129 C4.39174416 28.11664601 1.81364522 25.54082354 -0.76593018 22.96643829 C-2.00501499 21.72869085 -3.24260703 20.4894472 -4.47869873 19.24871063 C-6.20237239 17.51998163 -7.93228523 15.79775419 -9.6640625 14.07714844 C-10.17737122 13.55979126 -10.69067993 13.04243408 -11.21954346 12.50939941 C-15.62198268 8.15966823 -16.56715081 8.3427492 -20.92959595 12.68075562 Z " fill="#000000" transform="translate(272,188)"/>
<path d="M0 0 C5.51773368 5.36860574 8.59958876 11.57347358 9.3125 19.25 C9.4236877 28.18671115 6.58919308 35.79895433 0.3125 42.25 C-6.40365372 47.51277193 -13.24001938 49.64628518 -21.75 49.125 C-29.2243388 48.13848013 -36.33111343 44.53329565 -41.03125 38.53515625 C-45.91987037 31.35854785 -47.36345018 24.25587545 -46.23046875 15.671875 C-44.55992306 8.22052012 -40.2979112 1.85256228 -34 -2.4375 C-22.2816238 -9.30390528 -10.89420918 -7.09390365 0 0 Z M-28.6875 15.25 C-30.30179923 18.47859847 -30.28320657 21.75993653 -29.6875 25.25 C-27.95147895 28.27508145 -25.85169863 30.66790069 -22.6875 32.25 C-17.56379602 32.85728845 -17.56379602 32.85728845 -12.86328125 31.203125 C-9.05997256 28.07207185 -7.80086633 26.38366332 -7.3125 21.5 C-7.33691225 18.14941932 -7.93148646 16.40105468 -10.0625 13.8125 C-13.5923586 10.36668565 -15.6158652 9.85444164 -20.58203125 9.890625 C-24.30343453 10.52581814 -26.09062849 12.58979016 -28.6875 15.25 Z " fill="#000000" transform="translate(274.6875,234.75)"/>
</svg>
