<?xml version="1.0" encoding="UTF-8"?>
<svg version="1.1" xmlns="http://www.w3.org/2000/svg" width="512" height="512">
<path d="M0 0 C0.96988861 0.00182281 1.93977722 0.00364563 2.9390564 0.00552368 C17.29056055 0.05091691 31.25442918 0.5562653 45.375 3.3125 C46.72053955 3.55395752 46.72053955 3.55395752 48.09326172 3.80029297 C107.90338904 14.62287989 165.41745829 48.68064457 202.375 97.3125 C202.79168945 97.85277832 203.20837891 98.39305664 203.63769531 98.94970703 C230.19012111 133.4911012 248.03135845 174.12484291 254.375 217.3125 C254.55232666 218.51712891 254.72965332 219.72175781 254.91235352 220.96289062 C256.511325 232.62017354 256.7334053 244.18436098 256.6875 255.9375 C256.68476578 257.39233292 256.68476578 257.39233292 256.68197632 258.8765564 C256.63658309 273.22806055 256.1312347 287.19192918 253.375 301.3125 C253.21402832 302.20952637 253.05305664 303.10655273 252.88720703 304.03076172 C247.51586547 333.71503452 236.54246312 361.73801318 221.375 387.75 C220.82295898 388.6985083 220.27091797 389.6470166 219.70214844 390.62426758 C219.18168945 391.48947021 218.66123047 392.35467285 218.125 393.24609375 C217.66609375 394.00978271 217.2071875 394.77347168 216.734375 395.56030273 C215.375 397.3125 215.375 397.3125 212.375 398.3125 C210.31640625 397.23828125 210.31640625 397.23828125 207.9375 395.625 C195.59751929 388.00794716 182.79477123 386.36834981 168.6484375 389.0078125 C161.68995962 390.94706043 156.04789256 393.8791568 150.375 398.3125 C149.45460938 398.97185547 149.45460938 398.97185547 148.515625 399.64453125 C139.93656462 406.23066831 134.35723649 416.80312784 132.375 427.3125 C130.88644164 441.93098996 132.95169678 453.94254441 141.30078125 466.25390625 C141.83251953 467.27291016 141.83251953 467.27291016 142.375 468.3125 C141.03286821 472.33889538 138.50177305 473.35721004 135 475.375 C133.99839844 475.95991211 133.99839844 475.95991211 132.9765625 476.55664062 C130.78443873 477.82396218 128.58162496 479.07061644 126.375 480.3125 C125.28590332 480.9310083 125.28590332 480.9310083 124.17480469 481.56201172 C98.04948723 496.27262828 69.03778609 505.95546618 39.375 510.3125 C38.17037109 510.48982666 36.96574219 510.66715332 35.72460938 510.84985352 C24.06732646 512.448825 12.50313902 512.6709053 0.75 512.625 C-0.70483292 512.62226578 -0.70483292 512.62226578 -2.1890564 512.61947632 C-16.54056055 512.57408309 -30.50442918 512.0687347 -44.625 509.3125 C-45.52202637 509.15152832 -46.41905273 508.99055664 -47.34326172 508.82470703 C-107.15338904 498.00212011 -164.66745829 463.94435543 -201.625 415.3125 C-202.04168945 414.77222168 -202.45837891 414.23194336 -202.88769531 413.67529297 C-229.44012111 379.1338988 -247.28135845 338.50015709 -253.625 295.3125 C-253.80232666 294.10787109 -253.97965332 292.90324219 -254.16235352 291.66210938 C-255.761325 280.00482646 -255.9834053 268.44063902 -255.9375 256.6875 C-255.93567719 255.71761139 -255.93385437 254.74772278 -255.93197632 253.7484436 C-255.88658309 239.39693945 -255.3812347 225.43307082 -252.625 211.3125 C-252.38354248 209.96696045 -252.38354248 209.96696045 -252.13720703 208.59423828 C-246.76586547 178.90996548 -235.79246312 150.88698682 -220.625 124.875 C-220.07295898 123.9264917 -219.52091797 122.9779834 -218.95214844 122.00073242 C-218.43168945 121.13552979 -217.91123047 120.27032715 -217.375 119.37890625 C-216.91609375 118.61521729 -216.4571875 117.85152832 -215.984375 117.06469727 C-214.625 115.3125 -214.625 115.3125 -211.625 114.3125 C-209.56640625 115.38671875 -209.56640625 115.38671875 -207.1875 117 C-194.84751929 124.61705284 -182.04477123 126.25665019 -167.8984375 123.6171875 C-160.93995962 121.67793957 -155.29789256 118.7458432 -149.625 114.3125 C-149.01140625 113.87292969 -148.3978125 113.43335937 -147.765625 112.98046875 C-139.18656462 106.39433169 -133.60723649 95.82187216 -131.625 85.3125 C-130.13644164 70.69401004 -132.20169678 58.68245559 -140.55078125 46.37109375 C-140.90527344 45.69175781 -141.25976562 45.01242188 -141.625 44.3125 C-140.28286821 40.28610462 -137.75177305 39.26778996 -134.25 37.25 C-133.58226562 36.86005859 -132.91453125 36.47011719 -132.2265625 36.06835938 C-130.03443873 34.80103782 -127.83162496 33.55438356 -125.625 32.3125 C-124.89893555 31.90016113 -124.17287109 31.48782227 -123.42480469 31.06298828 C-97.29948723 16.35237172 -68.28778609 6.66953382 -38.625 2.3125 C-37.42037109 2.13517334 -36.21574219 1.95784668 -34.97460938 1.77514648 C-23.31732646 0.176175 -11.75313902 -0.0459053 0 0 Z M-78.625 97.3125 C-79.28870605 97.63476562 -79.95241211 97.95703125 -80.63623047 98.2890625 C-105.7130294 110.6237639 -127.12738146 129.90374212 -143.625 152.3125 C-144.04104492 152.86824707 -144.45708984 153.42399414 -144.88574219 153.99658203 C-171.84106208 190.41084646 -181.92362932 238.71873554 -175.49755859 283.25585938 C-172.37432044 301.65813798 -167.07997336 320.11407034 -157.85546875 336.4453125 C-156.42571602 339.7768633 -156.43910658 340.93562861 -157.625 344.3125 C-158.5563713 346.23226532 -159.53986647 348.12725547 -160.5625 350 C-167.10886282 362.82584754 -166.96155918 375.71147347 -162.625 389.3125 C-156.73610874 403.4307393 -145.95694515 413.65856452 -131.9375 419.5 C-120.15652222 423.63926246 -108.42952175 423.1953799 -96.625 419.3125 C-93.663323 417.81112024 -90.85823207 416.21182541 -88.0625 414.421875 C-85.01799839 413.03623645 -83.76572349 413.26230517 -80.625 414.3125 C-78.99778895 415.12190446 -77.39565843 415.98249747 -75.8125 416.875 C-59.92447177 424.98512511 -42.17750324 429.55759517 -24.625 432.3125 C-23.449375 432.50328125 -22.27375 432.6940625 -21.0625 432.890625 C13.57751265 436.95160281 48.18347939 430.56265796 79.375 415.3125 C80.37055908 414.82910156 80.37055908 414.82910156 81.38623047 414.3359375 C106.4630294 402.0012361 127.87738146 382.72125788 144.375 360.3125 C144.79104492 359.75675293 145.20708984 359.20100586 145.63574219 358.62841797 C172.59106208 322.21415354 182.67362932 273.90626446 176.24755859 229.36914062 C173.07959657 210.70334673 167.42928989 192.83994835 158.66796875 176.0390625 C156.96869941 172.45570903 157.20900104 171.10199663 158.375 167.3125 C159.16539345 165.67663343 159.98030467 164.05250222 160.8125 162.4375 C166.55727088 151.21361238 167.18963863 138.54789434 163.75 126.4375 C159.06423615 113.24251917 150.91353544 102.62909979 138.25 96.3125 C124.80589498 90.01890945 111.26462519 89.29010132 97.1484375 94.15234375 C94.7452434 95.15762353 92.63848544 96.24577986 90.4375 97.625 C86.68437215 99.69305004 85.45409627 99.31564036 81.375 98.3125 C79.0078125 97.18359375 79.0078125 97.18359375 76.5 95.75 C60.66516143 87.59682629 42.89616667 83.06248648 25.375 80.3125 C23.6115625 80.02632813 23.6115625 80.02632813 21.8125 79.734375 C-12.82751265 75.67339719 -47.43347939 82.06234204 -78.625 97.3125 Z " fill="#000000" transform="translate(255.625,-0.3125)"/>
<path d="M0 0 C1.31403809 0.00563965 2.62807617 0.0112793 3.98193359 0.01708984 C25.61799338 0.28630779 47.96941478 5.13578411 67.25 15.3125 C68.25 17.3125 68.25 17.3125 67.3125 21.0625 C64.14844355 34.67885327 66.57567357 48.26043264 73.7890625 60.1953125 C81.59868436 71.51299979 91.27441429 78.2520548 104.62890625 81.66015625 C113.98565424 83.34578399 123.08094314 82.67870822 132.25 80.3125 C148.43499077 110.17964791 153.48482609 148.24428952 145.25 181.3125 C145.06727539 182.07578613 144.88455078 182.83907227 144.69628906 183.62548828 C138.07229352 210.46409091 124.45196058 233.62973915 105.25 253.3125 C104.62222656 254.00214844 103.99445313 254.69179688 103.34765625 255.40234375 C86.3417655 273.59901898 63.209782 284.63671797 39.6875 291.5625 C38.44867065 291.93217896 38.44867065 291.93217896 37.18481445 292.30932617 C25.10878703 295.71937472 13.00706248 296.68173975 0.5 296.625 C-1.47105713 296.61654053 -1.47105713 296.61654053 -3.48193359 296.60791016 C-25.76954388 296.33058496 -46.57977338 290.72972501 -66.75 281.3125 C-66.58242187 280.00796875 -66.41484375 278.7034375 -66.2421875 277.359375 C-64.11437541 259.64118217 -65.31693456 245.51980688 -76.4921875 230.921875 C-86.0542744 219.87088183 -98.1683192 214.73849707 -112.546875 213.44921875 C-119.35693458 213.06820267 -126.057272 214.15551245 -132.75 215.3125 C-137.0039236 205.88631198 -140.98985657 196.52016652 -143.625 186.5 C-143.81537842 185.78610107 -144.00575684 185.07220215 -144.2019043 184.33666992 C-147.14312973 172.53056711 -148.11756728 160.70090231 -148.0625 148.5625 C-148.05686035 147.24846191 -148.0512207 145.93442383 -148.04541016 144.58056641 C-147.92037013 134.53155749 -147.17800842 125.06254119 -144.75 115.3125 C-144.56727539 114.54921387 -144.38455078 113.78592773 -144.19628906 112.99951172 C-137.57229352 86.16090909 -123.95196058 62.99526085 -104.75 43.3125 C-104.12222656 42.62285156 -103.49445313 41.93320313 -102.84765625 41.22265625 C-85.8417655 23.02598102 -62.709782 11.98828203 -39.1875 5.0625 C-38.36161377 4.81604736 -37.53572754 4.56959473 -36.68481445 4.31567383 C-24.60878703 0.90562528 -12.50706248 -0.05673975 0 0 Z M-0.75 44.3125 C-2.14206324 46.21640193 -2.14206324 46.21640193 -3.515625 48.71875 C-4.06968018 49.67958496 -4.62373535 50.64041992 -5.19458008 51.63037109 C-5.79036865 52.68047363 -6.38615723 53.73057617 -7 54.8125 C-8.25886979 57.00274488 -9.51799209 59.19284465 -10.77734375 61.3828125 C-11.42815918 62.52008789 -12.07897461 63.65736328 -12.74951172 64.82910156 C-15.98280238 70.47049853 -19.27749429 76.07611453 -22.5625 81.6875 C-23.73647733 83.6948447 -24.90972096 85.70261878 -26.08203125 87.7109375 C-26.57421143 88.55317871 -27.0663916 89.39541992 -27.57348633 90.26318359 C-28.33644366 91.59214476 -29.06469107 92.94188213 -29.75 94.3125 C-49.88 94.6425 -70.01 94.9725 -90.75 95.3125 C-86.28017403 104.38637776 -86.28017403 104.38637776 -81.41796875 113.171875 C-80.85078125 114.13504639 -80.28359375 115.09821777 -79.69921875 116.09057617 C-79.11785156 117.07131104 -78.53648437 118.0520459 -77.9375 119.0625 C-76.71186168 121.15733103 -75.48660226 123.25238378 -74.26171875 125.34765625 C-72.12157008 128.99549174 -69.95932205 132.62788557 -67.76953125 136.24609375 C-66.92932755 137.66384924 -66.08945581 139.08180155 -65.25 140.5 C-64.8583667 141.1280957 -64.4667334 141.75619141 -64.06323242 142.40332031 C-63.03125 144.16796875 -63.03125 144.16796875 -61.75 147.3125 C-62.93368716 151.11686895 -64.86967022 154.49826974 -66.8046875 157.96875 C-67.4143335 159.06461426 -68.02397949 160.16047852 -68.65209961 161.28955078 C-69.30963742 162.46392075 -69.96727286 163.63823606 -70.625 164.8125 C-71.29646437 166.01667566 -71.96776824 167.22094083 -72.63891602 168.42529297 C-77.44116302 177.0302262 -82.30840538 185.59750842 -87.24365234 194.12695312 C-87.70852051 194.93326172 -88.17338867 195.73957031 -88.65234375 196.5703125 C-89.05960693 197.2730127 -89.46687012 197.97571289 -89.88647461 198.69970703 C-90.82867024 200.15452786 -90.82867024 200.15452786 -90.75 201.3125 C-90.0146553 201.27395401 -89.27931061 201.23540802 -88.52168274 201.19569397 C-81.53550611 200.85049592 -74.55655082 200.61975717 -67.56332111 200.51197147 C-63.96749106 200.45265199 -60.38360521 200.35188367 -56.79272461 200.15014648 C-33.76879938 198.90088466 -33.76879938 198.90088466 -27.26150513 204.42501831 C-22.96189393 209.8740236 -20.36410772 215.98635245 -17.90066528 222.43191528 C-16.32937068 226.36550681 -14.27250658 229.87152558 -12.05078125 233.46484375 C-11.37048302 234.61893523 -10.69266075 235.77449055 -10.01757812 236.93164062 C-9.37240234 238.02669922 -8.72722656 239.12175781 -8.0625 240.25 C-7.71936768 240.84079346 -7.37623535 241.43158691 -7.02270508 242.0402832 C-6.01835973 243.76929765 -5.00352988 245.49220892 -3.98828125 247.21484375 C-3.1226355 248.69198853 -3.1226355 248.69198853 -2.23950195 250.19897461 C-1.74796631 250.89643799 -1.25643066 251.59390137 -0.75 252.3125 C-0.09 252.3125 0.57 252.3125 1.25 252.3125 C2.64206324 250.40859807 2.64206324 250.40859807 4.015625 247.90625 C4.84670776 246.46499756 4.84670776 246.46499756 5.69458008 244.99462891 C6.29036865 243.94452637 6.88615723 242.89442383 7.5 241.8125 C8.75886979 239.62225512 10.01799209 237.43215535 11.27734375 235.2421875 C11.92815918 234.10491211 12.57897461 232.96763672 13.24951172 231.79589844 C16.48280238 226.15450147 19.77749429 220.54888547 23.0625 214.9375 C24.23647733 212.9301553 25.40972096 210.92238122 26.58203125 208.9140625 C27.32030151 207.65070068 27.32030151 207.65070068 28.07348633 206.36181641 C28.83644366 205.03285524 29.56469107 203.68311787 30.25 202.3125 C50.38 201.9825 70.51 201.6525 91.25 201.3125 C86.78017403 192.23862224 86.78017403 192.23862224 81.91796875 183.453125 C81.35078125 182.48995361 80.78359375 181.52678223 80.19921875 180.53442383 C79.61785156 179.55368896 79.03648437 178.5729541 78.4375 177.5625 C77.21186168 175.46766897 75.98660226 173.37261622 74.76171875 171.27734375 C72.62157008 167.62950826 70.45932205 163.99711443 68.26953125 160.37890625 C67.42932755 158.96115076 66.58945581 157.54319845 65.75 156.125 C65.3583667 155.4969043 64.9667334 154.86880859 64.56323242 154.22167969 C63.53125 152.45703125 63.53125 152.45703125 62.25 149.3125 C63.43368716 145.50813105 65.36967022 142.12673026 67.3046875 138.65625 C67.9143335 137.56038574 68.52397949 136.46452148 69.15209961 135.33544922 C69.80963742 134.16107925 70.46727286 132.98676394 71.125 131.8125 C71.79646437 130.60832434 72.46776824 129.40405917 73.13891602 128.19970703 C77.94116302 119.5947738 82.80840538 111.02749158 87.74365234 102.49804688 C88.20852051 101.69173828 88.67338867 100.88542969 89.15234375 100.0546875 C89.76323853 99.00063721 89.76323853 99.00063721 90.38647461 97.92529297 C91.32867024 96.47047214 91.32867024 96.47047214 91.25 95.3125 C90.5146553 95.35104599 89.77931061 95.38959198 89.02168274 95.42930603 C82.03550611 95.77450408 75.05655082 96.00524283 68.06332111 96.11302853 C64.46749106 96.17234801 60.88360521 96.27311633 57.29272461 96.47485352 C34.26879938 97.72411534 34.26879938 97.72411534 27.76150513 92.19998169 C23.46189393 86.7509764 20.86410772 80.63864755 18.40066528 74.19308472 C16.82937068 70.25949319 14.77250658 66.75347442 12.55078125 63.16015625 C11.87048302 62.00606477 11.19266075 60.85050945 10.51757812 59.69335938 C9.87240234 58.59830078 9.22722656 57.50324219 8.5625 56.375 C8.21936768 55.78420654 7.87623535 55.19341309 7.52270508 54.5847168 C6.51835973 52.85570235 5.50352988 51.13279108 4.48828125 49.41015625 C3.91118408 48.42539307 3.33408691 47.44062988 2.73950195 46.42602539 C2.24796631 45.72856201 1.75643066 45.03109863 1.25 44.3125 C0.59 44.3125 -0.07 44.3125 -0.75 44.3125 Z " fill="#000000" transform="translate(255.75,107.6875)"/>
<path d="M0 0 C0.66 0 1.32 0 2 0 C4.00695291 3.45434314 6.00436779 6.9141063 8 10.375 C8.57234375 11.35984375 9.1446875 12.3446875 9.734375 13.359375 C10.27578125 14.30039063 10.8171875 15.24140625 11.375 16.2109375 C11.87773437 17.08024902 12.38046875 17.94956055 12.8984375 18.84521484 C14 21 14 21 14 23 C23.24 23 32.48 23 42 23 C35.16964286 36.92857143 35.16964286 36.92857143 32 41.5625 C29.73149851 44.69391937 29.73149851 44.69391937 30.23217773 47.44482422 C30.99977176 49.99924046 31.94307619 52.02087328 33.28515625 54.3203125 C33.95708008 55.49400391 33.95708008 55.49400391 34.64257812 56.69140625 C35.11115234 57.49449219 35.57972656 58.29757812 36.0625 59.125 C36.99673946 60.72837414 37.92539655 62.33501779 38.84765625 63.9453125 C39.26023682 64.65187988 39.67281738 65.35844727 40.09790039 66.08642578 C41 68 41 68 41 71 C32.09 71 23.18 71 14 71 C13.34 72.65 12.68 74.3 12 76 C11.2319582 77.48908403 10.43711656 78.96462562 9.6171875 80.42578125 C9.17246094 81.22177734 8.72773438 82.01777344 8.26953125 82.83789062 C7.80933594 83.65451172 7.34914063 84.47113281 6.875 85.3125 C6.17310547 86.56643555 6.17310547 86.56643555 5.45703125 87.84570312 C4.3073741 89.89866233 3.15496198 91.95002202 2 94 C1.34 94 0.68 94 0 94 C-2.00695291 90.54565686 -4.00436779 87.0858937 -6 83.625 C-6.57234375 82.64015625 -7.1446875 81.6553125 -7.734375 80.640625 C-8.27578125 79.69960938 -8.8171875 78.75859375 -9.375 77.7890625 C-10.12910156 76.48509521 -10.12910156 76.48509521 -10.8984375 75.15478516 C-12 73 -12 73 -12 71 C-21.24 71 -30.48 71 -40 71 C-33.16964286 57.07142857 -33.16964286 57.07142857 -30 52.4375 C-27.73149851 49.30608063 -27.73149851 49.30608063 -28.23217773 46.55517578 C-28.99977176 44.00075954 -29.94307619 41.97912672 -31.28515625 39.6796875 C-31.73310547 38.89722656 -32.18105469 38.11476562 -32.64257812 37.30859375 C-33.11115234 36.50550781 -33.57972656 35.70242187 -34.0625 34.875 C-34.99673946 33.27162586 -35.92539655 31.66498221 -36.84765625 30.0546875 C-37.26023682 29.34812012 -37.67281738 28.64155273 -38.09790039 27.91357422 C-39 26 -39 26 -39 23 C-30.09 23 -21.18 23 -12 23 C-11.34 21.35 -10.68 19.7 -10 18 C-9.2319582 16.51091597 -8.43711656 15.03537438 -7.6171875 13.57421875 C-6.95009766 12.38022461 -6.95009766 12.38022461 -6.26953125 11.16210938 C-5.80933594 10.34548828 -5.34914062 9.52886719 -4.875 8.6875 C-4.40707031 7.85154297 -3.93914062 7.01558594 -3.45703125 6.15429688 C-2.3073741 4.10133767 -1.15496198 2.04997798 0 0 Z " fill="#000000" transform="translate(255,209)"/>
<path d="M0 0 C5.37203167 2.34831559 8.63163727 6.41104133 11.58203125 11.3828125 C13.49765024 17.12966948 13.79850074 24.1624493 11.640625 29.875 C8.06827501 35.81025233 3.3762848 39.65629524 -3.17578125 41.90625 C-8.63860863 43.06733875 -14.19779278 42.29227309 -19.16796875 39.7578125 C-24.09602794 36.530691 -27.51835659 32.45583182 -29.85546875 27.0703125 C-31.01042125 19.49895725 -30.25149947 13.41539532 -25.8125 7.0703125 C-19.06979061 -1.08893248 -10.04980576 -2.56521698 0 0 Z " fill="#000000" transform="translate(149.41796875,350.6171875)"/>
<path d="M0 0 C5.39410038 3.21175442 9.34193372 7.2570957 11.921875 13.03125 C13.60851113 20.54444732 12.25777266 26.4201282 8.609375 33.09375 C5.06865955 37.50393108 -0.01322009 39.74153707 -5.390625 41.09375 C-10.8816282 41.68207177 -15.63915678 40.91668112 -20.390625 38.09375 C-24.82288763 34.0004251 -28.97061993 29.51239595 -29.7265625 23.359375 C-29.81168278 16.78808966 -29.62731077 11.36320128 -25.390625 6.09375 C-18.26774883 -0.45585646 -9.54322425 -3.61769285 0 0 Z " fill="#000000" transform="translate(445.390625,416.90625)"/>
<path d="M0 0 C4.43226263 4.0933249 8.57999493 8.58135405 9.3359375 14.734375 C9.42105778 21.30566034 9.23668577 26.73054872 5 32 C-1.31124988 37.80330221 -6.3822772 39.42625819 -14.921875 39.34375 C-20.93244627 38.67251869 -24.89956142 35.42972093 -28.875 31.0625 C-32.50009062 25.8381047 -33.63335174 21.3335174 -33 15 C-31.14053413 8.2594362 -28.94878973 3.77519348 -23 0 C-15.37799347 -3.81876498 -7.51756311 -4.46631691 0 0 Z " fill="#000000" transform="translate(87,57)"/>
<path d="M0 0 C4.50503185 3.30626801 8.5369245 7.81736909 9.8203125 13.3359375 C10.58220208 20.19294374 9.95503046 25.68556047 5.8203125 31.3359375 C0.90448665 36.69216421 -3.71097297 38.99475246 -10.9921875 39.7109375 C-16.69086758 39.52570316 -21.73203036 37.49133707 -26.01171875 33.72265625 C-30.7211511 28.55488499 -32.67505616 23.51388728 -32.41796875 16.41015625 C-31.59822426 9.27434767 -28.73546782 5.18940228 -23.1484375 0.74609375 C-16.17976362 -4.24535719 -7.41204379 -4.2311667 0 0 Z " fill="#000000" transform="translate(382.1796875,122.6640625)"/>
</svg>
