<?xml version="1.0" encoding="UTF-8"?>
<svg version="1.1" xmlns="http://www.w3.org/2000/svg" width="128" height="128">
<path d="M0 0 C3.14601778 1.34787409 4.73098585 2.65388769 6.6875 5.44140625 C11.10757528 11.097981 15.19232294 16.11494607 22.44091797 17.79980469 C30.61777587 18.69059449 38.80084282 18.51411024 47 18 C46.91190063 19.13876587 46.91190063 19.13876587 46.82202148 20.30053711 C45.44296092 36.92999228 45.44296092 36.92999228 51.8515625 51.64453125 C55.87996997 55.85773983 60.27735129 59.58733208 65 63 C63.65212591 66.14601778 62.34611231 67.73098585 59.55859375 69.6875 C53.902019 74.10757528 48.88505393 78.19232294 47.20019531 85.44091797 C46.30940551 93.61777587 46.48588976 101.80084282 47 110 C46.24082275 109.94126709 45.48164551 109.88253418 44.69946289 109.82202148 C28.07000772 108.44296092 28.07000772 108.44296092 13.35546875 114.8515625 C9.14226017 118.87996997 5.41266792 123.27735129 2 128 C-1.14601778 126.65212591 -2.73098585 125.34611231 -4.6875 122.55859375 C-9.10757528 116.902019 -13.19232294 111.88505393 -20.44091797 110.20019531 C-28.61777587 109.30940551 -36.80084282 109.48588976 -45 110 C-44.94126709 109.24082275 -44.88253418 108.48164551 -44.82202148 107.69946289 C-43.44296092 91.07000772 -43.44296092 91.07000772 -49.8515625 76.35546875 C-53.87996997 72.14226017 -58.27735129 68.41266792 -63 65 C-61.65212591 61.85398222 -60.34611231 60.26901415 -57.55859375 58.3125 C-51.902019 53.89242472 -46.88505393 49.80767706 -45.20019531 42.55908203 C-44.30940551 34.38222413 -44.48588976 26.19915718 -45 18 C-43.86123413 18.08809937 -43.86123413 18.08809937 -42.69946289 18.17797852 C-26.07000772 19.55703908 -26.07000772 19.55703908 -11.35546875 13.1484375 C-7.14226017 9.12003003 -3.41266792 4.72264871 0 0 Z M0 17 C-1.12857612 18.40383859 -2.25611264 19.80852776 -3.37792969 21.21777344 C-7.51454504 26.17664317 -10.87696218 29.20184226 -17.46484375 30.01953125 C-22.64759982 30.3462216 -27.81675043 30.29427106 -33 30 C-32.96745117 30.57331055 -32.93490234 31.14662109 -32.90136719 31.73730469 C-32.14674862 49.31921198 -32.14674862 49.31921198 -36.73828125 55.06640625 C-39.57940255 58.04420206 -42.6770694 60.5792225 -46 63 C-44.48775439 66.87999015 -42.18047225 68.431779 -38.9375 70.9375 C-34.2127057 75.43115329 -33.34176304 78.74221284 -32.94360352 85.20532227 C-32.84325388 89.47607435 -32.83856905 93.73091729 -33 98 C-32.42668945 97.96745117 -31.85337891 97.93490234 -31.26269531 97.90136719 C-13.68078802 97.14674862 -13.68078802 97.14674862 -7.93359375 101.73828125 C-4.95579794 104.57940255 -2.4207775 107.6770694 0 111 C3.87999015 109.48775439 5.431779 107.18047225 7.9375 103.9375 C12.43115329 99.2127057 15.74221284 98.34176304 22.20532227 97.94360352 C26.47607435 97.84325388 30.73091729 97.83856905 35 98 C34.95117676 97.14003418 34.95117676 97.14003418 34.90136719 96.26269531 C34.14674862 78.68078802 34.14674862 78.68078802 38.73828125 72.93359375 C41.57940255 69.95579794 44.6770694 67.4207775 48 65 C46.48775439 61.12000985 44.18047225 59.568221 40.9375 57.0625 C36.2127057 52.56884671 35.34176304 49.25778716 34.94360352 42.79467773 C34.84325388 38.52392565 34.83856905 34.26908271 35 30 C34.42668945 30.03254883 33.85337891 30.06509766 33.26269531 30.09863281 C15.6377975 30.85509654 15.6377975 30.85509654 10.00390625 26.26171875 C7.84887599 24.17203052 5.95024063 21.93672019 4.08203125 19.58984375 C3.39496094 18.73519531 2.70789063 17.88054688 2 17 C1.34 17 0.68 17 0 17 Z " fill="#000000" transform="translate(63,0)"/>
<path d="M0 0 C3.45120201 1.43299909 4.98357498 3.14474256 7.25 6.0625 C11.3140663 10.35148599 14.85270096 10.78608716 20.5 11 C23.00702548 11.05773119 25.49161276 11.04870655 28 11 C27.95617187 12.03898437 27.91234375 13.07796875 27.8671875 14.1484375 C27.6398254 22.76907881 27.6398254 22.76907881 31.29296875 30.2890625 C33.76224661 32.70609894 36.24354084 34.91889835 39 37 C37.56700091 40.45120201 35.85525744 41.98357498 32.9375 44.25 C28.64851401 48.3140663 28.21391284 51.85270096 28 57.5 C27.94226881 60.00702548 27.95129345 62.49161276 28 65 C26.96101563 64.95617187 25.92203125 64.91234375 24.8515625 64.8671875 C16.23092119 64.6398254 16.23092119 64.6398254 8.7109375 68.29296875 C6.29390106 70.76224661 4.08110165 73.24354084 2 76 C-1.45120201 74.56700091 -2.98357498 72.85525744 -5.25 69.9375 C-9.3140663 65.64851401 -12.85270096 65.21391284 -18.5 65 C-21.00702548 64.94226881 -23.49161276 64.95129345 -26 65 C-25.95617188 63.96101563 -25.91234375 62.92203125 -25.8671875 61.8515625 C-25.6398254 53.23092119 -25.6398254 53.23092119 -29.29296875 45.7109375 C-31.76224661 43.29390106 -34.24354084 41.08110165 -37 39 C-35.56700091 35.54879799 -33.85525744 34.01642502 -30.9375 31.75 C-26.64851401 27.6859337 -26.21391284 24.14729904 -26 18.5 C-25.94226881 15.99297452 -25.95129345 13.50838724 -26 11 C-24.96101563 11.04382812 -23.92203125 11.08765625 -22.8515625 11.1328125 C-14.23092119 11.3601746 -14.23092119 11.3601746 -6.7109375 7.70703125 C-4.29390106 5.23775339 -2.08110165 2.75645916 0 0 Z " fill="#000000" transform="translate(63,26)"/>
</svg>
