<?xml version="1.0" encoding="UTF-8"?>
<svg version="1.1" xmlns="http://www.w3.org/2000/svg" width="512" height="512">
<path d="M0 0 C1.40378906 -0.04253906 1.40378906 -0.04253906 2.8359375 -0.0859375 C6.50713459 0.52078695 8.00490988 1.75059342 10.625 4.375 C16.12061287 13.03544606 19.26662539 22.44700366 21.625 32.375 C21.89195679 33.46868896 21.89195679 33.46868896 22.16430664 34.58447266 C22.74378757 38.09452405 22.74894647 41.53664706 22.72265625 45.08203125 C22.72053383 46.17012337 22.72053383 46.17012337 22.71836853 47.28019714 C22.71279931 49.5826745 22.70025261 51.88505235 22.6875 54.1875 C22.68248102 55.75455588 22.67791881 57.3216133 22.67382812 58.88867188 C22.66283998 62.71748589 22.64559673 66.54622611 22.625 70.375 C23.23496826 70.53581055 23.84493652 70.69662109 24.47338867 70.86230469 C27.25666423 71.60380632 30.03444343 72.36418925 32.8125 73.125 C34.25206055 73.50398438 34.25206055 73.50398438 35.72070312 73.890625 C40.79909999 75.2964096 44.85466591 76.47976871 48.625 80.375 C49.625 82.8125 49.625 82.8125 49.625 85.375 C48.00344371 88.86134601 46.86046708 90.21802194 43.625 92.375 C37.68923978 92.02320387 32.28454336 90.56332927 26.625 88.8125 C25.85027344 88.57853516 25.07554687 88.34457031 24.27734375 88.10351562 C22.3914786 87.53309962 20.5079791 86.95487197 18.625 86.375 C19.61742083 95.82521627 21.39196636 103.88699639 27.28515625 111.52734375 C28.625 113.375 28.625 113.375 28.625 115.375 C29.29273438 115.47425781 29.96046875 115.57351562 30.6484375 115.67578125 C34.37977397 116.55230255 37.7621833 118.01074701 41.25 119.5625 C41.95423096 119.86986084 42.65846191 120.17722168 43.3840332 120.49389648 C48.5865685 122.80330303 53.47554888 125.46172457 58.29296875 128.50390625 C60.62571862 129.62785555 60.62571862 129.62785555 63.125 128.73828125 C65.72642227 127.31969317 68.05577808 125.76224336 70.4375 124 C74.68418255 120.95028344 78.88553059 118.5691988 83.625 116.375 C79.0391642 112.58743932 74.16140172 109.4046255 69.171875 106.1796875 C66.625 104.375 66.625 104.375 65.625 102.375 C65.26980097 98.53885043 65.07775406 96.22870366 67.1875 92.9375 C70.57150434 90.76826645 72.63896919 91.01449567 76.625 91.375 C79.25330093 92.58872412 81.46435246 93.77127668 83.875 95.3125 C84.53918945 95.70840332 85.20337891 96.10430664 85.88769531 96.51220703 C90.15598895 99.13781678 93.05341234 101.96771268 96.375 105.75 C99.41869203 108.4068991 101.47376495 109.39063811 105.53662109 109.33544922 C125.31357201 107.14761862 144.092948 102.14032423 157.73828125 87.07421875 C161.18759077 83.96769775 163.9648552 83.36452151 168.5625 83.4375 C173.11386054 84.14434008 175.40788516 86.15788516 178.625 89.375 C180.95916419 94.04332838 180.12411748 99.60234958 178.75390625 104.46875 C171.73492905 123.43149495 160.42066218 139.80387574 143.625 151.375 C142.965 151.375 142.305 151.375 141.625 151.375 C142.2540625 152.47714844 142.883125 153.57929688 143.53125 154.71484375 C155.83881894 176.44886965 164.48202741 197.38353163 169.546875 221.90234375 C169.73306396 222.79904785 169.91925293 223.69575195 170.11108398 224.61962891 C170.46521167 226.51829166 170.75816296 228.42904069 171.00024414 230.34521484 C171.77809044 236.35478381 171.77809044 236.35478381 175.27734375 241.171875 C176.90349609 242.13867188 176.90349609 242.13867188 178.5625 243.125 C179.14443115 243.48368164 179.7263623 243.84236328 180.32592773 244.21191406 C181.5133166 244.9414696 182.70910299 245.65754263 183.91308594 246.359375 C186.40977893 247.84058476 188.7834292 249.49892295 191.1875 251.125 C202.01361974 257.93089399 212.03686008 260.53823111 224.703125 260.71679688 C229.77561592 260.92492389 232.71244881 262.17858541 236.625 265.375 C238.81950262 268.66675393 238.94724321 269.8987543 239 273.75 C239.02835938 274.68585938 239.05671875 275.62171875 239.0859375 276.5859375 C238.47921305 280.25713459 237.24940658 281.75490988 234.625 284.375 C225.96455394 289.87061287 216.55299634 293.01662539 206.625 295.375 C205.53131104 295.64195679 205.53131104 295.64195679 204.41552734 295.91430664 C200.90547595 296.49378757 197.46335294 296.49894647 193.91796875 296.47265625 C192.82987663 296.47053383 192.82987663 296.47053383 191.71980286 296.46836853 C189.4173255 296.46279931 187.11494765 296.45025261 184.8125 296.4375 C183.24544412 296.43248102 181.6783867 296.42791881 180.11132812 296.42382812 C176.28251411 296.41283998 172.45377389 296.39559673 168.625 296.375 C168.39949463 297.20354492 168.39949463 297.20354492 168.16943359 298.04882812 C161.64441824 321.86044879 153.50882779 350.46506589 135.54541016 368.45800781 C131.00170949 373.27650926 131.00170949 373.27650926 129.3840332 379.51733398 C129.81939708 383.01697986 130.51977782 386.32911128 131.375 389.75 C131.61605469 390.89210938 131.85710937 392.03421875 132.10546875 393.2109375 C135.49953556 408.6864753 139.99980432 420.6869544 151.92578125 431.48828125 C155.03230225 434.93759077 155.63547849 437.7148552 155.5625 442.3125 C154.85565992 446.86386054 152.84211484 449.15788516 149.625 452.375 C144.95667162 454.70916419 139.39765042 453.87411748 134.53125 452.50390625 C115.56850505 445.48492905 99.19612426 434.17066218 87.625 417.375 C87.625 416.715 87.625 416.055 87.625 415.375 C87.10067383 415.66745605 86.57634766 415.95991211 86.03613281 416.26123047 C83.64958918 417.59172063 81.26230292 418.92087276 78.875 420.25 C77.6375 420.94029297 77.6375 420.94029297 76.375 421.64453125 C75.57578125 422.08925781 74.7765625 422.53398437 73.953125 422.9921875 C73.2199707 423.40065918 72.48681641 423.80913086 71.73144531 424.22998047 C66.50632945 427.07024396 63.62694373 427.85134474 57.625 427.375 C54.88616645 425.78470955 54.67532301 424.54034703 53.75 421.5 C53.59117631 417.52940784 54.15928717 416.49761944 56.625 413.375 C59.55560996 411.34930089 62.65727733 409.70965801 65.8125 408.0625 C67.0799707 407.3809082 67.0799707 407.3809082 68.37304688 406.68554688 C70.45109214 405.57021185 72.53479485 404.46732537 74.625 403.375 C74.9748124 400.38236529 74.9748124 400.38236529 73.15625 398.875 C65.56538826 393.26944056 57.24060597 389.459228 47.625 390.375 C44.94824414 391.43776468 42.39147137 392.67587282 39.80078125 393.93359375 C36.19848761 395.56858312 32.56317439 396.87831648 28.8125 398.125 C26.97751953 398.73601562 26.97751953 398.73601562 25.10546875 399.359375 C21.94052567 400.28292741 18.88581686 400.91558936 15.625 401.375 C15.59921875 401.91125 15.5734375 402.4475 15.546875 403 C14.94050027 411.37899625 12.78193456 419.28900347 10.625 427.375 C12.00171875 427.05015625 12.00171875 427.05015625 13.40625 426.71875 C30.2575524 422.89534525 30.2575524 422.89534525 35.125 425.9375 C37.19351618 429.2988388 37.11005011 431.49459911 36.625 435.375 C34.97308224 438.56552708 33.84972927 439.29340514 30.4296875 440.53515625 C29.12336252 440.85108582 27.81307573 441.15091914 26.5 441.4375 C25.44679565 441.69805176 25.44679565 441.69805176 24.37231445 441.96386719 C20.63122778 442.85387208 17.01427932 443.47558503 13.17578125 443.73046875 C6.7773906 444.24319455 1.68206558 444.65487248 -2.6796875 449.76953125 C-5.17130467 453.16124001 -7.28882361 456.73145217 -9.30273438 460.42333984 C-10.68745249 462.94370337 -12.2553987 465.33340961 -13.8125 467.75 C-19.63339674 477.74310019 -21.55491729 486.97046658 -21.71679688 498.453125 C-21.92492389 503.52561592 -23.17858541 506.46244881 -26.375 510.375 C-29.66675393 512.56950262 -30.8987543 512.69724321 -34.75 512.75 C-35.68585938 512.77835938 -36.62171875 512.80671875 -37.5859375 512.8359375 C-41.25713459 512.22921305 -42.75490988 510.99940658 -45.375 508.375 C-50.87061287 499.71455394 -54.01662539 490.30299634 -56.375 480.375 C-56.64195679 479.28131104 -56.64195679 479.28131104 -56.91430664 478.16552734 C-57.49378757 474.65547595 -57.49894647 471.21335294 -57.47265625 467.66796875 C-57.4712413 466.94257401 -57.46982635 466.21717926 -57.46836853 465.46980286 C-57.46279931 463.1673255 -57.45025261 460.86494765 -57.4375 458.5625 C-57.43248102 456.99544412 -57.42791881 455.4283867 -57.42382812 453.86132812 C-57.41283998 450.03251411 -57.39559673 446.20377389 -57.375 442.375 C-58.20354492 442.14949463 -58.20354492 442.14949463 -59.04882812 441.91943359 C-86.01565636 434.52980771 -116.0719594 424.6780406 -136.375 404.375 C-153.58743215 403.42228235 -174.52130679 408.88566528 -187.375 420.375 C-188.63672842 421.63418973 -189.8874644 422.90452572 -191.125 424.1875 C-193.72791636 426.838067 -195.62080572 428.64247429 -199.375 429.375 C-205.90495315 429.27134995 -208.77722493 427.97277507 -213.375 423.375 C-215.70916419 418.70667162 -214.87411748 413.14765042 -213.50390625 408.28125 C-206.48492905 389.31850505 -195.17066218 372.94612426 -178.375 361.375 C-177.715 361.375 -177.055 361.375 -176.375 361.375 C-177.0040625 360.27285156 -177.633125 359.17070312 -178.28125 358.03515625 C-190.58881894 336.30113035 -199.23202741 315.36646837 -204.296875 290.84765625 C-204.48507813 289.94958252 -204.67328125 289.05150879 -204.8671875 288.1262207 C-205.375 285.375 -205.375 285.375 -205.6953125 282.44213867 C-206.29045843 277.54086399 -206.73316081 274.27572809 -210.71875 271.10546875 C-212.08179287 270.22228441 -213.46878322 269.37518372 -214.875 268.5625 C-215.96095459 267.88078735 -215.96095459 267.88078735 -217.06884766 267.18530273 C-218.50548352 266.28944827 -219.95147974 265.40839833 -221.40722656 264.54394531 C-223.06093524 263.5615685 -224.68654831 262.53211162 -226.3046875 261.4921875 C-236.98361524 254.70270948 -246.87115455 252.21058053 -259.453125 252.03320312 C-264.52561592 251.82507611 -267.46244881 250.57141459 -271.375 247.375 C-273.56950262 244.08324607 -273.69724321 242.8512457 -273.75 239 C-273.77835937 238.06414062 -273.80671875 237.12828125 -273.8359375 236.1640625 C-273.22921305 232.49286541 -271.99940658 230.99509012 -269.375 228.375 C-260.71455394 222.87938713 -251.30299634 219.73337461 -241.375 217.375 C-240.28131104 217.10804321 -240.28131104 217.10804321 -239.16552734 216.83569336 C-235.65547595 216.25621243 -232.21335294 216.25105353 -228.66796875 216.27734375 C-227.57987663 216.27946617 -227.57987663 216.27946617 -226.46980286 216.28163147 C-224.1673255 216.28720069 -221.86494765 216.29974739 -219.5625 216.3125 C-217.99544412 216.31751898 -216.4283867 216.32208119 -214.86132812 216.32617188 C-211.03251411 216.33716002 -207.20377389 216.35440327 -203.375 216.375 C-203.22466309 215.82263672 -203.07432617 215.27027344 -202.91943359 214.70117188 C-196.39441824 190.88955121 -188.25882779 162.28493411 -170.29541016 144.29199219 C-165.75170949 139.47349074 -165.75170949 139.47349074 -164.1340332 133.23266602 C-164.56939708 129.73302014 -165.26977782 126.42088872 -166.125 123 C-166.36605469 121.85789062 -166.60710937 120.71578125 -166.85546875 119.5390625 C-170.24953556 104.0635247 -174.74980432 92.0630456 -186.67578125 81.26171875 C-189.78230225 77.81240923 -190.38547849 75.0351448 -190.3125 70.4375 C-189.60565992 65.88613946 -187.59211484 63.59211484 -184.375 60.375 C-179.70667162 58.04083581 -174.14765042 58.87588252 -169.28125 60.24609375 C-150.31850505 67.26507095 -133.94612426 78.57933782 -122.375 95.375 C-122.375 96.035 -122.375 96.695 -122.375 97.375 C-121.27285156 96.7459375 -120.17070312 96.116875 -119.03515625 95.46875 C-97.30113035 83.16118106 -76.36646837 74.51797259 -51.84765625 69.453125 C-50.95095215 69.26693604 -50.05424805 69.08074707 -49.13037109 68.88891602 C-47.23170834 68.53478833 -45.32095931 68.24183704 -43.40478516 67.99975586 C-37.39521619 67.22190956 -37.39521619 67.22190956 -32.578125 63.72265625 C-31.93359375 62.63855469 -31.2890625 61.55445313 -30.625 60.4375 C-30.26631836 59.85556885 -29.90763672 59.2736377 -29.53808594 58.67407227 C-28.8085304 57.4866834 -28.09245737 56.29089701 -27.390625 55.08691406 C-25.90941524 52.59022107 -24.25107705 50.2165708 -22.625 47.8125 C-15.81910601 36.98638026 -13.21176889 26.96313992 -13.03320312 14.296875 C-12.82507611 9.22438408 -11.57141459 6.28755119 -8.375 2.375 C-5.08324607 0.18049738 -3.8512457 0.05275679 0 0 Z M2.625 27.375 C2.41746094 28.30699219 2.20992188 29.23898438 1.99609375 30.19921875 C-1.26602828 43.69812541 -7.26544884 53.92028554 -15.3125 65.125 C-24.18305888 77.49140323 -33.73536178 92.63169486 -33.375 108.375 C-32.07949219 108.36339844 -30.78398437 108.35179688 -29.44921875 108.33984375 C-17.38587293 108.26676716 -5.4133209 108.60454746 6.625 109.375 C6.315625 108.1375 6.00625 106.9 5.6875 105.625 C2.94950426 92.9334541 4.18923513 81.48529779 5.93652344 68.80102539 C7.876656 54.5057196 8.23142774 41.31016818 3.625 27.375 C3.295 27.375 2.965 27.375 2.625 27.375 Z M-164.375 80.375 C-163.84390625 81.344375 -163.3128125 82.31375 -162.765625 83.3125 C-156.70573543 94.67676417 -153.57422557 105.76798296 -151.2734375 118.37890625 C-148.16936513 135.17861485 -143.82029584 148.98216824 -134.375 163.375 C-130.65658486 160.33955907 -127.30060621 157.39563036 -124.25 153.6875 C-120.10621954 148.78686466 -115.20193488 144.85855413 -110.265625 140.79296875 C-108.18197743 139.05002572 -106.23427228 137.34556675 -104.375 135.375 C-105.08785156 134.93929687 -105.80070312 134.50359375 -106.53515625 134.0546875 C-107.49292969 133.45914063 -108.45070312 132.86359375 -109.4375 132.25 C-110.84708984 131.37988281 -110.84708984 131.37988281 -112.28515625 130.4921875 C-119.56941091 125.50095359 -124.48828662 119.91416828 -129.625 112.75 C-143.71134092 92.25942114 -143.71134092 92.25942114 -164.375 80.375 Z M-109.375 108.375 C-110.035 109.365 -110.695 110.355 -111.375 111.375 C-104.21927069 118.49075317 -96.37114639 122.51832901 -86.3125 123.75 C-81.72046812 123.31266363 -78.65930688 121.81277804 -74.55078125 119.8125 C-67.86334244 116.78546742 -60.35029752 113.94425502 -53.1015625 112.90625 C-50.24274456 111.66382956 -50.24274456 111.66382956 -49.45532227 109.23706055 C-48.68104376 106.35926894 -48.09574661 103.49442082 -47.5625 100.5625 C-47.35947266 99.56412109 -47.15644531 98.56574219 -46.94726562 97.53710938 C-46.39884867 94.82036398 -45.88385155 92.09937298 -45.375 89.375 C-45.0439928 87.70786979 -44.71135641 86.0410592 -44.375 84.375 C-65.23418522 84.375 -92.42075171 96.98808965 -109.375 108.375 Z M153.5625 112.0625 C142.74739047 118.5242625 130.72722962 120.63770676 118.5 122.875 C103.96986862 125.54346178 86.28738867 129.21528023 75.625 140.375 C76.05208252 140.7560791 76.47916504 141.1371582 76.91918945 141.52978516 C86.52023247 150.15539004 95.02935995 158.93099493 102.625 169.375 C105.66735566 166.53966854 107.70275739 163.31064212 109.9296875 159.82421875 C114.55703513 153.1390875 119.61671276 148.91677713 126.1875 144.1875 C146.71033961 130.07055332 146.71033961 130.07055332 158.625 109.375 C156.74863349 109.375 155.06989658 111.06344083 153.5625 112.0625 Z M-109.375 160.375 C-110.19484375 161.11234375 -111.0146875 161.8496875 -111.859375 162.609375 C-134.98479337 184.42271289 -149.3001354 217.73659419 -150.375 249.375 C-150.41496094 250.42300781 -150.45492187 251.47101563 -150.49609375 252.55078125 C-151.19438588 288.82089614 -137.81036512 321.86002934 -113.375 348.375 C-112.63765625 349.19484375 -111.9003125 350.0146875 -111.140625 350.859375 C-89.32728711 373.98479337 -56.01340581 388.3001354 -24.375 389.375 C-23.32699219 389.41496094 -22.27898437 389.45492188 -21.19921875 389.49609375 C15.07089614 390.19438588 48.11002934 376.81036512 74.625 352.375 C75.44484375 351.63765625 76.2646875 350.9003125 77.109375 350.140625 C100.23479337 328.32728711 114.5501354 295.01340581 115.625 263.375 C115.66496094 262.32699219 115.70492188 261.27898437 115.74609375 260.19921875 C116.44438588 223.92910386 103.06036512 190.88997066 78.625 164.375 C77.88765625 163.55515625 77.1503125 162.7353125 76.390625 161.890625 C54.57728711 138.76520663 21.26340581 124.4498646 -10.375 123.375 C-11.42300781 123.33503906 -12.47101563 123.29507813 -13.55078125 123.25390625 C-49.82089614 122.55561412 -82.86002934 135.93963488 -109.375 160.375 Z M-158.375 154.375 C-172.64902551 172.7786178 -184.59081966 197.06131407 -187.375 220.375 C-178.54463668 220.22275236 -171.90045778 219.08317005 -164.375 214.375 C-163.37210938 213.84390625 -162.36921875 213.3128125 -161.3359375 212.765625 C-157.3332084 209.5338701 -156.1875989 206.17475657 -154.4375 201.4375 C-151.618058 194.20465833 -148.5028748 187.66454742 -144.4296875 181.0390625 C-143.10234638 178.43221374 -143.10234638 178.43221374 -143.98828125 175.8203125 C-145.42298536 173.29038357 -146.96199394 170.96648495 -148.6875 168.625 C-151.96898422 164.05289018 -154.76426558 159.35584816 -157.375 154.375 C-157.705 154.375 -158.035 154.375 -158.375 154.375 Z M127.625 162.375 C120.50924683 169.53072931 116.48167099 177.37885361 115.25 187.4375 C115.68733637 192.02953188 117.18722196 195.09069312 119.1875 199.19921875 C122.21453258 205.88665756 125.05574498 213.39970248 126.09375 220.6484375 C127.33617044 223.50725544 127.33617044 223.50725544 129.76293945 224.29467773 C132.64073106 225.06895624 135.50557918 225.65425339 138.4375 226.1875 C139.43587891 226.39052734 140.43425781 226.59355469 141.46289062 226.80273438 C144.17963602 227.35115133 146.90062702 227.86614845 149.625 228.375 C151.29213021 228.7060072 152.9589408 229.03864359 154.625 229.375 C150.87190976 208.4126179 144.16450099 189.75129595 134.3125 170.875 C133.98725342 170.24577637 133.66200684 169.61655273 133.3269043 168.96826172 C131.65838141 165.86344869 130.62281596 164.37354398 127.625 162.375 Z M-233.375 232.25 C-234.550625 232.41242188 -235.72625 232.57484375 -236.9375 232.7421875 C-240.23141265 233.34856687 -243.2307828 234.23426266 -246.375 235.375 C-243.12086691 237.16281288 -239.88384325 238.13561208 -236.3125 239.125 C-226.82033321 242.04405129 -219.35610627 246.62972683 -211.33764648 252.3918457 C-198.1248151 261.87980303 -182.32487837 272.76298005 -165.375 272.375 C-165.38660156 271.07949219 -165.39820313 269.78398437 -165.41015625 268.44921875 C-165.48323284 256.38587293 -165.14545254 244.4133209 -164.375 232.375 C-165.426875 232.684375 -166.47875 232.99375 -167.5625 233.3125 C-179.65724028 236.24811657 -191.16364013 235.02047546 -203.3125 233.4375 C-205.65952961 233.14185501 -208.00695551 232.84988829 -210.35487366 232.56138611 C-211.80131296 232.38261427 -213.24719981 232.19928887 -214.69236755 232.01051331 C-221.1197397 231.19711792 -226.97127496 231.33718832 -233.375 232.25 Z M130.625 240.375 C130.63660156 241.67050781 130.64820313 242.96601563 130.66015625 244.30078125 C130.73323284 256.36412707 130.39545254 268.3366791 129.625 280.375 C130.676875 280.065625 131.72875 279.75625 132.8125 279.4375 C145.52701167 276.34980902 157.52301849 277.926925 170.25390625 279.68652344 C184.53089105 281.62943485 197.70692357 281.97577786 211.625 277.375 C208.37086691 275.58718712 205.13384325 274.61438792 201.5625 273.625 C192.07033321 270.70594871 184.60610627 266.12027317 176.58764648 260.3581543 C163.3748151 250.87019697 147.57487837 239.98701995 130.625 240.375 Z M-189.375 283.375 C-185.14011047 306.05345619 -178.39724372 328.98586401 -165.375 348.375 C-163.89 349.365 -163.89 349.365 -162.375 350.375 C-155.25924683 343.21927069 -151.23167099 335.37114639 -150 325.3125 C-150.43733637 320.72046812 -151.93722196 317.65930688 -153.9375 313.55078125 C-156.96453258 306.86334244 -159.80574498 299.35029752 -160.84375 292.1015625 C-162.08617044 289.24274456 -162.08617044 289.24274456 -164.51293945 288.45532227 C-167.39073106 287.68104376 -170.25557918 287.09574661 -173.1875 286.5625 C-174.18587891 286.35947266 -175.18425781 286.15644531 -176.21289062 285.94726562 C-178.92963602 285.39884867 -181.65062702 284.88385155 -184.375 284.375 C-186.04213021 284.0439928 -187.7089408 283.71135641 -189.375 283.375 Z M129.625 298.375 C128.63628906 298.89449219 127.64757812 299.41398437 126.62890625 299.94921875 C122.59784931 303.20446759 121.44972784 306.5424122 119.6875 311.3125 C116.868058 318.54534167 113.7528748 325.08545258 109.6796875 331.7109375 C108.35234638 334.31778626 108.35234638 334.31778626 109.23828125 336.9296875 C110.67298536 339.45961643 112.21199394 341.78351505 113.9375 344.125 C117.21898422 348.69710982 120.01426558 353.39415184 122.625 358.375 C138.77002377 343.56936161 150.11441877 313.75725365 152.625 292.375 C144.03686552 292.01716106 137.04897802 294.05610785 129.625 298.375 Z M-138.375 343.375 C-138.81070313 344.08785156 -139.24640625 344.80070312 -139.6953125 345.53515625 C-140.29085937 346.49292969 -140.88640625 347.45070313 -141.5 348.4375 C-142.08007812 349.37722656 -142.66015625 350.31695312 -143.2578125 351.28515625 C-148.24904641 358.56941091 -153.83583172 363.48828662 -161 368.625 C-181.49057886 382.71134092 -181.49057886 382.71134092 -193.375 403.375 C-192.405625 402.84390625 -191.43625 402.3128125 -190.4375 401.765625 C-179.07323583 395.70573543 -167.98201704 392.57422557 -155.37109375 390.2734375 C-138.57138515 387.16936513 -124.76783176 382.82029584 -110.375 373.375 C-113.41044093 369.65658486 -116.35436964 366.30060621 -120.0625 363.25 C-124.96313534 359.10621954 -128.89144587 354.20193488 -132.95703125 349.265625 C-134.69997428 347.18197743 -136.40443325 345.23427228 -138.375 343.375 Z M98.625 349.375 C97.63444412 350.38576741 96.67896992 351.43094662 95.73828125 352.48828125 C87.63853825 361.44684176 79.39421096 369.2701193 69.625 376.375 C72.46033146 379.41735566 75.68935788 381.45275739 79.17578125 383.6796875 C85.8609125 388.30703513 90.08322287 393.36671276 94.8125 399.9375 C108.92944668 420.46033961 108.92944668 420.46033961 129.625 432.375 C129.09390625 431.405625 128.5628125 430.43625 128.015625 429.4375 C121.95573543 418.07323583 118.82422557 406.98201704 116.5234375 394.37109375 C113.49428314 377.97685274 109.49630147 363.15507186 99.625 349.375 C99.295 349.375 98.965 349.375 98.625 349.375 Z M-103.4375 386.5625 C-108.5748576 390.2028034 -113.76697768 393.49128826 -119.375 396.375 C-103.95668171 412.9680473 -75.0534476 422.66172594 -53.375 426.375 C-53.52724764 417.54463668 -54.66682995 410.90045778 -59.375 403.375 C-59.90609375 402.37210937 -60.4371875 401.36921875 -60.984375 400.3359375 C-64.21662893 396.33259031 -67.57527808 395.18903098 -72.3125 393.4375 C-79.54107932 390.59999742 -86.25171948 387.47847729 -93.00390625 383.625 C-97.57025546 381.21769894 -99.6810858 383.85359361 -103.4375 386.5625 Z M-41.375 403.375 C-41.065625 404.426875 -40.75625 405.47875 -40.4375 406.5625 C-37.34980902 419.27701167 -38.926925 431.27301849 -40.68652344 444.00390625 C-42.62943485 458.28089105 -42.97577786 471.45692357 -38.375 485.375 C-36.58718712 482.12086691 -35.61438792 478.88384325 -34.625 475.3125 C-31.70594871 465.82033321 -27.12027317 458.35610627 -21.3581543 450.33764648 C-11.87019697 437.1248151 -0.98701995 421.32487837 -1.375 404.375 C-2.67050781 404.38660156 -3.96601563 404.39820313 -5.30078125 404.41015625 C-17.36412707 404.48323284 -29.3366791 404.14545254 -41.375 403.375 Z " fill="#000000" transform="translate(273.375,-0.375)"/>
<path d="M0 0 C1.11503906 0.36222656 2.23007812 0.72445312 3.37890625 1.09765625 C16.79981033 5.86199645 28.32929281 12.59199316 39 22 C39.6084375 22.46535156 40.216875 22.93070313 40.84375 23.41015625 C58.68752685 37.1717483 71.42866703 63.3201499 74.68652344 85.11279297 C76.49455897 101.76530714 76.38062703 119.03453291 71 135 C70.63777344 136.11503906 70.27554688 137.23007812 69.90234375 138.37890625 C65.13800355 151.79981033 58.40800684 163.32929281 49 174 C48.53464844 174.6084375 48.06929687 175.216875 47.58984375 175.84375 C33.80413679 193.71879511 7.66642107 206.39933257 -14.15136719 209.69091797 C-43.51419529 212.87684018 -73.72471719 207.61364851 -97.375 189 C-98.92544541 187.67688514 -100.46753284 186.34389668 -102 185 C-102.73347656 184.40960938 -103.46695313 183.81921875 -104.22265625 183.2109375 C-122.1283036 168.36851377 -134.54680947 145.23209788 -138.0625 122.3125 C-138.23791769 119.06179085 -137.97726452 117.95057505 -136.5625 114.875 C-133.50626075 112.63872738 -131.69533376 112.40811199 -128 112.3359375 C-124.80132454 113.39799771 -123.78633907 115.18393241 -122 118 C-121.03176598 120.72261626 -120.40064798 123.49963403 -119.75 126.3125 C-113.86526981 149.13614969 -99.8354652 168.46166016 -79.625 180.8125 C-58.22129913 193.35884424 -33.07260675 197.27362042 -9.00390625 190.99609375 C15.73108773 184.05126852 35.11809435 169.16460146 47.99072266 146.86621094 C59.39988769 125.77001899 61.88567674 100.9805032 55.42578125 77.97265625 C48.05118202 53.50026008 32.55406041 34.1976041 10 22 C-12.40877987 10.95841386 -37.34300663 9.14333999 -61.0859375 16.84375 C-84.16129624 24.80542348 -103.11881543 40.76634177 -113.91113281 62.86572266 C-117.46061461 70.71593183 -119.95682716 78.82730863 -122.04296875 87.171875 C-123.00198722 90.00587244 -123.5684731 91.3014214 -126 93 C-132.81695221 93.86564472 -132.81695221 93.86564472 -136.5625 91.125 C-140.36640127 82.85564942 -135.76276016 72.82497573 -132.86328125 64.7421875 C-128.17534125 52.39803863 -121.78588544 41.83343332 -113 32 C-112.5359375 31.39414063 -112.071875 30.78828125 -111.59375 30.1640625 C-97.84861473 12.31214901 -71.67179709 -0.4298709 -49.88720703 -3.68652344 C-33.23469286 -5.49455897 -15.96546709 -5.38062703 0 0 Z " fill="#000000" transform="translate(288,153)"/>
<path d="M0 0 C2.1504008 2.81188853 3.54333334 5.91062223 5 9.125 C9.51839202 18.82448154 14.34678488 26.11481395 23.9375 31.25 C24.54360107 31.58080566 25.14970215 31.91161133 25.77416992 32.25244141 C29.07957537 34.04270375 32.43379394 35.7283382 35.8125 37.375 C39 39 39 39 40 41 C40.55988858 46.78551532 40.55988858 46.78551532 40 49 C36.2826156 52.69597912 31.87537713 54.59285345 27.1875 56.75 C13.53009106 63.3486622 7.39416047 73.46354153 1.17578125 86.96875 C0 89 0 89 -3 91 C-5.875 91.4375 -5.875 91.4375 -9 91 C-13.4731846 87.28304756 -15.58014443 83.28313847 -17.9375 78.125 C-24.57289665 64.45466915 -33.21711342 59.18130272 -46.75 52.6875 C-50 51 -50 51 -52 48 C-52.46562837 44.4301825 -52.39012405 42.62182209 -50.4609375 39.546875 C-47.37445242 36.35260791 -44.25691469 34.92101175 -40.25 33.125 C-27.1579238 26.86766047 -20.5423963 18.66095472 -14.375 5.5 C-12.95303809 2.60067506 -12.00092466 1.00087599 -9.625 -1.25 C-5.6848343 -2.37576163 -3.73865619 -1.65717737 0 0 Z M-6 25 C-7.2116222 26.50168636 -8.39346543 28.02742721 -9.5625 29.5625 C-14.07146821 35.27980681 -18.94263957 39.96175971 -25 44 C-25 44.66 -25 45.32 -25 46 C-23.31836505 47.55399216 -23.31836505 47.55399216 -21.1875 49.0625 C-20.47980469 49.58972656 -19.77210938 50.11695313 -19.04296875 50.66015625 C-16.94557289 52.16027402 -16.94557289 52.16027402 -14 53 C-13.29325371 54.31252882 -12.63815344 55.65278717 -12 57 C-10.3897024 59.37467937 -8.70055366 61.68932404 -7 64 C-3.60209859 62.8673662 -3.28555728 62.29216307 -1.375 59.4375 C1.61319177 55.27350345 5.05780488 52.07513332 8.94921875 48.76171875 C10.7203768 47.24020964 12.37602593 45.6755288 14 44 C13.29875 43.55011719 12.5975 43.10023438 11.875 42.63671875 C5.32174924 38.19368597 0.84976787 33.71720235 -3.5390625 27.125 C-4.02117187 26.42375 -4.50328125 25.7225 -5 25 C-5.33 25 -5.66 25 -6 25 Z " fill="#000000" transform="translate(472,334)"/>
<path d="M0 0 C3.05124411 0.67933359 4.10985439 2.04656095 6.0703125 4.4609375 C7.61084216 7.35244619 8.99314237 10.25647531 10.33789062 13.24023438 C14.59697503 22.27495117 22.63905479 27.45040211 31.4453125 31.5859375 C34.53206591 33.09542769 36.66085118 34.17219443 38.0703125 37.4609375 C38.2578125 40.8984375 38.2578125 40.8984375 37.0703125 44.4609375 C34.11714737 47.12171004 30.61861728 48.73600867 27.04296875 50.41015625 C16.76485097 55.23374816 12.02633031 61.4905545 7.21508789 71.59448242 C6.86309326 72.31998291 6.51109863 73.0454834 6.1484375 73.79296875 C5.84325195 74.45014893 5.53806641 75.1073291 5.22363281 75.78442383 C3.75964267 77.9125399 2.47750734 78.57463139 0.0703125 79.4609375 C-2.8382243 79.28286382 -5.02215199 79.14706354 -7.38671875 77.359375 C-9.17163011 75.16325621 -10.34573986 72.80707062 -11.57861328 70.26953125 C-17.49108837 58.17838659 -25.04626792 52.43483963 -37.0859375 46.90625 C-39.9296875 45.4609375 -39.9296875 45.4609375 -40.9296875 43.4609375 C-41.48957608 37.67542218 -41.48957608 37.67542218 -40.9296875 35.4609375 C-37.64989498 32.30019371 -34.09688484 30.43051052 -29.9921875 28.5234375 C-19.34597957 23.27200323 -14.85656126 16.48724748 -9.6796875 5.9609375 C-7.04439298 0.69034845 -5.80464549 0.24277985 0 0 Z M-2.9296875 26.4609375 C-4.09698043 28.16185005 -5.2631981 29.86351898 -6.421875 31.5703125 C-8.82323429 34.58134331 -11.70997475 36.37759396 -14.9296875 38.4609375 C-13.51112502 41.79529055 -11.83037187 43.65659576 -9.0546875 45.9609375 C-6.21883838 48.35851903 -3.50460512 50.77873165 -0.9296875 53.4609375 C-0.57777344 52.94144531 -0.22585937 52.42195313 0.13671875 51.88671875 C3.63053512 46.9515891 6.97809684 43.71995552 12.0703125 40.4609375 C11.4103125 39.8215625 10.7503125 39.1821875 10.0703125 38.5234375 C6.79447001 35.27575411 3.83224732 31.76125499 0.83984375 28.25390625 C0.25589844 27.66222656 -0.32804687 27.07054688 -0.9296875 26.4609375 C-1.5896875 26.4609375 -2.2496875 26.4609375 -2.9296875 26.4609375 Z " fill="#000000" transform="translate(40.9296875,93.5390625)"/>
<path d="M0 0 C3.02320908 0.67309183 4.12560933 2.08451815 6.0703125 4.4609375 C7.07122686 6.38763056 8.00594363 8.34971579 8.8828125 10.3359375 C13.23958074 19.26622862 18.85677145 22.63748285 27.6171875 26.96875 C30.21914544 28.55146964 31.5453669 29.83945912 33.0703125 32.4609375 C32.99785614 35.93884291 32.63166583 37.79327707 30.37890625 40.47265625 C27.78448525 42.70710682 25.32254845 43.89283842 22.1953125 45.2734375 C12.87470894 49.83193657 9.71265251 55.5430138 5.5625 64.88671875 C3.94658165 67.67438941 3.10473673 68.50641959 0.0703125 69.4609375 C-5.05073186 69.14740417 -5.05073186 69.14740417 -7.41015625 67.3046875 C-9.47949926 64.79381372 -10.74060233 62.06359368 -12.1796875 59.1484375 C-17.26972491 49.60329458 -22.73215539 46.24441386 -32.453125 41.7578125 C-34.9296875 40.4609375 -34.9296875 40.4609375 -35.9296875 38.4609375 C-36.2129876 35.53350318 -36.40223162 33.30758881 -35.9296875 30.4609375 C-33.73581818 27.88881485 -31.34000462 26.67233188 -28.359375 25.13671875 C-18.4342987 19.98487397 -14.30170219 14.7074715 -9.2265625 4.81640625 C-6.77284395 0.35980297 -4.96060085 0.2074776 0 0 Z M-1.9296875 25.4609375 C-4.8996875 28.4309375 -7.8696875 31.4009375 -10.9296875 34.4609375 C-10.1665625 35.2034375 -9.4034375 35.9459375 -8.6171875 36.7109375 C-6.4903173 38.8872698 -4.6736919 40.98261546 -2.9296875 43.4609375 C0.79102073 42.22070142 1.69552341 40.50363602 4.0703125 37.4609375 C5.0603125 36.8009375 6.0503125 36.1409375 7.0703125 35.4609375 C7.0703125 34.8009375 7.0703125 34.1409375 7.0703125 33.4609375 C5.5804595 31.95062735 5.5804595 31.95062735 3.6953125 30.4609375 C1.72866446 28.84229714 -0.12642946 27.26419554 -1.9296875 25.4609375 Z " fill="#000000" transform="translate(154.9296875,-0.4609375)"/>
</svg>
