<?xml version="1.0" encoding="UTF-8"?>
<svg version="1.1" xmlns="http://www.w3.org/2000/svg" width="320" height="319">
<path d="M0 0 C4.37412668 -0.09991855 8.74762437 -0.17195484 13.12255859 -0.21972656 C14.60640048 -0.23966981 16.09016555 -0.2668349 17.57373047 -0.30175781 C29.56655664 -0.57671135 39.17213949 0.52881045 48.2421875 9.06640625 C54.1493579 15.56429368 56.11157562 21.07122288 56.16062927 29.77819824 C56.16571709 30.45918595 56.17080491 31.14017365 56.17604691 31.84179735 C56.19173893 34.12304523 56.20028796 36.4042615 56.20874023 38.68554688 C56.21828158 40.32182006 56.22817287 41.95809124 56.23838806 43.59436035 C56.26974948 48.96913262 56.29004152 54.34392023 56.30859375 59.71875 C56.31189107 60.63437525 56.31518839 61.5500005 56.31858563 62.49337196 C56.34937238 71.13564026 56.37606901 79.77791214 56.39300442 88.42021942 C56.41488761 99.45652885 56.45681083 110.49235037 56.52644199 121.52846479 C56.57378698 129.29766799 56.59795218 137.06674006 56.6052013 144.83608294 C56.61014286 149.47115304 56.62507994 154.10567296 56.6649456 158.74058533 C56.70201012 163.10744707 56.7101574 167.47344897 56.69693947 171.84043884 C56.69699309 173.43509372 56.707157 175.02978863 56.7286911 176.6242981 C56.8654171 187.32864967 55.58359361 196.40661673 48.37650204 204.91710663 C46.6699935 206.51640669 44.9835201 207.76450214 43 209 C42.13165637 209.54441522 42.13165637 209.54441522 41.24577045 210.09982872 C33.75248821 214.01801847 25.88413639 213.57813535 17.6550293 213.54931641 C16.00815919 213.55802277 14.36129716 213.5683931 12.71444702 213.58029175 C8.26174481 213.60696695 3.80938322 213.60824081 -0.64338326 213.60316515 C-4.37072362 213.60101822 -8.09799611 213.61081175 -11.82532185 213.62037599 C-20.62505511 213.64253083 -29.42461761 213.64346167 -38.22436523 213.63134766 C-47.27850243 213.61927432 -56.33201753 213.64388156 -65.38604861 213.68648779 C-73.18087303 213.721809 -80.97550024 213.73370844 -88.77040166 213.72721231 C-93.41651191 213.72359985 -98.06217851 213.72872461 -102.70821571 213.75664139 C-107.08097099 213.78193506 -111.45276251 213.777784 -115.8255043 213.75181961 C-117.42174428 213.74711806 -119.01805353 213.75244925 -120.61421394 213.76906586 C-131.3184309 213.87238447 -140.57436964 212.61809553 -148.98987293 205.26020241 C-150.57892385 203.60530577 -151.78481647 201.94398807 -153 200 C-153.36641602 199.43522949 -153.73283203 198.87045898 -154.11035156 198.28857422 C-158.28124015 190.5101635 -157.43781793 181.99118943 -157.25 173.4375 C-157.22990197 171.84051722 -157.21165705 170.24350998 -157.1953125 168.64648438 C-157.15158265 164.76371119 -157.0827407 160.88212978 -157 157 C-156.32377153 156.99761165 -155.64754307 156.99522329 -154.95082283 156.99276257 C-138.46543431 156.93352061 -121.98020929 156.85791205 -105.49498177 156.76428509 C-97.52270966 156.71939804 -89.55048152 156.67996719 -81.578125 156.65356445 C-74.62608897 156.63052675 -67.67419289 156.59706473 -60.72226799 156.55129844 C-57.04427727 156.52744366 -53.3664245 156.50866435 -49.68835831 156.50238609 C-45.57345236 156.49516623 -41.45902394 156.46466452 -37.34423828 156.43237305 C-35.53269508 156.43452568 -35.53269508 156.43452568 -33.68455505 156.4367218 C-23.64399834 156.32559297 -15.11824076 155.08379164 -7.69140625 147.95703125 C-0.20699782 139.29724229 -0.84675103 129.03509472 -0.79467773 118.17993164 C-0.78477814 116.90119171 -0.77487854 115.62245178 -0.76467896 114.30496216 C-0.73777393 110.81583814 -0.71668694 107.32670079 -0.69667697 103.83753133 C-0.67472796 100.18466755 -0.64738311 96.53184417 -0.62062073 92.87901306 C-0.57081387 85.96961313 -0.52583078 79.06019062 -0.48259836 72.15074676 C-0.43312301 64.2813 -0.37824325 56.41189379 -0.32291877 48.54248631 C-0.20928318 32.36169498 -0.10240443 16.18086639 0 0 Z " fill="#FFFFFF" transform="translate(262,104)"/>
<path d="M0 0 C1.64350343 -0.00378813 3.28700367 -0.00929222 4.93049622 -0.01637268 C9.37264457 -0.03027917 13.81440351 -0.01919198 18.25653005 -0.00266147 C22.91593141 0.01123827 27.57531131 0.00472345 32.23472595 0.00120544 C40.05661255 -0.00149253 47.87834532 0.01194425 55.70019531 0.03515625 C64.73152492 0.06177267 73.7625976 0.06350857 82.793953 0.05176789 C91.4987357 0.04097372 100.20342585 0.04718943 108.90820122 0.06132317 C112.60538367 0.06706782 116.30249806 0.0670123 119.99968147 0.06225777 C124.35579405 0.05747121 128.7116267 0.06765892 133.06768608 0.08921242 C134.66236807 0.0947573 136.25707709 0.09526679 137.85176086 0.09025955 C150.38641043 0.05584865 158.09350361 1.23810999 167.47631836 10.08764648 C173.33810949 16.49930475 174.80865208 23.17301167 174.81616211 31.63842773 C174.81711884 32.31847366 174.81807556 32.99851959 174.81906128 33.69917297 C174.81973968 35.13050428 174.81790916 36.56183872 174.8137207 37.99316406 C174.80834267 40.19204527 174.81368983 42.39072452 174.82006836 44.58959961 C174.81940801 45.9808761 174.81812773 47.37215247 174.81616211 48.76342773 C174.81503418 50.0314624 174.81390625 51.29949707 174.81274414 52.60595703 C174.68334961 55.50170898 174.68334961 55.50170898 173.68334961 56.50170898 C171.95964921 56.60144211 170.23184613 56.63079944 168.50526428 56.63301086 C167.38243042 56.63701904 166.25959656 56.64102722 165.10273743 56.64515686 C163.85969345 56.64462814 162.61664948 56.64409943 161.3359375 56.64355469 C159.33899791 56.64888843 157.34205832 56.65422816 155.34511936 56.65979135 C153.19068665 56.66499929 151.03626007 56.66790569 148.88182259 56.67037392 C144.38849663 56.67627881 139.89525013 56.69281726 135.40196228 56.7117157 C133.86363702 56.71805386 132.32531171 56.72437948 130.78698635 56.73069286 C130.01632017 56.73385867 129.24565399 56.73702449 128.45163429 56.74028623 C117.98811572 56.78233982 107.52463251 56.81529944 97.06103516 56.82763672 C90.00826358 56.83603797 82.95568713 56.85861069 75.90301317 56.89699239 C72.17244162 56.91669569 68.44216138 56.92917712 64.7115345 56.9241581 C60.53919134 56.91861401 56.36756776 56.94400997 52.1953125 56.97167969 C50.9704866 56.96507828 49.74566071 56.95847687 48.48371887 56.95167542 C40.2163254 57.04144538 32.96266266 58.18959026 26.28100586 63.36108398 C25.7744043 63.98499023 25.26780273 64.60889648 24.74584961 65.25170898 C24.22120117 65.86530273 23.69655273 66.47889648 23.15600586 67.11108398 C18.38751017 74.85198415 18.2451635 81.90051471 18.2668457 90.78662109 C18.25826035 92.10291504 18.24967499 93.41920898 18.24082947 94.77539062 C18.21762698 98.36374841 18.21236427 101.95193289 18.21017027 105.5403564 C18.2044893 109.29955076 18.18120593 113.05863384 18.15957642 116.81776428 C18.12113981 123.92781769 18.09686305 131.037839 18.07845175 138.14796978 C18.04495904 150.9032281 17.98739537 163.65839092 17.92446005 176.41353422 C17.90293449 180.89074969 17.88768523 185.36793159 17.87762046 189.84518707 C17.87230539 191.95378808 17.86483984 194.0623686 17.85646057 196.17095947 C17.84642418 198.74692086 17.84006047 201.32289997 17.83790588 203.89888 C17.83245255 205.02460419 17.82699921 206.15032837 17.82138062 207.31016541 C17.81882452 208.29438949 17.81626842 209.27861357 17.81363487 210.29266262 C17.68334961 212.50170898 17.68334961 212.50170898 16.68334961 213.50170898 C12.41981465 213.78776501 8.14280453 213.73373127 3.87084961 213.75170898 C2.09677734 213.78264648 2.09677734 213.78264648 0.28686523 213.81420898 C-10.03476865 213.85950414 -20.37724382 213.1156795 -28.56665039 206.23999023 C-35.36874424 199.48344612 -38.54997845 193.21723001 -38.59753418 183.48300171 C-38.60347642 182.80030515 -38.60941867 182.1176086 -38.61554098 181.41422427 C-38.63280788 179.13913608 -38.63592223 176.8642597 -38.63891602 174.58911133 C-38.64818013 172.95254065 -38.6582305 171.31597426 -38.66900635 169.67941284 C-38.69518708 165.241089 -38.70813146 160.80282558 -38.71702766 156.36443663 C-38.72290107 153.58732646 -38.73111299 150.81023258 -38.74003601 148.03313065 C-38.76737051 139.33210657 -38.78671036 130.63112 -38.79443979 121.93005598 C-38.80339262 111.90864867 -38.83845497 101.88778812 -38.89644098 91.86654699 C-38.93977763 84.10578192 -38.95985387 76.34517008 -38.96252203 68.58428538 C-38.96461114 63.95597376 -38.97627461 59.32817663 -39.01216125 54.69999313 C-39.04530187 50.34128504 -39.04934919 45.98347315 -39.03188324 41.62468338 C-39.03035183 40.03326249 -39.03890412 38.44179164 -39.05879974 36.85049438 C-39.18453242 26.15906785 -37.88997124 17.08363859 -30.69321442 8.58447838 C-28.98666736 6.98532618 -27.30005313 5.73725799 -25.31665039 4.50170898 C-24.44781393 3.95646529 -24.44781393 3.95646529 -23.56142521 3.40020657 C-16.07284775 -0.51895762 -8.2222827 -0.0541337 0 0 Z " fill="#FFFFFF" transform="translate(40.316650390625,1.498291015625)"/>
<path d="M0 0 C0.79950073 -0.00189835 1.59900146 -0.00379669 2.42272949 -0.00575256 C5.03127249 -0.00941906 7.63952921 0.00117831 10.24804688 0.01245117 C12.07124804 0.01364468 13.89444983 0.01409577 15.71765137 0.01383972 C19.5201406 0.01539705 23.32253468 0.0236341 27.125 0.03710938 C32.00887829 0.05419517 36.89265323 0.05792056 41.77655792 0.05716419 C45.53219598 0.05743529 49.28781126 0.06290516 53.04344177 0.07016563 C54.8456556 0.07335448 56.64787201 0.07532021 58.4500885 0.07605934 C60.95635442 0.07821516 63.46250802 0.08693991 65.96875 0.09765625 C66.71777588 0.09720306 67.46680176 0.09674988 68.23852539 0.09628296 C73.35231279 0.12843583 73.35231279 0.12843583 74.46679688 1.24291992 C74.59388613 3.8873832 74.65603294 6.50629469 74.67553711 9.15234375 C74.68532089 9.9817749 74.69510468 10.81120605 74.70518494 11.66577148 C74.73523641 14.42714829 74.75656323 17.1884758 74.77539062 19.94995117 C74.78196245 20.89388922 74.78853428 21.83782726 74.79530525 22.81036949 C74.82795761 27.81676102 74.85238175 32.8231309 74.87182617 37.82958984 C74.88956803 41.96076912 74.92426426 46.09125661 74.97436523 50.22216797 C75.03486409 55.21604013 75.06534464 60.20927576 75.07499886 65.20349693 C75.0835133 67.09996624 75.1022313 68.99642042 75.13174248 70.89267921 C75.30613585 82.74681932 75.01046464 92.82415991 66.72288513 102.220047 C58.90014701 109.81479726 48.86151512 111.39466547 38.38183594 111.38818359 C37.59413315 111.39154221 36.80643036 111.39490082 35.99485779 111.39836121 C33.40736287 111.40781318 30.81993295 111.40981081 28.23242188 111.41088867 C26.42974827 111.41410311 24.62707492 111.41746733 22.82440186 111.42097473 C19.05529169 111.42695002 15.28620441 111.42881606 11.51708984 111.42822266 C6.67915066 111.42812063 1.8413569 111.44182142 -2.9965477 111.45899487 C-6.71448446 111.47008605 -10.4323856 111.47214283 -14.15033722 111.47161293 C-15.9349849 111.47279553 -17.71963343 111.47723293 -19.50426483 111.4849453 C-21.99155584 111.4946956 -24.4785246 111.49188799 -26.96582031 111.48583984 C-28.07700981 111.4942691 -28.07700981 111.4942691 -29.21064758 111.50286865 C-34.30488097 111.47124207 -34.30488097 111.47124207 -36.53320312 109.24291992 C-36.7421352 106.65105824 -36.82685829 104.1651413 -36.82373047 101.57128906 C-36.83044769 100.77911987 -36.83716492 99.98695068 -36.84408569 99.17077637 C-36.86314984 96.53981312 -36.86699547 93.9091043 -36.86914062 91.27807617 C-36.87556769 89.44640498 -36.88229598 87.61473482 -36.88931274 85.7830658 C-36.90131002 81.9336408 -36.90499156 78.08430566 -36.90380859 74.23486328 C-36.9036064 69.32577079 -36.9307938 64.41726373 -36.96535301 59.50830936 C-36.98771653 55.71877965 -36.99164309 51.92938804 -36.99058914 48.13979912 C-36.99293531 46.33187296 -37.00170284 44.52394242 -37.01725388 42.71608162 C-37.11650348 29.97417959 -36.80823118 18.68114054 -27.44726562 8.96166992 C-19.35145243 1.69196011 -10.67386065 -0.08184936 0 0 Z " fill="#FFFFFF" transform="translate(140.533203125,103.757080078125)"/>
</svg>
