<?xml version="1.0" encoding="UTF-8"?>
<svg version="1.1" xmlns="http://www.w3.org/2000/svg" width="512" height="512">
<path d="M0 0 C0.9005864 -0.00701431 1.80117279 -0.01402863 2.72904968 -0.02125549 C5.61759506 -0.03865309 8.50593541 -0.04510727 11.39453125 -0.046875 C12.87509003 -0.04788712 12.87509003 -0.04788712 14.38555908 -0.04891968 C28.85428676 -0.03318992 42.98044345 0.32301416 57.20703125 3.203125 C58.12484375 3.38536621 59.04265625 3.56760742 59.98828125 3.75537109 C66.43983382 5.06693842 72.82993243 6.56957016 79.20703125 8.203125 C79.95114258 8.39100586 80.69525391 8.57888672 81.46191406 8.77246094 C131.9158964 21.76221958 181.75621636 54.51874002 213.20703125 96.203125 C213.7179834 96.86473633 214.22893555 97.52634766 214.75537109 98.20800781 C223.60277469 109.68013273 231.33561496 121.45079226 238.20703125 134.203125 C238.56458496 134.85780762 238.92213867 135.51249023 239.29052734 136.18701172 C256.95426474 168.80542789 268.21482659 206.76599238 268.41015625 243.99609375 C268.41717056 244.89668015 268.42418488 245.79726654 268.43141174 246.72514343 C268.44880934 249.61368881 268.45526352 252.50202916 268.45703125 255.390625 C268.45804337 256.87118378 268.45804337 256.87118378 268.45907593 258.38165283 C268.44334617 272.85038051 268.08714209 286.9765372 265.20703125 301.203125 C265.02479004 302.1209375 264.84254883 303.03875 264.65478516 303.984375 C263.34321783 310.43592757 261.84058609 316.82602618 260.20703125 323.203125 C260.01915039 323.94723633 259.83126953 324.69134766 259.63769531 325.45800781 C246.64793667 375.91199015 213.89141623 425.75231011 172.20703125 457.203125 C171.54541992 457.71407715 170.88380859 458.2250293 170.20214844 458.75146484 C158.73002352 467.59886844 146.95936399 475.33170871 134.20703125 482.203125 C133.55234863 482.56067871 132.89766602 482.91823242 132.22314453 483.28662109 C99.60472836 500.95035849 61.64416387 512.21092034 24.4140625 512.40625 C23.5134761 512.41326431 22.61288971 512.42027863 21.68501282 512.42750549 C18.79646744 512.44490309 15.90812709 512.45135727 13.01953125 512.453125 C12.03249207 512.45379974 11.04545288 512.45447449 10.02850342 512.45516968 C-4.44022426 512.43943992 -18.56638095 512.08323584 -32.79296875 509.203125 C-33.71078125 509.02088379 -34.62859375 508.83864258 -35.57421875 508.65087891 C-42.02577132 507.33931158 -48.41586993 505.83667984 -54.79296875 504.203125 C-55.90913574 503.92130371 -55.90913574 503.92130371 -57.04785156 503.63378906 C-107.5018339 490.64403042 -157.34215386 457.88750998 -188.79296875 416.203125 C-189.55939697 415.21070801 -189.55939697 415.21070801 -190.34130859 414.19824219 C-199.18871219 402.72611727 -206.92155246 390.95545774 -213.79296875 378.203125 C-214.15052246 377.54844238 -214.50807617 376.89375977 -214.87646484 376.21923828 C-232.54020224 343.60082211 -243.80076409 305.64025762 -243.99609375 268.41015625 C-244.00310806 267.50956985 -244.01012238 266.60898346 -244.01734924 265.68110657 C-244.03474684 262.79256119 -244.04120102 259.90422084 -244.04296875 257.015625 C-244.04398087 255.53506622 -244.04398087 255.53506622 -244.04501343 254.02459717 C-244.02928367 239.55586949 -243.67307959 225.4297128 -240.79296875 211.203125 C-240.51960693 209.82640625 -240.51960693 209.82640625 -240.24072266 208.421875 C-238.92915533 201.97032243 -237.42652359 195.58022382 -235.79296875 189.203125 C-235.60508789 188.45901367 -235.41720703 187.71490234 -235.22363281 186.94824219 C-222.23387417 136.49425985 -189.47735373 86.65393989 -147.79296875 55.203125 C-147.13135742 54.69217285 -146.46974609 54.1812207 -145.78808594 53.65478516 C-134.31596102 44.80738156 -122.54530149 37.07454129 -109.79296875 30.203125 C-109.13828613 29.84557129 -108.48360352 29.48801758 -107.80908203 29.11962891 C-75.19066586 11.45589151 -37.23010137 0.19532966 0 0 Z M11.20703125 57.203125 C6.2800387 61.99533659 1.61100451 66.92521152 -2.79296875 72.203125 C-3.20063477 72.69167969 -3.60830078 73.18023437 -4.02832031 73.68359375 C-18.05567294 90.63544931 -35.79296875 116.22270074 -35.79296875 139.203125 C-36.81132812 138.56246094 -37.8296875 137.92179687 -38.87890625 137.26171875 C-66.62120107 120.15662377 -96.53268344 114.55934991 -128.79296875 115.203125 C-129.45436955 148.34665382 -123.48377968 180.1669086 -104.79296875 208.203125 C-105.65341797 208.29787109 -105.65341797 208.29787109 -106.53125 208.39453125 C-132.39206421 212.12256972 -156.44871065 226.90644691 -175.08203125 244.65625 C-178.09155328 247.48363958 -181.23316539 250.09970403 -184.46484375 252.66796875 C-186.22914938 254.36897662 -186.22914938 254.36897662 -185.79296875 258.203125 C-184.57645753 259.9437603 -184.57645753 259.9437603 -182.8203125 261.48828125 C-182.17578125 262.09591309 -181.53125 262.70354492 -180.8671875 263.32958984 C-179.80951172 264.28792725 -179.80951172 264.28792725 -178.73046875 265.265625 C-177.64378906 266.26263428 -177.64378906 266.26263428 -176.53515625 267.27978516 C-158.50199332 283.56843558 -130.14128578 304.203125 -104.79296875 304.203125 C-105.43363281 305.22148437 -106.07429688 306.23984375 -106.734375 307.2890625 C-123.83946998 335.03135732 -129.43674384 364.94283969 -128.79296875 397.203125 C-95.64943993 397.8645258 -63.82918515 391.89393593 -35.79296875 373.203125 C-35.72980469 373.77675781 -35.66664063 374.35039062 -35.6015625 374.94140625 C-31.87352403 400.80222046 -17.08964684 424.8588669 0.66015625 443.4921875 C3.48754583 446.50170953 6.10361028 449.64332164 8.671875 452.875 C10.37288287 454.63930563 10.37288287 454.63930563 14.20703125 454.203125 C15.94766655 452.98661378 15.94766655 452.98661378 17.4921875 451.23046875 C18.09981934 450.5859375 18.70745117 449.94140625 19.33349609 449.27734375 C19.9723877 448.57222656 20.6112793 447.86710937 21.26953125 447.140625 C21.9342041 446.41617187 22.59887695 445.69171875 23.28369141 444.9453125 C39.57234183 426.91214957 60.20703125 398.55144203 60.20703125 373.203125 C61.22539062 373.84378906 62.24375 374.48445313 63.29296875 375.14453125 C91.03526357 392.24962623 120.94674594 397.84690009 153.20703125 397.203125 C153.86843205 364.05959618 147.89784218 332.2393414 129.20703125 304.203125 C129.78066406 304.13996094 130.35429687 304.07679688 130.9453125 304.01171875 C156.80612671 300.28368028 180.86277315 285.49980309 199.49609375 267.75 C202.50561578 264.92261042 205.64722789 262.30654597 208.87890625 259.73828125 C210.64321188 258.03727338 210.64321188 258.03727338 210.20703125 254.203125 C208.99052003 252.4624897 208.99052003 252.4624897 207.234375 250.91796875 C206.58984375 250.31033691 205.9453125 249.70270508 205.28125 249.07666016 C204.57613281 248.43776855 203.87101562 247.79887695 203.14453125 247.140625 C202.42007812 246.47595215 201.695625 245.8112793 200.94921875 245.12646484 C182.91605582 228.83781442 154.55534828 208.203125 129.20703125 208.203125 C129.84769531 207.18476563 130.48835938 206.16640625 131.1484375 205.1171875 C148.25353248 177.37489268 153.85080634 147.46341031 153.20703125 115.203125 C120.06350243 114.5417242 88.24324765 120.51231407 60.20703125 139.203125 C60.11228516 138.34267578 60.11228516 138.34267578 60.015625 137.46484375 C56.28515514 111.58716337 41.49169654 87.57238273 23.7578125 68.91015625 C20.9319977 65.91124406 18.27199548 62.80156931 15.64453125 59.62890625 C14.15295836 57.93868448 14.15295836 57.93868448 11.20703125 57.203125 Z " fill="#000000" transform="translate(243.79296875,-0.203125)"/>
<path d="M0 0 C3.24467279 1.0815576 3.79915266 1.66064838 5.8203125 4.25390625 C6.35124512 4.93501465 6.88217773 5.61612305 7.42919922 6.31787109 C28.11450476 33.69775868 38.54419186 63.07427802 34.69091797 97.78417969 C31.57907957 118.80796657 21.94975471 138.3281601 9 155 C8.34386719 155.88300781 7.68773437 156.76601563 7.01171875 157.67578125 C3.46913051 162.39189768 3.46913051 162.39189768 2 164 C1.34 164 0.68 164 0 164 C-1.80162809 161.9769597 -3.47251555 159.95304706 -5.125 157.8125 C-5.61637451 157.17973145 -6.10774902 156.54696289 -6.61401367 155.89501953 C-17.25399278 141.97520319 -25.13494984 126.83790409 -30 110 C-30.32226562 108.88625 -30.64453125 107.7725 -30.9765625 106.625 C-37.99735169 77.75446502 -31.37973052 48.38462633 -17 23 C-11.96239518 14.88179537 -6.08917627 7.35015011 0 0 Z " fill="#000000" transform="translate(255,268)"/>
<path d="M0 0 C0.88300781 0.65613281 1.76601563 1.31226563 2.67578125 1.98828125 C7.39189768 5.53086949 7.39189768 5.53086949 9 7 C9 7.66 9 8.32 9 9 C6.9769597 10.80162809 4.95304706 12.47251555 2.8125 14.125 C2.17973145 14.61637451 1.54696289 15.10774902 0.89501953 15.61401367 C-13.02479681 26.25399278 -28.16209591 34.13494984 -45 39 C-46.11375 39.32226562 -47.2275 39.64453125 -48.375 39.9765625 C-65.10173538 44.04420042 -84.46703211 43.76764655 -101 39 C-102.21171875 38.6596875 -103.4234375 38.319375 -104.671875 37.96875 C-123.85401914 32.07879703 -139.63373192 21.73006859 -155 9 C-153.9184424 5.75532721 -153.33935162 5.20084734 -150.74609375 3.1796875 C-150.06498535 2.64875488 -149.38387695 2.11782227 -148.68212891 1.57080078 C-102.87931108 -33.03289431 -46.17989319 -35.86996355 0 0 Z " fill="#000000" transform="translate(423,248)"/>
<path d="M0 0 C0.57105469 0.47308594 1.14210937 0.94617188 1.73046875 1.43359375 C0.64891115 4.67826654 0.06982037 5.23274641 -2.5234375 7.25390625 C-3.2045459 7.78483887 -3.8856543 8.31577148 -4.58740234 8.86279297 C-31.96728993 29.54809851 -61.34380927 39.97778561 -96.05371094 36.12451172 C-120.60985932 32.4898304 -143.88580658 19.88218951 -162.26953125 3.43359375 C-162.26953125 2.77359375 -162.26953125 2.11359375 -162.26953125 1.43359375 C-160.24649095 -0.36803434 -158.22257831 -2.0389218 -156.08203125 -3.69140625 C-155.4492627 -4.18278076 -154.81649414 -4.67415527 -154.16455078 -5.18041992 C-140.24473444 -15.82039903 -125.10743534 -23.70135609 -108.26953125 -28.56640625 C-107.15578125 -28.88867188 -106.04203125 -29.2109375 -104.89453125 -29.54296875 C-66.14238742 -38.96678554 -29.71734524 -24.23688093 0 0 Z " fill="#000000" transform="translate(242.26953125,253.56640625)"/>
<path d="M0 0 C0.66 0 1.32 0 2 0 C3.80167607 2.02309417 5.47279711 4.04664491 7.125 6.1875 C7.61782471 6.82389404 8.11064941 7.46028809 8.6184082 8.1159668 C29.2335543 35.14173671 38.56170442 65.71927936 34.5390625 99.69921875 C30.40034365 124.16635079 17.60958094 145.15791729 2 164 C-1.24467279 162.9184424 -1.79915266 162.33935162 -3.8203125 159.74609375 C-4.35124512 159.06498535 -4.88217773 158.38387695 -5.42919922 157.68212891 C-26.11450476 130.30224132 -36.54419186 100.92572198 -32.69091797 66.21582031 C-29.57907957 45.19203343 -19.94975471 25.6718399 -7 9 C-6.34386719 8.11699219 -5.68773437 7.23398438 -5.01171875 6.32421875 C-1.46913051 1.60810232 -1.46913051 1.60810232 0 0 Z " fill="#000000" transform="translate(255,80)"/>
<path d="M0 0 C18.27438219 -1.50889394 38.03173962 4.92316079 54.25 12.8125 C54.86327148 13.10737305 55.47654297 13.40224609 56.10839844 13.70605469 C58.12265087 14.73077496 60.05503745 15.84890421 62 17 C62.94568848 17.52021729 63.89137695 18.04043457 64.86572266 18.57641602 C72.34239653 23.19293069 72.34239653 23.19293069 74.078125 27.96264648 C74.58340649 31.43568016 74.78171195 34.8044904 74.875 38.3125 C75.04099894 40.8197689 75.2181271 43.32632521 75.40625 45.83203125 C75.49261719 47.0535791 75.57898438 48.27512695 75.66796875 49.53369141 C76.74145431 60.74056488 80.43109395 71.64421535 85.08203125 81.84765625 C86 84 86 84 86 86 C84.824375 85.608125 83.64875 85.21625 82.4375 84.8125 C81.61378906 84.54050781 80.79007812 84.26851563 79.94140625 83.98828125 C77.81797504 83.27483092 75.70154958 82.54041102 73.58984375 81.79296875 C63.05632751 78.12672913 52.6085056 75.2214275 41.41015625 74.69140625 C26.60308104 73.9557728 26.60308104 73.9557728 22.3203125 71.40234375 C20.40484033 69.04110501 19.25387081 66.76991462 18 64 C17.36835938 62.94683594 16.73671875 61.89367187 16.0859375 60.80859375 C5.5157833 43.12032299 -1.20639761 20.68748498 0 0 Z " fill="#000000" transform="translate(132,132)"/>
<path d="M0 0 C-0.391875 1.175625 -0.78375 2.35125 -1.1875 3.5625 C-1.45949219 4.38621094 -1.73148437 5.20992188 -2.01171875 6.05859375 C-2.72516908 8.18202496 -3.45958898 10.29845042 -4.20703125 12.41015625 C-7.86550975 22.92137393 -10.85315202 33.36507078 -11.23828125 44.5546875 C-11.81595494 59.28843293 -11.81595494 59.28843293 -15.0078125 63.90234375 C-17.89565197 66.07899887 -20.70215445 67.51730698 -24 69 C-25.22275267 69.6621717 -26.44003666 70.33451784 -27.65234375 71.015625 C-45.19356741 80.64160785 -65.83806494 87.17574999 -86 86 C-87.50889394 67.72561781 -81.07683921 47.96826038 -73.1875 31.75 C-72.89262695 31.13672852 -72.59775391 30.52345703 -72.29394531 29.89160156 C-71.26922504 27.87734913 -70.15109579 25.94496255 -69 24 C-68.21967407 22.58146729 -68.21967407 22.58146729 -67.42358398 21.13427734 C-62.80706931 13.65760347 -62.80706931 13.65760347 -58.03735352 11.921875 C-54.56431984 11.41659351 -51.1955096 11.21828805 -47.6875 11.125 C-45.1802311 10.95900106 -42.67367479 10.7818729 -40.16796875 10.59375 C-38.9464209 10.50738281 -37.72487305 10.42101562 -36.46630859 10.33203125 C-25.25943512 9.25854569 -14.35578465 5.56890605 -4.15234375 0.91796875 C-2 0 -2 0 0 0 Z " fill="#000000" transform="translate(218,294)"/>
<path d="M0 0 C1.50889394 18.27438219 -4.92316079 38.03173962 -12.8125 54.25 C-13.25480957 55.16990723 -13.25480957 55.16990723 -13.70605469 56.10839844 C-14.73077496 58.12265087 -15.84890421 60.05503745 -17 62 C-17.52021729 62.94568848 -18.04043457 63.89137695 -18.57641602 64.86572266 C-23.19293069 72.34239653 -23.19293069 72.34239653 -27.96264648 74.078125 C-31.43568016 74.58340649 -34.8044904 74.78171195 -38.3125 74.875 C-40.8197689 75.04099894 -43.32632521 75.2181271 -45.83203125 75.40625 C-47.0535791 75.49261719 -48.27512695 75.57898438 -49.53369141 75.66796875 C-60.74056488 76.74145431 -71.64421535 80.43109395 -81.84765625 85.08203125 C-84 86 -84 86 -86 86 C-85.4121875 84.2365625 -85.4121875 84.2365625 -84.8125 82.4375 C-84.54050781 81.61378906 -84.26851563 80.79007812 -83.98828125 79.94140625 C-83.27483092 77.81797504 -82.54041102 75.70154958 -81.79296875 73.58984375 C-78.13449025 63.07862607 -75.14684798 52.63492922 -74.76171875 41.4453125 C-74.18404506 26.71156707 -74.18404506 26.71156707 -70.9921875 22.09765625 C-68.10434803 19.92100113 -65.29784555 18.48269302 -62 17 C-60.77724733 16.3378283 -59.55996334 15.66548216 -58.34765625 14.984375 C-40.80643259 5.35839215 -20.16193506 -1.17574999 0 0 Z " fill="#000000" transform="translate(380,132)"/>
<path d="M0 0 C1.175625 0.391875 2.35125 0.78375 3.5625 1.1875 C4.79806641 1.59548828 4.79806641 1.59548828 6.05859375 2.01171875 C8.18202496 2.72516908 10.29845042 3.45958898 12.41015625 4.20703125 C22.92137393 7.86550975 33.36507078 10.85315202 44.5546875 11.23828125 C59.28843293 11.81595494 59.28843293 11.81595494 63.90234375 15.0078125 C66.07899887 17.89565197 67.51730698 20.70215445 69 24 C69.6621717 25.22275267 70.33451784 26.44003666 71.015625 27.65234375 C80.64160785 45.19356741 87.17574999 65.83806494 86 86 C67.72561781 87.50889394 47.96826038 81.07683921 31.75 73.1875 C31.13672852 72.89262695 30.52345703 72.59775391 29.89160156 72.29394531 C27.87734913 71.26922504 25.94496255 70.15109579 24 69 C22.58146729 68.21967407 22.58146729 68.21967407 21.13427734 67.42358398 C13.65760347 62.80706931 13.65760347 62.80706931 11.921875 58.03735352 C11.41659351 54.56431984 11.21828805 51.1955096 11.125 47.6875 C10.95900106 45.1802311 10.7818729 42.67367479 10.59375 40.16796875 C10.50738281 38.9464209 10.42101562 37.72487305 10.33203125 36.46630859 C9.25854569 25.25943512 5.56890605 14.35578465 0.91796875 4.15234375 C0 2 0 2 0 0 Z " fill="#000000" transform="translate(294,294)"/>
</svg>
