<?xml version="1.0" encoding="UTF-8"?>
<svg version="1.1" xmlns="http://www.w3.org/2000/svg" width="512" height="512">
<path d="M0 0 C2.26104067 1.71159197 4.43777812 3.49287019 6.609375 5.31640625 C7.51429688 6.04085937 8.41921875 6.7653125 9.3515625 7.51171875 C17.11665711 14.00096212 17.11665711 14.00096212 17.859375 18.25390625 C17.609375 21.31640625 17.609375 21.31640625 15.609375 23.31640625 C10.19993767 22.88028471 5.78715648 20.77869612 0.90234375 18.5703125 C-16.111959 12.09155665 -36.09130917 13.88257776 -52.51171875 21.08203125 C-71.12774677 29.67537488 -85.0270005 43.53608885 -92.7421875 62.66796875 C-99.21393123 81.43136963 -98.3642386 102.66234329 -89.703125 120.50390625 C-79.56362758 140.26729388 -63.11281367 152.35912803 -42.44921875 159.40625 C-26.4605817 164.16404366 -6.52312593 162.83274686 8.234375 155.00390625 C11.609375 153.31640625 11.609375 153.31640625 14.546875 153.50390625 C16.609375 154.31640625 16.609375 154.31640625 17.609375 155.31640625 C18.109375 157.94140625 18.109375 157.94140625 17.609375 161.31640625 C4.9930683 179.59444776 -22.08619087 190.35665895 -42.7109375 194.53515625 C-49.88071025 195.84039933 -57.11845053 196.13230057 -64.390625 196.31640625 C-58.5790909 213.50808269 -51.76710361 228.7842293 -39.390625 242.31640625 C-38.23626953 243.59257813 -38.23626953 243.59257813 -37.05859375 244.89453125 C-25.95881673 256.58605728 -12.30073708 263.94333371 1.98828125 270.98046875 C4.609375 272.31640625 4.609375 272.31640625 5.609375 273.31640625 C5.796875 275.75390625 5.796875 275.75390625 5.609375 278.31640625 C4.949375 278.97640625 4.289375 279.63640625 3.609375 280.31640625 C-14.53806684 278.83232564 -30.95855738 264.44617436 -43.390625 252.31640625 C-44.03257812 251.73632812 -44.67453125 251.15625 -45.3359375 250.55859375 C-60.44540285 236.57355373 -68.79382648 216.69320113 -74.390625 197.31640625 C-74.390625 196.65640625 -74.390625 195.99640625 -74.390625 195.31640625 C-75.22722656 195.23003906 -76.06382812 195.14367187 -76.92578125 195.0546875 C-97.26704122 192.59931946 -115.68019354 184.41938814 -131.390625 171.31640625 C-132.32519531 170.54554688 -133.25976562 169.7746875 -134.22265625 168.98046875 C-155.35285404 150.71688521 -167.54252038 124.6441717 -170.11962891 97.01977539 C-172.11796202 68.57193296 -163.99187243 41.08322742 -145.390625 19.31640625 C-108.79825932 -21.88519011 -45.99970877 -32.39521974 0 0 Z " fill="#000000" transform="translate(215.390625,86.68359375)"/>
<path d="M0 0 C2.5 -0.3125 2.5 -0.3125 5 0 C5.99 0.99 5.99 0.99 7 2 C6.64691971 9.67761821 4.47383997 16.46324531 2.08398438 23.71484375 C0.19958366 29.65549684 -1.35039154 34.97769513 1.3125 40.9375 C4.20381996 44.90909335 8.63620697 47.30023474 12.734375 49.875 C15 52 15 52 15.328125 55.25 C15.16570312 56.61125 15.16570312 56.61125 15 58 C11.86067961 59.67469322 10.43770484 60.10139239 6.9140625 59.28515625 C5.82867187 58.88167969 4.74328125 58.47820312 3.625 58.0625 C-3.14530812 55.70356842 -3.14530812 55.70356842 -10 57 C-17.02842791 62.6396783 -21.40507293 71.79954421 -25.96606445 79.43115234 C-27 81 -27 81 -29 83 C-31.5 83.25 -31.5 83.25 -34 83 C-34.66 82.34 -35.32 81.68 -36 81 C-35.63731855 76.57528628 -34.88753907 72.34666568 -34 68 C-55.55832028 50.36137431 -82.47966828 41.21844023 -110.43408203 43.16992188 C-134.95511843 45.62651929 -157.30560781 53.71014014 -176 70 C-176.6703125 70.52722656 -177.340625 71.05445313 -178.03125 71.59765625 C-190.33564484 81.53394335 -198.15171672 96.04003793 -205 110 C-206 111 -206 111 -208.4375 111.1875 C-211 111 -211 111 -213 109 C-212.77002446 103.10224018 -210.70562451 98.74847806 -207.9375 93.6875 C-207.53337891 92.93911865 -207.12925781 92.1907373 -206.71289062 91.41967773 C-203.38294698 85.40141691 -199.58257353 80.13533531 -195 75 C-194.33742187 74.195625 -193.67484375 73.39125 -192.9921875 72.5625 C-173.35393576 49.37342046 -142.85465697 35.92676285 -112.93359375 33.28125 C-84.86217102 31.27415721 -56.5253191 38.02094206 -34.109375 55.49609375 C-32.16035211 57.19350827 -32.16035211 57.19350827 -30 57 C-29.09735602 52.58489357 -28.51716309 49.18295042 -30.25 44.9375 C-33.24914419 41.10585315 -37.62069894 38.5786648 -41.63671875 35.9296875 C-44 34 -44 34 -44.921875 31.8984375 C-45.03468159 29.15723733 -43.77417142 27.98707199 -42 26 C-36.70713233 26.58809641 -31.73154623 27.48756476 -26.58984375 28.890625 C-22.71939164 29.05408301 -20.05515504 28.3016058 -17 26 C-14.03786219 22.38480717 -11.62458305 18.48178146 -9.1875 14.5 C-8.52041016 13.44167969 -7.85332031 12.38335937 -7.16601562 11.29296875 C-5.93341648 9.33523813 -4.70821684 7.37281491 -3.49291992 5.40429688 C-2.36143114 3.58207258 -1.18979872 1.78469808 0 0 Z " fill="#000000" transform="translate(360,105)"/>
<path d="M0 0 C3.43098457 0.54583845 4.35702775 1.97904276 6.45214844 4.62524414 C23.2087331 28.02331185 27.76864406 58.06917946 23.625 86.0625 C18.45316414 116.6680442 1.30077284 146.20337099 -23.91210938 164.65380859 C-42.09874003 177.29711313 -65.48064175 188.162964 -88.25 186.4375 C-89.24 185.7775 -90.23 185.1175 -91.25 184.4375 C-91.4375 181.3125 -91.4375 181.3125 -91.25 178.4375 C-86.74385688 177.02708915 -82.42142112 176.11175009 -77.7434082 175.50146484 C-54.95328235 172.4803225 -36.07558 162.95230535 -19.25 147.4375 C-18.58742188 146.85613281 -17.92484375 146.27476562 -17.2421875 145.67578125 C2.81691372 127.15609943 13.55761565 97.88819928 15.03125 71.16015625 C15.81821194 47.48845031 8.7989153 26.01087295 -4.25 6.4375 C-3.56618145 0.69342417 -3.56618145 0.69342417 0 0 Z " fill="#000000" transform="translate(349.25,187.5625)"/>
<path d="M0 0 C0.495 0.495 0.495 0.495 1 1 C0.59071131 7.60708891 -0.88610289 13.22048898 -3.0625 19.4375 C-6.47886872 29.03395685 -6.47886872 29.03395685 -6 39 C-3.85964804 41.99649274 -1.37881531 43.71892483 1.55859375 45.8984375 C2.46738281 46.59195313 3.37617188 47.28546875 4.3125 48 C5.19550781 48.639375 6.07851563 49.27875 6.98828125 49.9375 C9 52 9 52 9.41796875 54.625 C9 57 9 57 7 59 C2.85082217 59.09958027 -1.13035815 58.32611569 -5 56.875 C-9.0754261 55.68633405 -12.99875211 55.441253 -17 57 C-22.25134464 62.35380991 -25.7811835 69.00841232 -29.5390625 75.45117188 C-30.04179687 76.27810547 -30.54453125 77.10503906 -31.0625 77.95703125 C-31.50722656 78.70960205 -31.95195312 79.46217285 -32.41015625 80.23754883 C-34 82 -34 82 -36.49609375 82.87768555 C-39 83 -39 83 -42 81 C-41.67771139 74.98394596 -40.35112371 69.75741218 -38.4375 64.0625 C-35.51098732 55.20416754 -35.51098732 55.20416754 -36 46 C-38.62861468 41.59071085 -41.42700356 39.67515569 -45.75 37 C-49.85136485 34.40679095 -49.85136485 34.40679095 -51.1875 30.75 C-51 28 -51 28 -49 26 C-46.7578125 25.98828125 -46.7578125 25.98828125 -44.125 26.3125 C-43.26132812 26.41175781 -42.39765625 26.51101562 -41.5078125 26.61328125 C-39 27 -39 27 -36.89453125 27.52734375 C-32.98607534 28.50244306 -29.34780343 28.56877748 -25.62109375 26.99609375 C-21.93013749 24.18524629 -19.90709163 20.73329492 -17.5 16.8125 C-17.03980469 16.08224609 -16.57960938 15.35199219 -16.10546875 14.59960938 C-14.24945769 11.64829038 -12.41384039 8.68618817 -10.61328125 5.70068359 C-10.17371094 4.9783252 -9.73414063 4.2559668 -9.28125 3.51171875 C-8.89001953 2.86033936 -8.49878906 2.20895996 -8.09570312 1.5378418 C-5.75597076 -1.74602053 -3.54295653 -0.90845039 0 0 Z " fill="#000000" transform="translate(339,206)"/>
<path d="M0 0 C0.495 0.495 0.495 0.495 1 1 C0.53602065 8.48258767 -1.41384505 14.87471175 -3.91601562 21.89453125 C-6.07136706 28.27186648 -7.49026099 34.3706569 -4.8515625 40.796875 C-2.61418719 43.4590684 -0.23404408 45.27356319 2.625 47.25 C4.09839844 48.27867187 4.09839844 48.27867187 5.6015625 49.328125 C6.39304687 49.87984375 7.18453125 50.4315625 8 51 C9 52 9 52 9.1875 54.4375 C9 57 9 57 7 59 C3.01142103 58.73409474 -0.23699961 58.27022931 -4 56.9375 C-6.49829835 56.15678176 -8.42292481 55.72844802 -11 55.5625 C-11.61875 55.52253906 -12.2375 55.48257813 -12.875 55.44140625 C-19.56112851 57.19897312 -22.64502604 63.30892265 -25.90429688 68.85546875 C-27.01747235 70.79860898 -28.12679923 72.74395864 -29.23242188 74.69140625 C-30.04743164 76.07392578 -30.04743164 76.07392578 -30.87890625 77.484375 C-31.3591626 78.32709961 -31.83941895 79.16982422 -32.33422852 80.03808594 C-34 82 -34 82 -36.50756836 82.90722656 C-39 83 -39 83 -42 81 C-41.38116575 73.10785414 -39.38612923 66.13327412 -36.90820312 58.640625 C-35.20273672 53.10894674 -34.47347071 49.49606645 -37 44 C-40.09600812 40.24386222 -44.11880014 37.66906242 -48.07421875 34.87890625 C-50.40514699 32.6047146 -50.85826056 31.2285095 -51 28 C-49 26 -49 26 -45.8125 25.75 C-41.92652276 26.00481818 -38.73152785 26.93384919 -35 28 C-29.17070609 28.61360988 -26.60234996 27.54321466 -22 24 C-19.90790087 21.37842566 -19.90790087 21.37842566 -18.203125 18.39453125 C-17.55472656 17.32912109 -16.90632813 16.26371094 -16.23828125 15.16601562 C-15.58214844 14.05935547 -14.92601562 12.95269531 -14.25 11.8125 C-12.92610731 9.60812973 -11.59819257 7.40616832 -10.265625 5.20703125 C-9.68586914 4.2322583 -9.10611328 3.25748535 -8.50878906 2.25317383 C-5.94277614 -1.57882185 -4.1917852 -1.07481672 0 0 Z " fill="#000000" transform="translate(434,165)"/>
<path d="M0 0 C2.875 -0.1875 2.875 -0.1875 6 0 C8.38628694 3.57943041 8.28290124 6.12274199 8.25878906 10.25366211 C8.2622937 10.98894638 8.26579834 11.72423065 8.26940918 12.48179626 C8.27821552 14.91374132 8.27238069 17.3453957 8.265625 19.77734375 C8.26697211 21.46741288 8.26891303 23.15748163 8.27142334 24.84754944 C8.27437323 28.39083544 8.27008184 31.93402063 8.26074219 35.47729492 C8.24935643 40.01807921 8.25590237 44.55862685 8.26788712 49.09940243 C8.27511679 52.59011109 8.27281254 56.08076372 8.26763153 59.57147408 C8.26629765 61.24561148 8.26793361 62.91975397 8.27259064 64.59388542 C8.27767311 66.93504158 8.26992122 69.27581563 8.25878906 71.61694336 C8.26283752 72.30850525 8.26688599 73.00006714 8.27105713 73.71258545 C8.2393753 77.31150017 7.9594055 79.93577741 6 83 C3.125 83.1875 3.125 83.1875 0 83 C-2.38628694 79.42056959 -2.28290124 76.87725801 -2.25878906 72.74633789 C-2.2622937 72.01105362 -2.26579834 71.27576935 -2.26940918 70.51820374 C-2.27821552 68.08625868 -2.27238069 65.6546043 -2.265625 63.22265625 C-2.26697211 61.53258712 -2.26891303 59.84251837 -2.27142334 58.15245056 C-2.27437323 54.60916456 -2.27008184 51.06597937 -2.26074219 47.52270508 C-2.24935643 42.98192079 -2.25590237 38.44137315 -2.26788712 33.90059757 C-2.27511679 30.40988891 -2.27281254 26.91923628 -2.26763153 23.42852592 C-2.26629765 21.75438852 -2.26793361 20.08024603 -2.27259064 18.40611458 C-2.27767311 16.06495842 -2.26992122 13.72418437 -2.25878906 11.38305664 C-2.26283752 10.69149475 -2.26688599 9.99993286 -2.27105713 9.28741455 C-2.2393753 5.68849983 -1.9594055 3.06422259 0 0 Z " fill="#000000" transform="translate(253,414)"/>
<path d="M0 0 C0.74664413 -0.00350464 1.49328827 -0.00700928 2.26255798 -0.01062012 C4.73177373 -0.01942602 7.20070319 -0.01359238 9.66992188 -0.00683594 C11.38480688 -0.00818292 13.0996915 -0.01012373 14.8145752 -0.01263428 C18.40913528 -0.01558399 22.00359599 -0.01129281 25.59814453 -0.00195312 C30.20852824 0.00944134 34.8186791 0.00288105 39.42905426 -0.00909805 C42.97033446 -0.01632078 46.51155934 -0.01402683 50.05284119 -0.00884247 C51.75292488 -0.00750711 53.45301358 -0.0091497 55.15309143 -0.01380157 C57.52797779 -0.01887359 59.90248563 -0.01114724 62.27734375 0 C63.33410561 -0.00607269 63.33410561 -0.00607269 64.41221619 -0.01226807 C68.05181207 0.01942365 69.51953665 0.17936558 72.63867188 2.25878906 C72.82617188 5.38378906 72.82617188 5.38378906 72.63867188 8.25878906 C68.92979556 10.62008843 65.69162952 10.5123264 61.36328125 10.51757812 C60.27476616 10.52283508 60.27476616 10.52283508 59.16426086 10.52819824 C56.77021666 10.53698657 54.37646899 10.53117674 51.98242188 10.52441406 C50.31620222 10.52576155 48.64998295 10.52770278 46.98376465 10.5302124 C43.49353284 10.53315973 40.00340348 10.5288786 36.51318359 10.51953125 C32.04080806 10.50813692 27.56867258 10.51469849 23.09630585 10.52667618 C19.65621128 10.53390533 16.21617356 10.53160199 12.77607727 10.52642059 C11.12705965 10.52508702 9.47803685 10.52672159 7.82902527 10.5313797 C5.52389871 10.53646229 3.21916019 10.52871054 0.9140625 10.51757812 C-1.05306702 10.51519135 -1.05306702 10.51519135 -3.05993652 10.51275635 C-6.11855718 10.27746479 -7.80879634 9.8838882 -10.36132812 8.25878906 C-10.54882812 5.38378906 -10.54882812 5.38378906 -10.36132812 2.25878906 C-6.75780257 -0.14356131 -4.16081706 -0.02391018 0 0 Z " fill="#000000" transform="translate(424.361328125,250.7412109375)"/>
<path d="M0 0 C2.875 -0.1875 2.875 -0.1875 6 0 C8.38628694 3.57943041 8.28290124 6.12274199 8.25878906 10.25366211 C8.2622937 10.98894638 8.26579834 11.72423065 8.26940918 12.48179626 C8.27821552 14.91374132 8.27238069 17.3453957 8.265625 19.77734375 C8.26697211 21.46741288 8.26891303 23.15748163 8.27142334 24.84754944 C8.27437323 28.39083544 8.27008184 31.93402063 8.26074219 35.47729492 C8.24935643 40.01807921 8.25590237 44.55862685 8.26788712 49.09940243 C8.27511679 52.59011109 8.27281254 56.08076372 8.26763153 59.57147408 C8.26629765 61.24561148 8.26793361 62.91975397 8.27259064 64.59388542 C8.27767311 66.93504158 8.26992122 69.27581563 8.25878906 71.61694336 C8.26283752 72.30850525 8.26688599 73.00006714 8.27105713 73.71258545 C8.2393753 77.31150017 7.9594055 79.93577741 6 83 C3.69 82.67 1.38 82.34 -1 82 C-2.1861596 78.44152121 -2.13436115 75.59541566 -2.14526367 71.83813477 C-2.14862228 71.11260406 -2.1519809 70.38707336 -2.15544128 69.63955688 C-2.16494355 67.24015595 -2.16689397 64.84082484 -2.16796875 62.44140625 C-2.17118163 60.77375764 -2.17454573 59.10610932 -2.17805481 57.4384613 C-2.18404412 53.94228461 -2.18589489 50.44613263 -2.18530273 46.94995117 C-2.18520108 42.46971753 -2.19885781 37.98964224 -2.21607494 33.50944614 C-2.22719197 30.06507133 -2.22922204 26.62073484 -2.22869301 23.17634392 C-2.2298734 21.52452994 -2.23429848 19.87271498 -2.24202538 18.22091866 C-2.2518201 15.91091938 -2.24894947 13.60126456 -2.24291992 11.29125977 C-2.24434494 9.97682388 -2.24576996 8.662388 -2.24723816 7.30812073 C-2.01810842 4.24229607 -1.63035934 2.55657299 0 0 Z " fill="#000000" transform="translate(253,15)"/>
<path d="M0 0 C4.7909828 0.13464594 7.3358843 2.74850209 10.54052734 5.9753418 C11.06955658 6.49254288 11.59858582 7.00974396 12.14364624 7.5426178 C13.8849856 9.25112376 15.6110188 10.9741463 17.3359375 12.69921875 C18.54151316 13.8944795 19.74746136 15.0893646 20.95376587 16.28388977 C23.47733556 18.78803635 25.99277097 21.30003904 28.50341797 23.81713867 C31.72325426 27.04298098 34.9675278 30.24295096 38.21901512 33.43684673 C40.71547901 35.89636755 43.19577869 38.37170432 45.67174149 40.85184669 C46.86153163 42.03876147 48.0569421 43.22006966 49.25797653 44.39560509 C50.93441324 46.04014514 52.58718854 47.70535492 54.23583984 49.37768555 C54.73651978 49.85948273 55.23719971 50.34127991 55.75305176 50.837677 C57.10385132 52.2351532 57.10385132 52.2351532 59 55 C58.79776001 58.35139465 58.79776001 58.35139465 58 61 C55.3591156 61.80349731 55.3591156 61.80349731 52 62 C49.7353013 60.44468611 48.13477022 59.08455112 46.25415039 57.14404297 C45.71522156 56.61577408 45.17629272 56.08750519 44.62103271 55.54322815 C42.84535815 53.79325429 41.09639593 52.01904753 39.34765625 50.2421875 C38.12181772 49.01852461 36.89486771 47.79597424 35.66685486 46.57449341 C33.09780493 44.011251 30.54158496 41.43603315 27.99389648 38.8515625 C24.72482163 35.53698486 21.42751653 32.25229228 18.12032413 28.97579765 C15.58281774 26.45607239 13.06000107 23.92204612 10.541502 21.38333511 C9.33090261 20.16621174 8.11595176 18.95340079 6.89665413 17.7449913 C5.19607093 16.05492018 3.51600548 14.34681009 1.84008789 12.63232422 C1.07739845 11.88549629 1.07739845 11.88549629 0.29930115 11.12358093 C-1.07261658 9.6960144 -1.07261658 9.6960144 -3 7 C-2.9079034 3.53560925 -2.45683702 2.45683702 0 0 Z " fill="#000000" transform="translate(369,366)"/>
<path d="M0 0 C2.27297974 0.92750549 2.27297974 0.92750549 4.27297974 2.92750549 C4.1383338 7.71848829 1.52447764 10.26338979 -1.70236206 13.46803284 C-2.21956314 13.99706207 -2.73676422 14.52609131 -3.26963806 15.07115173 C-4.97814403 16.8124911 -6.70116657 18.53852429 -8.42623901 20.26344299 C-9.62149976 21.46901866 -10.81638487 22.67496686 -12.01091003 23.88127136 C-14.51505662 26.40484105 -17.02705931 28.92027646 -19.54415894 31.43092346 C-22.77000124 34.65075975 -25.96997122 37.8950333 -29.163867 41.14652061 C-31.62338781 43.6429845 -34.09872459 46.12328419 -36.57886696 48.59924698 C-37.76578173 49.78903712 -38.94708992 50.98444759 -40.12262535 52.18548203 C-41.76716541 53.86191873 -43.43237518 55.51469404 -45.10470581 57.16334534 C-45.82740158 57.91436523 -45.82740158 57.91436523 -46.56469727 58.68055725 C-47.96217346 60.03135681 -47.96217346 60.03135681 -50.72702026 61.92750549 C-54.07841492 61.7252655 -54.07841492 61.7252655 -56.72702026 60.92750549 C-57.53051758 58.28662109 -57.53051758 58.28662109 -57.72702026 54.92750549 C-56.17170637 52.66280679 -54.81157139 51.06227571 -52.87106323 49.18165588 C-52.34279434 48.64272705 -51.81452545 48.10379822 -51.27024841 47.54853821 C-49.52027455 45.77286365 -47.74606779 44.02390142 -45.96920776 42.27516174 C-44.74554487 41.04932321 -43.5229945 39.8223732 -42.30151367 38.59436035 C-39.73827126 36.02531042 -37.16305342 33.46909045 -34.57858276 30.92140198 C-31.26400513 27.65232713 -27.97931254 24.35502202 -24.70281792 21.04782963 C-22.18309266 18.51032323 -19.64906638 15.98750657 -17.11035538 13.46900749 C-15.893232 12.25840811 -14.68042105 11.04345725 -13.47201157 9.82415962 C-11.78194045 8.12357643 -10.07383035 6.44351097 -8.35934448 4.76759338 C-7.8614592 4.25913376 -7.36357391 3.75067413 -6.8506012 3.22680664 C-4.49411305 0.96217813 -3.34021333 -0.0887955 0 0 Z " fill="#000000" transform="translate(141.72702026367188,366.07249450683594)"/>
<path d="M0 0 C2 2 2 2 2.36773682 4.34381104 C1.88151881 7.85579803 0.61309905 9.00895834 -1.88378906 11.49902344 C-2.73177063 12.35631042 -3.5797522 13.21359741 -4.45343018 14.09686279 C-5.38145447 15.00849182 -6.30947876 15.92012085 -7.265625 16.859375 C-8.22098881 17.81302735 -9.17546486 18.76756981 -10.12908936 19.72296143 C-12.12897231 21.72119175 -14.13709216 23.71062407 -16.15185547 25.69384766 C-18.73240885 28.23472369 -21.29493992 30.79288724 -23.85196304 33.35741806 C-25.82100691 35.32953341 -27.79756846 37.29396629 -29.77666473 39.25598907 C-31.18471741 40.65360387 -32.58778667 42.0562335 -33.99078369 43.45892334 C-34.8513739 44.30360168 -35.71196411 45.14828003 -36.59863281 46.01855469 C-37.73114471 47.13843781 -37.73114471 47.13843781 -38.88653564 48.28094482 C-41.02608458 50.02121674 -42.2569755 50.8087556 -45 51 C-47.25 49.0625 -47.25 49.0625 -49 47 C-47.65069123 42.99858928 -45.95563979 40.57000184 -42.99682617 37.5769043 C-42.17224411 36.73641037 -41.34766205 35.89591644 -40.49809265 35.029953 C-39.60540176 34.1370607 -38.71271088 33.2441684 -37.79296875 32.32421875 C-36.87542313 31.3990596 -35.9578775 30.47390045 -35.01252747 29.52070618 C-33.07331789 27.56807918 -31.12830468 25.62145864 -29.17944336 23.6784668 C-26.68409287 21.18902535 -24.20751511 18.68178079 -21.73539257 16.16929913 C-19.37015705 13.77200158 -16.98684124 11.39298702 -14.60546875 9.01171875 C-13.71885056 8.10870529 -12.83223236 7.20569183 -11.91874695 6.27531433 C-11.0847084 5.45058121 -10.25066986 4.62584808 -9.39135742 3.77612305 C-8.6623674 3.04507858 -7.93337738 2.31403412 -7.18229675 1.56083679 C-4.53920722 -0.32957128 -3.18331791 -0.48890985 0 0 Z " fill="#000000" transform="translate(426,84)"/>
<path d="M0 0 C1.33169472 -0.01429802 1.33169472 -0.01429802 2.69029236 -0.02888489 C4.12472435 -0.02751778 4.12472435 -0.02751778 5.58813477 -0.02612305 C6.57322525 -0.03040817 7.55831573 -0.0346933 8.57325745 -0.03910828 C10.65706615 -0.04485243 12.74089492 -0.04535121 14.82470703 -0.04101562 C18.01377571 -0.03785741 21.20191532 -0.061308 24.39086914 -0.08666992 C26.41495651 -0.08894306 28.43904638 -0.08964634 30.46313477 -0.08862305 C31.41739853 -0.09783279 32.37166229 -0.10704254 33.35484314 -0.11653137 C34.24579178 -0.11030258 35.13674042 -0.10407379 36.0546875 -0.09765625 C36.83617661 -0.09828568 37.61766571 -0.0989151 38.4228363 -0.0995636 C41.12410427 0.36644745 42.53776914 1.50725061 44.59204102 3.2746582 C44.27954102 5.6496582 44.27954102 5.6496582 43.59204102 8.2746582 C40.48307511 10.34730214 39.80142223 10.52609429 36.27587891 10.53344727 C34.97421532 10.54290375 34.97421532 10.54290375 33.64625549 10.55255127 C32.71184128 10.54850281 31.77742706 10.54445435 30.81469727 10.5402832 C29.85180283 10.54219666 28.88890839 10.54411011 27.89683533 10.54608154 C25.86009459 10.54744273 23.82334517 10.54375091 21.78662109 10.53540039 C18.67013008 10.52471167 15.55421705 10.53529199 12.43774414 10.5480957 C10.45922724 10.54677387 8.48071071 10.54421098 6.50219727 10.5402832 C5.56980728 10.54433167 4.6374173 10.54838013 3.67677307 10.55255127 C2.37038124 10.54309479 2.37038124 10.54309479 1.03759766 10.53344727 C0.27387344 10.53185608 -0.48985077 10.53026489 -1.27671814 10.52862549 C-3.6813588 10.24207877 -5.31767329 9.46878967 -7.40795898 8.2746582 C-7.59545898 5.3996582 -7.59545898 5.3996582 -7.40795898 2.2746582 C-4.28222108 0.19083293 -3.55707246 0.02099265 0 0 Z " fill="#000000" transform="translate(22.407958984375,250.725341796875)"/>
<path d="M0 0 C2.44140625 0.0546875 2.44140625 0.0546875 5 1 C6.58984375 3.1953125 6.58984375 3.1953125 7.9375 6.125 C8.43378906 7.20265625 8.93007813 8.2803125 9.44140625 9.390625 C9.95574219 10.58171875 10.47007812 11.7728125 11 13 C11.28085449 13.64001953 11.56170898 14.28003906 11.85107422 14.93945312 C17.62629655 28.19406175 17.62629655 28.19406175 17 34 C16.34 34.66 15.68 35.32 15 36 C12.5625 35.9375 12.5625 35.9375 10 35 C6.42227447 29.74209181 4.20510075 23.77356577 1.75 17.9375 C1.27820313 16.84888672 0.80640625 15.76027344 0.3203125 14.63867188 C-0.12054688 13.59130859 -0.56140625 12.54394531 -1.015625 11.46484375 C-1.42071289 10.512146 -1.82580078 9.55944824 -2.24316406 8.57788086 C-3.05315975 5.81893102 -3.10174536 4.62328875 -2 2 C-1.34 1.34 -0.68 0.68 0 0 Z " fill="#000000" transform="translate(316,400)"/>
<path d="M0 0 C1 1 1 1 1.0625 4.0625 C1.041875 5.031875 1.02125 6.00125 1 7 C-5.56538676 10.59368539 -12.41197562 13.55749814 -19.3125 16.4375 C-20.18422852 16.81583984 -21.05595703 17.19417969 -21.95410156 17.58398438 C-28.29118505 20.17742664 -28.29118505 20.17742664 -32.10546875 19.22265625 C-32.73066406 18.81917969 -33.35585937 18.41570312 -34 18 C-34 16.02 -34 14.04 -34 12 C-27.90894758 8.75243642 -21.65932525 5.89278338 -15.3125 3.1875 C-14.60037354 2.87353271 -13.88824707 2.55956543 -13.15454102 2.23608398 C-8.61800678 0.33713087 -5.00690587 -0.43063247 0 0 Z " fill="#000000" transform="translate(110,313)"/>
<path d="M0 0 C3.125 0.375 3.125 0.375 6 1 C7.35711229 5.48387408 6.55706934 8.0129451 4.796875 12.2890625 C4.31089844 13.47757812 3.82492188 14.66609375 3.32421875 15.890625 C3.06560059 16.50357422 2.80698242 17.11652344 2.54052734 17.74804688 C1.75203649 19.62016476 0.98597809 21.50031242 0.22265625 23.3828125 C-4.11644728 33.86043783 -4.11644728 33.86043783 -7 36 C-11.42105263 35.57894737 -11.42105263 35.57894737 -13 34 C-13.36496163 29.31789278 -12.50228136 26.08406936 -10.6640625 21.796875 C-10.17679688 20.6521875 -9.68953125 19.5075 -9.1875 18.328125 C-8.671875 17.14734375 -8.15625 15.9665625 -7.625 14.75 C-7.11710938 13.55375 -6.60921875 12.3575 -6.0859375 11.125 C-2.28664435 2.28664435 -2.28664435 2.28664435 0 0 Z " fill="#000000" transform="translate(192,400)"/>
<path d="M0 0 C5.92137149 0.47985972 11.09322195 3.14744483 16.51269531 5.4519043 C18.30707031 6.17603516 18.30707031 6.17603516 20.13769531 6.91479492 C21.27722656 7.3949707 22.41675781 7.87514648 23.59082031 8.36987305 C24.63141602 8.80452881 25.67201172 9.23918457 26.74414062 9.68701172 C29.26269531 11.2644043 29.26269531 11.2644043 30.703125 13.80078125 C31.26269531 16.2644043 31.26269531 16.2644043 29.88769531 18.5769043 C29.35144531 19.1337793 28.81519531 19.6906543 28.26269531 20.2644043 C21.35590141 19.32054255 15.35843616 16.72174106 8.95019531 14.0769043 C7.74556641 13.60704102 6.5409375 13.13717773 5.29980469 12.65307617 C4.15705078 12.18063477 3.01429688 11.70819336 1.83691406 11.22143555 C0.26816528 10.58685425 0.26816528 10.58685425 -1.33227539 9.93945312 C-3.73730469 8.2644043 -3.73730469 8.2644043 -4.71069336 5.20458984 C-4.7194751 4.23432861 -4.72825684 3.26406738 -4.73730469 2.2644043 C-2.73730469 0.2644043 -2.73730469 0.2644043 0 0 Z " fill="#000000" transform="translate(405.7373046875,312.735595703125)"/>
<path d="M0 0 C3 0.125 3 0.125 4 1.125 C4.33951459 6.22755418 3.65678119 9.79261912 1.62890625 14.4609375 C1.13712891 15.60691406 0.64535156 16.75289062 0.13867188 17.93359375 C-0.38146484 19.11050781 -0.90160156 20.28742188 -1.4375 21.5 C-1.95376953 22.70011719 -2.47003906 23.90023437 -3.00195312 25.13671875 C-6.81566871 33.94066871 -6.81566871 33.94066871 -8 35.125 C-9.99958364 35.16580783 -12.00045254 35.16754356 -14 35.125 C-15.79125971 31.89167922 -16.11172779 30.54319297 -15.14135742 26.91113281 C-14.63451416 25.72874023 -14.1276709 24.54634766 -13.60546875 23.328125 C-13.33865799 22.69388611 -13.07184723 22.05964722 -12.79695129 21.40618896 C-11.9432076 19.38849524 -11.06556456 17.38221086 -10.1875 15.375 C-9.60718691 14.00976691 -9.02839317 12.64388693 -8.45117188 11.27734375 C-3.71836773 0.15493199 -3.71836773 0.15493199 0 0 Z " fill="#000000" transform="translate(329,74.875)"/>
<path d="M0 0 C2.625 0.5625 2.625 0.5625 5 2 C6 4.4375 6 4.4375 6 7 C4.875 8.875 4.875 8.875 3 10 C-1.42105263 9.57894737 -1.42105263 9.57894737 -3 8 C-3.25 5.0625 -3.25 5.0625 -3 2 C-2.01 1.34 -1.02 0.68 0 0 Z " fill="#000000" transform="translate(335,444)"/>
<path d="M0 0 C2.5 0.25 2.5 0.25 4.5 2.25 C4.75 4.75 4.75 4.75 4.5 7.25 C2.5 9.25 2.5 9.25 0 9.5 C-2.5 9.25 -2.5 9.25 -4.5 7.25 C-4.75 4.75 -4.75 4.75 -4.5 2.25 C-2.5 0.25 -2.5 0.25 0 0 Z " fill="#000000" transform="translate(62.5,330.75)"/>
<path d="M0 0 C3.0625 -0.25 3.0625 -0.25 6 0 C7 1 7 1 7.1875 3.9375 C7 7 7 7 5 9 C1.875 8.625 1.875 8.625 -1 8 C-1.625 5.6875 -1.625 5.6875 -2 3 C-1.34 2.01 -0.68 1.02 0 0 Z " fill="#000000" transform="translate(341,463)"/>
<path d="M0 0 C2.875 -0.125 2.875 -0.125 6 0 C6.66 0.66 7.32 1.32 8 2 C7.625 5.125 7.625 5.125 7 8 C4.125 8.625 4.125 8.625 1 9 C0.34 8.34 -0.32 7.68 -1 7 C-0.625 3.375 -0.625 3.375 0 0 Z " fill="#000000" transform="translate(165,463)"/>
<path d="M0 0 C2.6875 0.875 2.6875 0.875 5 2 C5 3.98 5 5.96 5 8 C2.75 9.1875 2.75 9.1875 0 10 C-2.3125 8.625 -2.3125 8.625 -4 7 C-3.6875 4.625 -3.6875 4.625 -3 2 C-2.01 1.34 -1.02 0.68 0 0 Z " fill="#000000" transform="translate(175,444)"/>
<path d="M0 0 C3.0625 -0.25 3.0625 -0.25 6 0 C7 1 7 1 7.1875 3.9375 C7 7 7 7 5 9 C1.875 8.625 1.875 8.625 -1 8 C-1.625 5.6875 -1.625 5.6875 -2 3 C-1.34 2.01 -0.68 1.02 0 0 Z " fill="#000000" transform="translate(237,364)"/>
<path d="M0 0 C1.8125 1.4375 1.8125 1.4375 2.75 3.875 C2.8125 6.4375 2.8125 6.4375 1.6875 8.3125 C-0.1875 9.4375 -0.1875 9.4375 -2.8125 9.1875 C-5.1875 8.4375 -5.1875 8.4375 -6.1875 7.4375 C-6.22830783 5.43791636 -6.23004356 3.43704746 -6.1875 1.4375 C-3.81799524 -0.08575306 -2.78817159 -0.71695841 0 0 Z " fill="#000000" transform="translate(470.1875,338.5625)"/>
<path d="M0 0 C2.5625 0.1875 2.5625 0.1875 4.5625 2.1875 C4.8125 4.6875 4.8125 4.6875 4.5625 7.1875 C2.5625 9.1875 2.5625 9.1875 0.0625 9.5 C-1.175 9.3453125 -1.175 9.3453125 -2.4375 9.1875 C-4.4375 6.1875 -4.4375 6.1875 -4.125 3.5625 C-3.16420807 0.24340062 -3.16420807 0.24340062 0 0 Z " fill="#000000" transform="translate(449.4375,330.8125)"/>
<path d="M0 0 C3.125 0.375 3.125 0.375 6 1 C6.625 3.875 6.625 3.875 7 7 C5 9 5 9 2.5 9.25 C0 9 0 9 -2 7 C-2.25 4.5 -2.25 4.5 -2 2 C-1.34 1.34 -0.68 0.68 0 0 Z " fill="#000000" transform="translate(334,57)"/>
<path d="M0 0 C3 0.125 3 0.125 4 1.125 C4.1875 4.0625 4.1875 4.0625 4 7.125 C3.34 7.785 2.68 8.445 2 9.125 C-1.29714793 8.79528521 -2.6226839 8.5023161 -5 6.125 C-4.27477017 0.17811542 -4.27477017 0.17811542 0 0 Z " fill="#000000" transform="translate(344,38.875)"/>
<path d="M0 0 C1.98 0 3.96 0 6 0 C7.1875 2.25 7.1875 2.25 8 5 C6.625 7.3125 6.625 7.3125 5 9 C2.625 8.75 2.625 8.75 0 8 C-1.4375 6.1875 -1.4375 6.1875 -2 4 C-1.125 1.75 -1.125 1.75 0 0 Z " fill="#000000" transform="translate(41,339)"/>
</svg>
