<svg width="120" height="120" viewBox="0 0 120 120" fill="none" xmlns="http://www.w3.org/2000/svg">
  <rect width="120" height="120" rx="24" fill="#1a1a1a"/>
  <path d="M35 45C35 41.6863 37.6863 39 41 39H51C54.3137 39 57 41.6863 57 45V51C57 54.3137 54.3137 57 51 57H41C37.6863 57 35 54.3137 35 51V45Z" fill="white"/>
  <path d="M63 45C63 41.6863 65.6863 39 69 39H79C82.3137 39 85 41.6863 85 45V51C85 54.3137 82.3137 57 79 57H69C65.6863 57 63 54.3137 63 51V45Z" fill="white"/>
  <path d="M35 63C35 59.6863 37.6863 57 41 57H51C54.3137 57 57 59.6863 57 63V79C57 82.3137 54.3137 85 51 85H41C37.6863 85 35 82.3137 35 79V63Z" fill="white"/>
  <path d="M63 69C63 65.6863 65.6863 63 69 63H79C82.3137 63 85 65.6863 85 69V79C85 82.3137 82.3137 85 79 85H69C65.6863 85 63 82.3137 63 79V69Z" fill="white"/>
  <circle cx="46" cy="46" r="3" fill="#1a1a1a"/>
  <circle cx="74" cy="46" r="3" fill="#1a1a1a"/>
  <circle cx="46" cy="71" r="3" fill="#1a1a1a"/>
  <circle cx="74" cy="74" r="3" fill="#1a1a1a"/>
</svg>
