<?xml version="1.0" encoding="UTF-8"?>
<svg version="1.1" xmlns="http://www.w3.org/2000/svg" width="128" height="128">
<path d="M0 0 C2.64 0 5.28 0 8 0 C8.07011385 13.86467618 8.12280026 27.72932482 8.15543652 41.59414196 C8.17109943 48.03198071 8.19234946 54.46970045 8.22631836 60.9074707 C8.25888899 67.11903874 8.2768483 73.33049222 8.28463173 79.54213905 C8.29017933 81.91323971 8.30101226 84.28433402 8.31719017 86.65538597 C8.33893347 89.97376482 8.34196816 93.29166892 8.34057617 96.61010742 C8.351362 97.59266006 8.36214783 98.57521271 8.3732605 99.58753967 C8.33432588 108.15230069 8.33432588 108.15230069 5 112 C4.34 112 3.68 112 3 112 C-0.97677814 107.4109325 -0.40350012 102.34226766 -0.34057617 96.61010742 C-0.34101425 95.56574524 -0.34145233 94.52138306 -0.34190369 93.44537354 C-0.33981617 89.99854746 -0.31648619 86.55220971 -0.29296875 83.10546875 C-0.28737268 80.71365118 -0.28310264 78.32183017 -0.28010559 75.93000793 C-0.26865775 69.63842251 -0.23919078 63.34704524 -0.20599365 57.05554199 C-0.17529165 50.63406185 -0.16159996 44.21254803 -0.14648438 37.79101562 C-0.11432129 25.19392167 -0.06370305 12.59697191 0 0 Z " fill="#000000" transform="translate(60,8)"/>
<path d="M0 0 C2.64 0 5.28 0 8 0 C8.162779 10.37087283 8.28686591 20.74143771 8.3626852 31.11333179 C8.39909038 35.93042704 8.44840465 40.74664308 8.52807617 45.56323242 C8.60459471 50.21877769 8.64608573 54.8734818 8.6641407 59.52960777 C8.67699327 61.29857296 8.70209103 63.06749635 8.7401104 64.83609962 C8.96090623 75.5409325 8.68220184 83.6443629 1 92 C0.67 92 0.34 92 0 92 C0 61.64 0 31.28 0 0 Z " fill="#000000" transform="translate(75,8)"/>
<path d="M0 0 C2.64 0 5.28 0 8 0 C8 30.36 8 60.72 8 92 C2.62511372 86.62511372 -0.436418 82.68927571 -0.49768066 74.98869324 C-0.47610901 73.8903289 -0.47610901 73.8903289 -0.45410156 72.76977539 C-0.45468567 71.97871399 -0.45526978 71.18765259 -0.45587158 70.37261963 C-0.45310416 67.78050514 -0.42207744 65.18956766 -0.390625 62.59765625 C-0.3831578 60.79162728 -0.37746713 58.98559016 -0.37347412 57.17955017 C-0.35825547 52.44307801 -0.31900649 47.70710223 -0.2746582 42.9708252 C-0.23362388 38.13100905 -0.21544572 33.29111212 -0.1953125 28.45117188 C-0.15250831 18.96723071 -0.08430299 9.48365675 0 0 Z " fill="#000000" transform="translate(45,8)"/>
<path d="M0 0 C2.64 0 5.28 0 8 0 C8.17847786 7.63107059 8.30048746 15.26159699 8.38452148 22.89428711 C8.41957698 25.48693963 8.46723622 28.07945523 8.52807617 30.67163086 C8.61364528 34.41294244 8.65284057 38.15241469 8.68359375 41.89453125 C8.71972275 43.04081497 8.75585175 44.18709869 8.79307556 45.36811829 C8.79716204 53.87247144 6.42281414 59.42618419 1 66 C0.67 66 0.34 66 0 66 C0 44.22 0 22.44 0 0 Z " fill="#000000" transform="translate(90,8)"/>
<path d="M0 0 C2.64 0 5.28 0 8 0 C8 21.78 8 43.56 8 66 C2.43139274 60.43139274 -0.17062575 56.98593246 -0.45410156 49.15649414 C-0.4534728 46.86595053 -0.43114264 44.57534155 -0.390625 42.28515625 C-0.38496521 41.07427841 -0.37930542 39.86340057 -0.37347412 38.61582947 C-0.35115882 34.76431042 -0.30096835 30.91373591 -0.25 27.0625 C-0.22992887 24.44467493 -0.21167918 21.82683522 -0.1953125 19.20898438 C-0.15130969 12.8056696 -0.08444461 6.4029023 0 0 Z " fill="#000000" transform="translate(30,8)"/>
<path d="M0 0 C2.64 0 5.28 0 8 0 C8.17541476 3.92813411 8.30114272 7.8546991 8.38452148 11.78588867 C8.43629172 13.76627894 8.52532358 15.7455839 8.61523438 17.72460938 C8.7785552 26.94057018 7.08611185 32.9377528 1 40 C0.67 40 0.34 40 0 40 C0 26.8 0 13.6 0 0 Z " fill="#000000" transform="translate(105,8)"/>
<path d="M0 0 C2.64 0 5.28 0 8 0 C8 13.2 8 26.4 8 40 C1.85327193 33.85327193 -0.21482954 30.61931358 -0.390625 21.97265625 C-0.36416534 19.33330509 -0.31761591 16.7004774 -0.25 14.0625 C-0.22990673 12.69729179 -0.21166094 11.33205507 -0.1953125 9.96679688 C-0.14834433 6.64379866 -0.08266726 3.32227008 0 0 Z " fill="#000000" transform="translate(15,8)"/>
<path d="M0 0 C2.64 0 5.28 0 8 0 C7.33694413 3.54734889 5.86707876 6.18009165 4 9.25 C3.46375 10.14203125 2.9275 11.0340625 2.375 11.953125 C1.92125 12.62859375 1.4675 13.3040625 1 14 C0.67 14 0.34 14 0 14 C0 9.38 0 4.76 0 0 Z " fill="#000000" transform="translate(120,8)"/>
<path d="M0 0 C2.64 0 5.28 0 8 0 C8 4.62 8 9.24 8 14 C4.17264978 10.17264978 2.38871602 7.69212075 0 3 C0 2.01 0 1.02 0 0 Z " fill="#000000" transform="translate(0,8)"/>
</svg>
