<?xml version="1.0" encoding="UTF-8"?>
<svg version="1.1" xmlns="http://www.w3.org/2000/svg" width="200" height="200">
<path d="M0 0 C1.4703923 -0.01051392 1.4703923 -0.01051392 2.9704895 -0.02124023 C6.17984151 -0.03870712 9.38829678 -0.02723749 12.59765625 -0.01367188 C14.84627449 -0.01637003 17.09489159 -0.02025514 19.34350586 -0.02526855 C24.04389615 -0.03114832 28.74398127 -0.02264955 33.44433594 -0.00390625 C39.44964392 0.01888198 45.45423665 0.00575076 51.45951843 -0.01819611 C56.09913458 -0.03269509 60.73858297 -0.02802925 65.37820435 -0.01768494 C67.59164516 -0.01502899 69.80510153 -0.01824725 72.01852417 -0.02760315 C75.11952687 -0.03783627 78.21939373 -0.02217286 81.3203125 0 C82.22242462 -0.00809692 83.12453674 -0.01619385 84.0539856 -0.02453613 C93.367782 0.0979692 101.17357737 3.21046177 107.96875 9.58007812 C112.79236426 15.10551155 114.77257733 21.35337588 114.8371582 28.59033203 C114.85641106 30.46841049 114.85641106 30.46841049 114.87605286 32.38442993 C114.88422345 33.75432945 114.89166657 35.12423347 114.8984375 36.49414062 C114.90251303 37.18624004 114.90658855 37.87833946 114.91078758 38.59141159 C114.93163855 42.25869191 114.94594127 45.92593498 114.95532227 49.59326172 C114.96635109 53.36249005 115.00071185 57.13112221 115.04049397 60.90014076 C115.06677747 63.81372087 115.07502467 66.72716186 115.07860374 69.64085007 C115.08344393 71.02899552 115.09498389 72.41713584 115.11364174 73.80516434 C115.2498357 84.61384737 113.84237444 92.78235984 106.49609375 100.98632812 C104.34427068 102.78104013 102.23896523 103.68339417 99.66015625 104.76757812 C94.16470332 107.24094144 92.73762921 110.50987408 90.2109375 115.79101562 C86.2738403 122.71316637 79.15083073 126.43947509 71.66015625 128.51757812 C68.22333102 128.93301067 64.82281 128.94842352 61.36376953 128.9375 C60.36429291 128.94596954 59.36481628 128.95443909 58.33505249 128.96316528 C55.05005973 128.98645349 51.76553762 128.98755935 48.48046875 128.98632812 C46.18415136 128.99343463 43.88783573 129.00113435 41.59152222 129.00939941 C36.78508566 129.0228255 31.97881331 129.02442135 27.17236328 129.01855469 C21.03016799 129.01266065 14.88876367 129.04324772 8.74672127 129.08367157 C4.00588782 129.10959153 -0.73475626 129.11242204 -5.47565079 129.10877991 C-7.73935051 129.11046713 -10.00305935 129.12007104 -12.2666893 129.13792419 C-15.4398789 129.16019821 -18.6114812 129.15036821 -21.78466797 129.1328125 C-22.70862366 129.14607574 -23.63257935 129.15933899 -24.58453369 129.17300415 C-33.11731601 129.06397998 -39.87552309 125.94354906 -46.21484375 120.26757812 C-54.61419525 111.13526435 -54.49502522 99.88286163 -54.5078125 88.15039062 C-54.5111409 87.07562469 -54.5144693 86.00085876 -54.51789856 84.89352417 C-54.52294077 82.62937851 -54.52530773 80.36522549 -54.52514648 78.10107422 C-54.52733246 74.66035583 -54.54551596 71.21995866 -54.56445312 67.77929688 C-54.56738782 65.56966254 -54.56937211 63.3600267 -54.5703125 61.15039062 C-54.57749802 60.13341095 -54.58468353 59.11643127 -54.59208679 58.06863403 C-54.56026654 47.99020829 -53.67200429 37.30279806 -46.546875 29.57226562 C-43.33525696 26.60291664 -40.89123332 24.70771246 -36.71484375 23.26757812 C-32.11614822 20.88306933 -31.12262471 17.76652014 -28.85546875 13.24414062 C-23.02413944 2.75375954 -11.21633721 -0.10067244 0 0 Z M-19.33984375 18.51757812 C-19.33984375 19.17757812 -19.33984375 19.83757813 -19.33984375 20.51757812 C-17.67853172 20.52637749 -17.67853172 20.52637749 -15.98365784 20.53535461 C-5.52314145 20.59267949 4.93716899 20.66549207 15.39747524 20.75329304 C20.77465236 20.79793458 26.1517548 20.83720444 31.52905273 20.86401367 C36.72281779 20.89010859 41.91629451 20.93055483 47.10988045 20.98076439 C49.08686792 20.99739128 51.06390521 21.00893148 53.04095268 21.01519203 C55.81984235 21.02487866 58.59800124 21.05299205 61.37670898 21.08520508 C62.18591797 21.08376999 62.99512695 21.0823349 63.82885742 21.08085632 C72.15600332 21.2165122 80.6565378 23.44231745 86.66015625 29.51757812 C91.14749748 35.75731221 93.73200237 40.94983978 93.86547852 48.65332031 C93.89539635 50.18445465 93.89539635 50.18445465 93.92591858 51.746521 C93.94263107 52.8414386 93.95934357 53.9363562 93.9765625 55.06445312 C93.9973436 56.19079163 94.01812469 57.31713013 94.03953552 58.4776001 C94.10489958 62.07419762 94.1638551 65.6708679 94.22265625 69.26757812 C94.26585395 71.70638772 94.30946865 74.14518997 94.35351562 76.58398438 C94.46056755 82.56177213 94.56235842 88.5396322 94.66015625 94.51757812 C98.40998208 92.81168252 100.26494133 90.90391646 102.66015625 87.51757812 C103.70509754 84.38275426 103.81825205 82.10423694 103.86889648 78.81201172 C103.8881871 77.64004242 103.90747772 76.46807312 103.92735291 75.2605896 C103.98517406 69.89070289 104.03469019 64.52097836 104.06518555 59.15087891 C104.08294941 56.32228847 104.11768898 53.49470434 104.16772461 50.66650391 C104.2398714 46.58284828 104.26220338 42.5002698 104.28125 38.41601562 C104.32299599 36.53116959 104.32299599 36.53116959 104.36558533 34.60824585 C104.349661 27.7731568 103.64995178 23.05841305 99.73207092 17.38833618 C93.76425104 11.99991586 87.78729217 10.92859887 79.95874023 11.01586914 C79.02271973 11.01046616 78.08669922 11.00506317 77.12231445 10.99949646 C74.04996435 10.98706079 70.97856074 11.0034648 67.90625 11.02148438 C65.75968883 11.02132928 63.61312739 11.01983857 61.46656799 11.01707458 C56.97701576 11.01569294 52.48778391 11.02821063 47.99829102 11.05102539 C42.25278575 11.07942616 36.5078118 11.07666474 30.76226711 11.06393528 C26.33294664 11.05697057 21.90374831 11.06477621 17.47444344 11.07719231 C15.35621675 11.08169787 13.23797691 11.08205145 11.11974907 11.07812691 C8.15695312 11.07520652 5.19488194 11.091761 2.23217773 11.11352539 C1.36289139 11.10902374 0.49360504 11.10452209 -0.40202332 11.09988403 C-8.0277233 11.19264573 -13.64351592 13.16648229 -19.33984375 18.51757812 Z M0.66015625 48.51757812 C0.66015625 65.67757812 0.66015625 82.83757812 0.66015625 100.51757812 C6.21329655 101.62820618 6.72826837 101.3787543 11.30859375 98.65039062 C12.39019775 98.01601074 13.47180176 97.38163086 14.58618164 96.72802734 C15.73624974 96.03355596 16.88590099 95.33839382 18.03515625 94.64257812 C19.20696757 93.9450612 20.37941491 93.24861168 21.55249023 92.55322266 C23.86688491 91.17899993 26.17586986 89.796812 28.48291016 88.41015625 C31.19266716 86.79604558 33.91852432 85.22743298 36.671875 83.68945312 C37.37199707 83.29226074 38.07211914 82.89506836 38.79345703 82.48583984 C40.59085122 81.46727098 42.39290566 80.45693785 44.1953125 79.44726562 C47.13409518 77.14653877 47.14204243 76.08111889 47.66015625 72.51757812 C40.7245457 67.68427255 33.49929818 63.52885004 26.09765625 59.45507812 C13.93373827 52.74071104 13.93373827 52.74071104 9.0703125 49.58398438 C4.95967095 47.09011391 4.95967095 47.09011391 0.66015625 48.51757812 Z " fill="#000000" transform="translate(69.33984375,35.482421875)"/>
</svg>
