<?xml version="1.0" standalone="no"?>
<!DOCTYPE svg PUBLIC "-//W3C//DTD SVG 20010904//EN"
 "http://www.w3.org/TR/2001/REC-SVG-20010904/DTD/svg10.dtd">
<svg version="1.0" xmlns="http://www.w3.org/2000/svg"
 width="128.000000pt" height="128.000000pt" viewBox="0 0 128.000000 128.000000"
 preserveAspectRatio="xMidYMid meet">

<g transform="translate(0.000000,128.000000) scale(0.100000,-0.100000)"
fill="#000000" stroke="none">
<path d="M363 1122 l-272 -157 0 -325 0 -325 275 -158 274 -157 275 157 274
158 0 325 0 325 -270 155 c-148 85 -273 156 -277 157 -4 1 -129 -69 -279 -155z
m234 -139 c-2 -2 -75 -2 -161 -1 l-157 3 158 91 158 91 3 -90 c1 -49 1 -91 -1
-94z m273 77 c69 -40 127 -74 129 -76 2 -2 -68 -4 -157 -4 l-162 0 0 96 0 96
33 -20 c17 -11 88 -52 157 -92z m-270 -255 l0 -96 -27 15 c-16 8 -91 51 -168
95 l-140 81 168 0 167 0 0 -95z m314 36 c-56 -32 -132 -75 -168 -96 l-66 -37
0 96 0 96 167 0 168 0 -101 -59z m-472 -129 c65 -37 118 -69 118 -72 0 -3 -12
-12 -28 -20 -15 -9 -52 -30 -82 -47 l-56 -32 -52 92 c-28 51 -66 116 -83 146
l-31 54 48 -27 c27 -15 102 -57 166 -94z m596 96 c-8 -13 -43 -74 -79 -137
-35 -62 -69 -115 -75 -117 -10 -5 -164 76 -163 86 0 5 319 190 328 190 2 0 -3
-10 -11 -22z m-801 -143 c39 -66 75 -130 81 -142 11 -20 7 -24 -65 -65 -43
-24 -81 -44 -85 -46 -5 -2 -8 83 -8 189 0 106 2 190 4 188 2 -2 35 -58 73
-124z m883 -66 l0 -191 -67 38 c-38 20 -76 42 -85 49 -16 10 -9 25 64 153 45
78 84 142 85 142 2 0 3 -86 3 -191z m-522 -306 l-3 -98 -77 135 c-43 75 -78
139 -78 142 0 4 35 28 78 52 l77 45 3 -89 c1 -49 1 -133 0 -187z m231 191 c12
-11 2 -34 -64 -148 -43 -75 -79 -136 -81 -136 -2 0 -4 84 -4 186 l0 186 68
-37 c37 -21 73 -43 81 -51z m-376 -192 c43 -73 77 -135 77 -137 0 -3 -202 111
-323 182 -4 3 29 26 75 53 46 26 86 45 89 41 3 -3 40 -66 82 -139z m586 75
l43 -25 -73 -42 c-41 -24 -114 -66 -164 -95 -49 -29 -91 -52 -93 -50 -1 1 34
66 79 144 l81 141 41 -24 c23 -14 62 -36 86 -49z"/>
</g>
</svg>
