<?xml version="1.0" encoding="UTF-8"?>
<svg version="1.1" xmlns="http://www.w3.org/2000/svg" width="512" height="512">
<path d="M0 0 C8.08705937 5.59393895 16.10459341 13.9136328 18.296875 23.76953125 C18.54384052 25.4093823 18.70212581 27.06222849 18.83984375 28.71484375 C20.80244141 28.90046875 20.80244141 28.90046875 22.8046875 29.08984375 C53.31013365 32.51702085 84.30630415 47.83105205 108.83984375 65.71484375 C109.39816895 66.11912598 109.95649414 66.5234082 110.53173828 66.93994141 C118.8063076 72.98241272 126.44878107 79.62219144 133.83984375 86.71484375 C134.76651855 87.59269531 134.76651855 87.59269531 135.71191406 88.48828125 C145.87505949 98.15505203 154.70424214 108.29408234 162.83984375 119.71484375 C163.49992432 120.62387451 163.49992432 120.62387451 164.17333984 121.55126953 C179.08746229 142.20203332 189.13122011 165.56560574 196.27734375 189.90234375 C196.52468262 190.73910645 196.77202148 191.57586914 197.02685547 192.43798828 C198.63153125 198.17290021 199.42526265 203.77775917 199.83984375 209.71484375 C201.11859375 209.92109375 202.39734375 210.12734375 203.71484375 210.33984375 C212.99595583 212.43792874 221.04393853 218.24346271 226.83984375 225.71484375 C233.80632842 237.52295938 235.91730767 249.54120617 233.15625 263.0625 C229.38539257 274.18731174 221.06836838 283.594347 210.71484375 289.15234375 C207.10980508 290.79560435 203.77512434 291.3869037 199.83984375 291.71484375 C199.71867187 293.01679688 199.5975 294.31875 199.47265625 295.66015625 C198.93812035 300.43000447 197.95843833 304.95923931 196.71484375 309.58984375 C196.49530029 310.40791504 196.27575684 311.22598633 196.04956055 312.06884766 C186.42678994 346.86526547 168.54482838 379.14558606 143.39306641 405.11035156 C142.28253961 406.25753517 141.17878663 407.41129172 140.07958984 408.56933594 C130.40813002 418.73953132 120.2675066 427.57432588 108.83984375 435.71484375 C107.93081299 436.37492432 107.93081299 436.37492432 107.00341797 437.04833984 C86.35265418 451.96246229 62.98908176 462.00622011 38.65234375 469.15234375 C37.81558105 469.39968262 36.97881836 469.64702148 36.11669922 469.90185547 C30.38178729 471.50653125 24.77692833 472.30026265 18.83984375 472.71484375 C18.53046875 474.63296875 18.53046875 474.63296875 18.21484375 476.58984375 C16.11675876 485.87095583 10.31122479 493.91893853 2.83984375 499.71484375 C-8.96827188 506.68132842 -20.98651867 508.79230767 -34.5078125 506.03125 C-45.63262424 502.26039257 -55.0396595 493.94336838 -60.59765625 483.58984375 C-62.24091685 479.98480508 -62.8322162 476.65012434 -63.16015625 472.71484375 C-64.46210938 472.59367187 -65.7640625 472.4725 -67.10546875 472.34765625 C-71.87531697 471.81312035 -76.40455181 470.83343833 -81.03515625 469.58984375 C-81.85322754 469.37030029 -82.67129883 469.15075684 -83.51416016 468.92456055 C-118.31057797 459.30178994 -150.59089856 441.41982838 -176.55566406 416.26806641 C-177.70284767 415.15753961 -178.85660422 414.05378663 -180.01464844 412.95458984 C-190.18484382 403.28313002 -199.01963838 393.1425066 -207.16015625 381.71484375 C-207.60020996 381.10882324 -208.04026367 380.50280273 -208.49365234 379.87841797 C-223.40777479 359.22765418 -233.45153261 335.86408176 -240.59765625 311.52734375 C-240.84499512 310.69058105 -241.09233398 309.85381836 -241.34716797 308.99169922 C-242.95184375 303.25678729 -243.74557515 297.65192833 -244.16015625 291.71484375 C-246.07828125 291.40546875 -246.07828125 291.40546875 -248.03515625 291.08984375 C-257.31626833 288.99175876 -265.36425103 283.18622479 -271.16015625 275.71484375 C-278.12664092 263.90672812 -280.23762017 251.88848133 -277.4765625 238.3671875 C-273.70570507 227.24237576 -265.38868088 217.8353405 -255.03515625 212.27734375 C-251.43011758 210.63408315 -248.09543684 210.0427838 -244.16015625 209.71484375 C-244.03640625 208.40644531 -243.91265625 207.09804687 -243.78515625 205.75 C-240.35797915 175.24455385 -225.04394795 144.24838335 -207.16015625 119.71484375 C-206.75587402 119.15651855 -206.3515918 118.59819336 -205.93505859 118.02294922 C-199.89258728 109.7483799 -193.25280856 102.10590643 -186.16015625 94.71484375 C-185.57492188 94.09706055 -184.9896875 93.47927734 -184.38671875 92.84277344 C-174.71994797 82.67962801 -164.58091766 73.85044536 -153.16015625 65.71484375 C-152.55413574 65.27479004 -151.94811523 64.83473633 -151.32373047 64.38134766 C-130.67296668 49.46722521 -107.30939426 39.42346739 -82.97265625 32.27734375 C-82.13589355 32.03000488 -81.29913086 31.78266602 -80.43701172 31.52783203 C-74.70209979 29.92315625 -69.09724083 29.12942485 -63.16015625 28.71484375 C-62.95390625 27.43609375 -62.74765625 26.15734375 -62.53515625 24.83984375 C-60.43707126 15.55873167 -54.63153729 7.51074897 -47.16015625 1.71484375 C-32.53790826 -6.91190667 -15.05466438 -8.95657248 0 0 Z M-35.97265625 19.27734375 C-40.29444699 24.09305343 -43.40451267 29.78381358 -43.72265625 36.33984375 C-43.24170748 43.34443102 -40.2271766 48.01404819 -35.09765625 52.65234375 C-30.06925105 56.88933009 -25.66269234 57.12066535 -19.23828125 57.05859375 C-13.20127916 56.38441078 -9.23749376 53.13687934 -5.28515625 48.71484375 C-1.37066614 43.18850477 -0.14208347 38.42776117 -1.16015625 31.71484375 C-3.10351011 25.87610649 -5.79202827 20.8697698 -11.15234375 17.62109375 C-20.09591148 13.58430831 -27.51440981 14.57831795 -35.97265625 19.27734375 Z M-112.16015625 65.71484375 C-112.9176416 66.07835938 -113.67512695 66.441875 -114.45556641 66.81640625 C-133.76091768 76.24233407 -150.49026744 89.0896142 -166.16015625 103.71484375 C-166.97226563 104.4728125 -167.784375 105.23078125 -168.62109375 106.01171875 C-175.06878387 112.23567199 -180.55643864 119.00787345 -185.95751953 126.13183594 C-187.0234545 127.53490584 -188.10440572 128.92653961 -189.1875 130.31640625 C-192.10993197 133.63583694 -192.10993197 133.63583694 -193.16015625 137.71484375 C-178.93576494 138.75315236 -164.71735956 139.52022304 -150.46259785 139.99457932 C-143.83813135 140.22256298 -137.23750959 140.52981906 -130.62670898 141.03417969 C-102.99548571 144.01523358 -102.99548571 144.01523358 -77.47026825 135.80874634 C-66.60085478 125.90151764 -60.09326297 112.39393375 -53.92953491 99.27307129 C-50.83089653 92.80729571 -46.94264082 86.98360449 -42.83512402 81.12273026 C-40.13604884 77.7430839 -40.13604884 77.7430839 -39.16015625 73.71484375 C-40.62393021 72.79998502 -42.13410114 71.95903855 -43.66015625 71.15234375 C-52.41712186 66.04204654 -57.74978411 59.20555044 -61.16015625 49.71484375 C-78.11527237 49.12263338 -97.14928432 58.51109538 -112.16015625 65.71484375 Z M16.83984375 49.71484375 C16.31197266 50.89240234 16.31197266 50.89240234 15.7734375 52.09375 C10.68664581 62.91812395 4.85360605 68.43571163 -5.16015625 74.71484375 C-1.66449787 81.28585995 2.2324906 87.46808921 6.42578125 93.61328125 C7.0457901 94.52888824 7.66579895 95.44449524 8.30459595 96.3878479 C10.27116405 99.29091527 12.2426827 102.19057365 14.21484375 105.08984375 C16.17909101 107.98248585 18.14222022 110.87587526 20.10366821 113.77041626 C21.31848427 115.5626314 22.53497193 117.35371517 23.75350952 119.1434021 C24.31744415 119.97441437 24.88137878 120.80542664 25.46240234 121.66162109 C26.33338814 122.88267799 26.33338814 122.88267799 27.2219696 124.12840271 C28.83984375 126.71484375 28.83984375 126.71484375 29.93000793 129.75648499 C31.47225256 133.4893053 32.58547466 135.26991358 35.83984375 137.71484375 C44.01645966 139.81761105 52.88390059 138.98780318 61.2421875 138.7890625 C63.76563628 138.76853774 66.28912899 138.75288363 68.81263733 138.74189758 C74.76683684 138.70424517 80.71903678 138.61763696 86.67221028 138.5070532 C93.45306292 138.38384549 100.23402588 138.32355906 107.01572025 138.26840341 C120.95833082 138.15360587 134.89896459 137.96028903 148.83984375 137.71484375 C147.73743465 135.95896483 146.6319339 134.20502672 145.52514648 132.4519043 C144.9098558 131.47497116 144.29456512 130.49803802 143.66062927 129.49150085 C141.32025483 125.92248229 138.7363456 122.71005443 135.90234375 119.52734375 C135.35441162 118.90569336 134.80647949 118.28404297 134.24194336 117.64355469 C106.95559797 87.07185852 74.4455727 65.33246812 35.15234375 53.27734375 C34.35135254 53.03016602 33.55036133 52.78298828 32.72509766 52.52832031 C27.4275105 50.97483418 22.34069637 50.1919865 16.83984375 49.71484375 Z M-23.16015625 88.71484375 C-24.57887437 90.37013219 -24.57887437 90.37013219 -26.00170898 92.56689453 C-26.57247665 93.40842072 -27.14324432 94.2499469 -27.73130798 95.11697388 C-28.65321678 96.49959915 -28.65321678 96.49959915 -29.59375 97.91015625 C-30.54436058 99.32045609 -30.54436058 99.32045609 -31.51417542 100.75924683 C-32.85816916 102.75625313 -34.19880415 104.75552327 -35.53637695 106.75683594 C-37.57819326 109.81073341 -39.63091637 112.85705696 -41.68554688 115.90234375 C-42.98893887 117.84200618 -44.29169375 119.78209691 -45.59375 121.72265625 C-46.20633163 122.63226105 -46.81891327 123.54186584 -47.45005798 124.47903442 C-48.02397781 125.33947357 -48.59789764 126.19991272 -49.18920898 127.08642578 C-49.69169662 127.83699249 -50.19418427 128.5875592 -50.7118988 129.36087036 C-52.36504778 132.047871 -53.74927894 134.89308912 -55.16015625 137.71484375 C-33.38015625 137.71484375 -11.60015625 137.71484375 10.83984375 137.71484375 C7.00502385 130.72124467 7.00502385 130.72124467 2.82543945 124.02124023 C2.29171219 123.22108994 1.75798492 122.42093964 1.20808411 121.59654236 C0.37031685 120.35379295 0.37031685 120.35379295 -0.484375 119.0859375 C-1.07185013 118.21083023 -1.65932526 117.33572296 -2.26460266 116.43409729 C-3.49553361 114.60345868 -4.72840242 112.77412172 -5.96313477 110.94604492 C-7.86012077 108.13386578 -9.74566367 105.31423302 -11.63085938 102.49414062 C-12.83134412 100.71177659 -14.03249191 98.92985891 -15.234375 97.1484375 C-15.7989592 96.30171982 -16.3635434 95.45500214 -16.94523621 94.58262634 C-17.46950699 93.81084549 -17.99377777 93.03906464 -18.53393555 92.24389648 C-18.9940654 91.56044662 -19.45419525 90.87699677 -19.92826843 90.1728363 C-20.33479141 89.69169876 -20.74131439 89.21056122 -21.16015625 88.71484375 C-21.82015625 88.71484375 -22.48015625 88.71484375 -23.16015625 88.71484375 Z M-191.16015625 158.71484375 C-189.71645961 162.32408536 -188.62747686 164.75558844 -186.52490234 167.84887695 C-185.73094307 169.02457748 -185.73094307 169.02457748 -184.92094421 170.22402954 C-184.34761856 171.06275604 -183.77429291 171.90148254 -183.18359375 172.765625 C-182.58517166 173.64930756 -181.98674957 174.53299011 -181.37019348 175.44345093 C-179.42940586 178.30764003 -177.48226906 181.16745182 -175.53515625 184.02734375 C-173.54850067 186.956336 -171.56348139 189.88643285 -169.57847595 192.81654358 C-168.2685435 194.74981739 -166.95804979 196.68271104 -165.64698792 198.61521912 C-160.51094688 206.18699708 -155.41334005 213.78335794 -150.34765625 221.40234375 C-149.3728833 222.86764526 -149.3728833 222.86764526 -148.37841797 224.36254883 C-146.97123378 226.47925593 -145.56497365 228.59656547 -144.16015625 230.71484375 C-140.73810692 229.57416064 -140.45371236 229.06099522 -138.60546875 226.1328125 C-138.08686279 225.32368408 -137.56825684 224.51455566 -137.03393555 223.6809082 C-136.45683838 222.76398193 -135.87974121 221.84705566 -135.28515625 220.90234375 C-133.96285027 218.8360143 -132.63842672 216.77103921 -131.3125 214.70703125 C-130.74874413 213.82719322 -130.74874413 213.82719322 -130.17359924 212.92958069 C-126.42853733 207.09852213 -122.61139611 201.31576394 -118.7890625 195.53515625 C-118.13971741 194.55281509 -117.49037231 193.57047394 -116.8213501 192.55836487 C-114.16601378 188.5424597 -111.50982818 184.52712072 -108.85137939 180.51327515 C-106.9561918 177.65080441 -105.06379642 174.78650516 -103.171875 171.921875 C-102.59538712 171.0529361 -102.01889923 170.18399719 -101.42494202 169.28872681 C-100.62617897 168.07810074 -100.62617897 168.07810074 -99.8112793 166.84301758 C-99.34578171 166.13961746 -98.88028412 165.43621735 -98.40068054 164.71150208 C-97.20162222 162.78158438 -96.17625892 160.74704909 -95.16015625 158.71484375 C-126.84015625 158.71484375 -158.52015625 158.71484375 -191.16015625 158.71484375 Z M-87.60986328 175.48321533 C-91.12153873 182.37330812 -94.02737492 189.38813007 -96.67675781 196.6484375 C-100.18889272 205.84411175 -105.98659569 213.54934397 -111.72390747 221.47012329 C-114.46560468 225.28337087 -117.08708602 229.17550936 -119.7109375 233.0703125 C-120.16528168 233.7348645 -120.61962585 234.3994165 -121.08773804 235.08410645 C-123.21427422 237.68552611 -123.21427422 237.68552611 -124.16015625 240.71484375 C-107.66015625 240.71484375 -91.16015625 240.71484375 -74.16015625 240.71484375 C-73.17015625 237.41484375 -72.18015625 234.11484375 -71.16015625 230.71484375 C-65.38883777 217.14350091 -55.61513888 207.48254219 -42.2734375 201.3984375 C-31.09074113 197.28904716 -15.69245473 196.38733677 -4.375 200.68359375 C-3.64410156 201.02390625 -2.91320312 201.36421875 -2.16015625 201.71484375 C-1.27457031 202.11703125 -0.38898438 202.51921875 0.5234375 202.93359375 C11.95315896 208.64052818 19.76737212 216.54149594 25.83984375 227.71484375 C27.15984375 232.00484375 28.47984375 236.29484375 29.83984375 240.71484375 C46.33984375 240.71484375 62.83984375 240.71484375 79.83984375 240.71484375 C75.41748461 233.76542224 70.98120852 226.83865273 66.4453125 219.96484375 C65.85422195 219.06781738 65.26313141 218.17079102 64.65412903 217.24658203 C63.40664257 215.35388774 62.15872756 213.46147584 60.91040039 211.56933594 C58.45667427 207.849776 56.00357559 204.12984135 53.56138611 200.4026947 C52.30594636 198.51029085 51.0296883 196.63155143 49.73414612 194.76637268 C46.50854519 190.0717916 43.6544253 185.51504941 41.36533928 180.28496265 C37.50626302 171.52778274 32.95722344 161.69602398 23.62779617 157.78830719 C10.24412191 153.6169179 -4.30534591 153.94930679 -18.17515182 154.217556 C-21.48645257 154.27759389 -24.79590472 154.29345581 -28.10769653 154.30410767 C-62.87732348 154.00458758 -62.87732348 154.00458758 -87.60986328 175.48321533 Z M50.83984375 158.71484375 C54.66645743 165.70354566 54.66645743 165.70354566 58.86328125 172.36645508 C59.40154541 173.1621138 59.93980957 173.95777252 60.49438477 174.77754211 C61.06213623 175.60892197 61.6298877 176.44030182 62.21484375 177.296875 C62.82062256 178.19113693 63.42640137 179.08539886 64.05053711 180.00675964 C65.97678204 182.84936438 67.90793034 185.68858912 69.83984375 188.52734375 C72.36317188 192.24049973 74.88402122 195.95532231 77.40234375 199.671875 C78.01843506 200.58091583 78.63452637 201.48995667 79.26928711 202.42654419 C85.58618324 211.77365548 91.73302991 221.2295206 97.83984375 230.71484375 C101.29693799 229.562479 101.6538425 228.91357457 103.57275391 225.95898438 C104.09879715 225.15804352 104.62484039 224.35710266 105.16682434 223.53189087 C105.73181137 222.65382782 106.2967984 221.77576477 106.87890625 220.87109375 C107.47317917 219.9623349 108.06745209 219.05357605 108.67973328 218.11727905 C110.61542715 215.15450576 112.540082 212.1847281 114.46484375 209.21484375 C117.09285701 205.18391039 119.72613923 201.15642927 122.359375 197.12890625 C123.32948769 195.64259201 123.32948769 195.64259201 124.31919861 194.12625122 C130.16978891 185.17511295 136.16283461 176.32942863 142.26611328 167.54882812 C142.88470215 166.65228516 143.50329102 165.75574219 144.140625 164.83203125 C144.66825439 164.07519043 145.19588379 163.31834961 145.73950195 162.53857422 C147.01204416 160.78442897 147.01204416 160.78442897 146.83984375 158.71484375 C115.15984375 158.71484375 83.47984375 158.71484375 50.83984375 158.71484375 Z M-211.16015625 168.71484375 C-219.99157355 189.6021098 -219.99157355 189.6021098 -223.16015625 211.71484375 C-221.98259766 212.24271484 -221.98259766 212.24271484 -220.78125 212.78125 C-207.0275237 219.24465758 -202.03385863 227.00953819 -196.16015625 240.71484375 C-185.27015625 240.71484375 -174.38015625 240.71484375 -163.16015625 240.71484375 C-164.60385289 237.10560214 -165.69283564 234.67409906 -167.79541016 231.58081055 C-168.32472137 230.79701019 -168.85403259 230.01320984 -169.39938354 229.20565796 C-169.97270416 228.36693146 -170.54602478 227.52820496 -171.13671875 226.6640625 C-171.73509552 225.78037994 -172.33347229 224.89669739 -172.94998169 223.98623657 C-174.89070929 221.1219741 -176.8378446 218.26213304 -178.78515625 215.40234375 C-180.77283289 212.47333034 -182.75899825 209.54329647 -184.74499512 206.61314392 C-186.05541255 204.67988842 -187.36636412 202.74699486 -188.67785645 200.81446838 C-192.34673112 195.40526381 -195.9961484 189.9842846 -199.60546875 184.53515625 C-199.98889435 183.95657364 -200.37231995 183.37799103 -200.7673645 182.78187561 C-202.46776664 180.21346122 -204.16325089 177.6419164 -205.85400391 175.06713867 C-206.42425293 174.20451416 -206.99450195 173.34188965 -207.58203125 172.453125 C-208.0625293 171.72134033 -208.54302734 170.98955566 -209.03808594 170.2355957 C-209.40836914 169.73374756 -209.77865234 169.23189941 -210.16015625 168.71484375 C-210.49015625 168.71484375 -210.82015625 168.71484375 -211.16015625 168.71484375 Z M164.83984375 169.71484375 C163.51986604 171.2756065 163.51986604 171.2756065 162.22045898 173.35717773 C161.69434021 174.15819412 161.16822144 174.95921051 160.62615967 175.78450012 C160.05601135 176.66772446 159.48586304 177.55094879 158.8984375 178.4609375 C158.30274963 179.3711113 157.70706177 180.2812851 157.09332275 181.21903992 C155.1484762 184.19281812 153.21296548 187.17255476 151.27734375 190.15234375 C148.63998191 194.19224148 145.99793766 198.22906646 143.35546875 202.265625 C142.70563522 203.2595929 142.0558017 204.25356079 141.38627625 205.27764893 C135.5222597 214.23372977 129.52353112 223.09044862 123.41381836 231.88061523 C122.79514893 232.77723877 122.17647949 233.6738623 121.5390625 234.59765625 C121.01143311 235.35449707 120.48380371 236.11133789 119.94018555 236.89111328 C118.66764334 238.64525853 118.66764334 238.64525853 118.83984375 240.71484375 C129.72984375 240.71484375 140.61984375 240.71484375 151.83984375 240.71484375 C153.01546875 238.21921875 154.19109375 235.72359375 155.40234375 233.15234375 C161.0708691 221.67165516 167.07578955 216.98838529 178.83984375 211.71484375 C178.28600957 205.14795275 177.05040307 199.24696074 175.08984375 192.96484375 C174.8254248 192.09956055 174.56100586 191.23427734 174.28857422 190.34277344 C172.11383295 183.33831054 169.63690252 176.49709244 166.83984375 169.71484375 C166.17984375 169.71484375 165.51984375 169.71484375 164.83984375 169.71484375 Z M-254.16015625 237.90234375 C-257.24398502 242.99066122 -258.65677046 248.4915364 -257.74609375 254.40234375 C-256.15163652 260.28957046 -254.25484825 264.70385256 -248.99609375 268.12109375 C-243.3960031 271.2418873 -238.55579311 272.93140511 -232.16015625 271.71484375 C-225.49999072 269.71430895 -221.1195773 265.30393955 -217.16015625 259.71484375 C-215.33247248 254.23179244 -214.99656872 247.7843074 -217.06640625 242.32421875 C-220.50918311 236.54211916 -225.48702497 231.42192384 -232.16015625 229.71484375 C-240.52577124 228.48166544 -248.75212203 231.19001892 -254.16015625 237.90234375 Z M172.83984375 241.71484375 C171.01215998 247.19789506 170.67625622 253.6453801 172.74609375 259.10546875 C176.18887061 264.88756834 181.16671247 270.00776366 187.83984375 271.71484375 C195.14274812 272.7913675 200.80446858 270.87207769 206.83984375 266.71484375 C211.10557405 262.78797988 212.84143536 257.9868334 213.75390625 252.33984375 C213.94049272 246.64047508 212.00731175 241.81628615 209.27734375 236.90234375 C204.46163407 232.58055301 198.77087392 229.47048733 192.21484375 229.15234375 C183.44345808 229.75460439 177.77835517 234.74366965 172.83984375 241.71484375 Z M-29.16015625 243.71484375 C-31.80276252 247.34842737 -32.27955703 248.93210531 -31.59765625 253.40234375 C-30.11453749 256.81996525 -29.42038352 258.03815544 -26.16015625 259.71484375 C-22.8237011 260.94406407 -21.4384649 260.80946869 -18.03515625 259.65234375 C-14.52994339 257.29013508 -13.40203906 255.7509629 -12.16015625 251.71484375 C-12.73676123 247.9348778 -13.29422317 245.61063659 -15.97265625 242.83984375 C-21.20946185 240.14662944 -24.19985052 240.37202902 -29.16015625 243.71484375 Z M-196.16015625 260.71484375 C-197.92359375 264.45828125 -197.92359375 264.45828125 -199.72265625 268.27734375 C-205.3911816 279.75803234 -211.39610205 284.44130221 -223.16015625 289.71484375 C-222.60632207 296.28173475 -221.37071557 302.18272676 -219.41015625 308.46484375 C-219.1457373 309.33012695 -218.88131836 310.19541016 -218.60888672 311.08691406 C-216.43414545 318.09137696 -213.95721502 324.93259506 -211.16015625 331.71484375 C-210.50015625 331.71484375 -209.84015625 331.71484375 -209.16015625 331.71484375 C-207.84017854 330.154081 -207.84017854 330.154081 -206.54077148 328.07250977 C-206.01465271 327.27149338 -205.48853394 326.47047699 -204.94647217 325.64518738 C-204.37632385 324.76196304 -203.80617554 323.87873871 -203.21875 322.96875 C-202.3252182 321.6034893 -202.3252182 321.6034893 -201.41363525 320.21064758 C-199.4687887 317.23686938 -197.53327798 314.25713274 -195.59765625 311.27734375 C-192.96029441 307.23744602 -190.31825016 303.20062104 -187.67578125 299.1640625 C-187.02594772 298.1700946 -186.3761142 297.17612671 -185.70658875 296.15203857 C-179.8425722 287.19595773 -173.84384362 278.33923888 -167.73413086 269.54907227 C-166.80612671 268.20413696 -166.80612671 268.20413696 -165.859375 266.83203125 C-165.33174561 266.07519043 -164.80411621 265.31834961 -164.26049805 264.53857422 C-162.98795584 262.78442897 -162.98795584 262.78442897 -163.16015625 260.71484375 C-174.05015625 260.71484375 -184.94015625 260.71484375 -196.16015625 260.71484375 Z M-124.16015625 260.71484375 C-119.73779711 267.66426526 -115.30152102 274.59103477 -110.765625 281.46484375 C-110.17453445 282.36187012 -109.58344391 283.25889648 -108.97444153 284.18310547 C-107.72695507 286.07579976 -106.47904006 287.96821166 -105.23071289 289.86035156 C-102.77698677 293.5799115 -100.32388809 297.29984615 -97.88169861 301.0269928 C-96.62625886 302.91939665 -95.3500008 304.79813607 -94.05445862 306.66331482 C-90.82885769 311.3578959 -87.9747378 315.91463809 -85.68565178 321.14472485 C-81.82657552 329.90190476 -77.27753594 339.73366352 -67.94810867 343.64138031 C-54.56443441 347.8127696 -40.01496659 347.48038071 -26.14516068 347.2121315 C-22.83385993 347.15209361 -19.52440778 347.13623169 -16.21261597 347.12557983 C11.25993683 347.59197997 11.25993683 347.59197997 35.42266846 336.58651733 C43.81755307 327.55928179 48.18714295 316.20670949 52.35644531 304.78125 C55.86858022 295.58557575 61.66628319 287.88034353 67.40359497 279.95956421 C70.14529218 276.14631663 72.76677352 272.25417814 75.390625 268.359375 C76.07214127 267.362547 76.07214127 267.362547 76.76742554 266.34558105 C78.89396172 263.74416139 78.89396172 263.74416139 79.83984375 260.71484375 C63.33984375 260.71484375 46.83984375 260.71484375 29.83984375 260.71484375 C28.84984375 264.01484375 27.85984375 267.31484375 26.83984375 270.71484375 C21.06852527 284.28618659 11.29482638 293.94714531 -2.046875 300.03125 C-14.11354484 304.46548079 -30.27050239 305.04244821 -42.16015625 299.71484375 C-43.36091797 299.23917969 -43.36091797 299.23917969 -44.5859375 298.75390625 C-56.15924444 293.6782102 -64.26047084 284.67140236 -70.16015625 273.71484375 C-71.48015625 269.42484375 -72.80015625 265.13484375 -74.16015625 260.71484375 C-90.66015625 260.71484375 -107.16015625 260.71484375 -124.16015625 260.71484375 Z M118.83984375 260.71484375 C120.28738658 264.33370082 121.37960749 266.76497966 123.4909668 269.86474609 C124.02347046 270.65173386 124.55597412 271.43872162 125.10461426 272.2495575 C125.96935364 273.51241325 125.96935364 273.51241325 126.8515625 274.80078125 C127.75316101 276.13040642 127.75316101 276.13040642 128.67297363 277.4868927 C130.62025556 280.35740351 132.57372161 283.22364515 134.52734375 286.08984375 C137.17592845 289.98772032 139.82109282 293.88790609 142.46484375 297.7890625 C143.1105986 298.74136246 143.75635345 299.69366241 144.42167664 300.67481995 C150.01449758 308.93825382 155.48225054 317.27566079 160.80151367 325.71826172 C161.32334229 326.53568848 161.8451709 327.35311523 162.3828125 328.1953125 C162.8161792 328.88520264 163.2495459 329.57509277 163.69604492 330.28588867 C164.07349854 330.75744385 164.45095215 331.22899902 164.83984375 331.71484375 C165.49984375 331.71484375 166.15984375 331.71484375 166.83984375 331.71484375 C170.50374759 322.19080554 174.02298717 312.67200625 176.77734375 302.83984375 C176.98834717 302.09814941 177.19935059 301.35645508 177.41674805 300.59228516 C178.42186743 296.88993195 179.0884036 293.55622326 178.83984375 289.71484375 C178.05480469 289.36292969 177.26976562 289.01101563 176.4609375 288.6484375 C162.7072112 282.18502992 157.71354613 274.42014931 151.83984375 260.71484375 C140.94984375 260.71484375 130.05984375 260.71484375 118.83984375 260.71484375 Z M-144.16015625 270.71484375 C-145.47175968 272.22029624 -145.47175968 272.22029624 -146.76367188 274.23364258 C-147.54806892 275.39558136 -147.54806892 275.39558136 -148.34831238 276.58099365 C-148.91528336 277.4359845 -149.48225433 278.29097534 -150.06640625 279.171875 C-150.95583672 280.49557098 -150.95583672 280.49557098 -151.86323547 281.8460083 C-153.80226356 284.7353472 -155.73139018 287.63114651 -157.66015625 290.52734375 C-158.97953447 292.49896955 -160.29944092 294.47024197 -161.61987305 296.44116211 C-164.2481695 300.36651785 -166.87247185 304.29449867 -169.49365234 308.22460938 C-172.67740799 312.99626818 -175.87793651 317.75634132 -179.0859375 322.51171875 C-180.33151899 324.36248426 -181.57642279 326.21370223 -182.82080078 328.0652771 C-183.58660448 329.2035336 -184.35368824 330.34092996 -185.12207031 331.47744751 C-186.16648664 333.02368403 -187.20454806 334.57420755 -188.2421875 336.125 C-188.81171143 336.97199463 -189.38123535 337.81898926 -189.96801758 338.69165039 C-191.32937645 340.61064637 -191.32937645 340.61064637 -191.16015625 342.71484375 C-159.48015625 342.71484375 -127.80015625 342.71484375 -95.16015625 342.71484375 C-98.98676993 335.72614184 -98.98676993 335.72614184 -103.18359375 329.06323242 C-103.72185791 328.2675737 -104.26012207 327.47191498 -104.81469727 326.65214539 C-105.38244873 325.82076553 -105.9502002 324.98938568 -106.53515625 324.1328125 C-107.14093506 323.23855057 -107.74671387 322.34428864 -108.37084961 321.42292786 C-110.29709454 318.58032312 -112.22824284 315.74109838 -114.16015625 312.90234375 C-116.6834845 309.1891876 -119.20388568 305.47406152 -121.72265625 301.7578125 C-122.34019775 300.84877167 -122.95773926 299.93973083 -123.59399414 299.00314331 C-126.76043645 294.3263545 -129.87845008 289.62502654 -132.92578125 284.86962891 C-133.52318115 283.93822586 -134.12058105 283.00682281 -134.73608398 282.04719543 C-135.87235055 280.26806486 -137.00233855 278.48490485 -138.12524414 276.6973114 C-138.62789795 275.90943741 -139.13055176 275.12156342 -139.6484375 274.30981445 C-140.08712158 273.61314163 -140.52580566 272.91646881 -140.9777832 272.19868469 C-141.36796631 271.70901718 -141.75814941 271.21934967 -142.16015625 270.71484375 C-142.82015625 270.71484375 -143.48015625 270.71484375 -144.16015625 270.71484375 Z M97.83984375 270.71484375 C96.50415077 272.28678862 96.50415077 272.28678862 95.1640625 274.41796875 C94.59703613 275.27551758 94.03000977 276.13306641 93.44580078 277.01660156 C92.81270996 277.98952148 92.17961914 278.96244141 91.52734375 279.96484375 C90.48656568 281.54618486 89.44577359 283.12751675 88.40472412 284.7086792 C87.18176251 286.56862287 85.96217082 288.43075055 84.74267578 290.29296875 C81.31086784 295.52768915 77.85340019 300.74539059 74.3984375 305.96484375 C72.41664535 308.96144791 70.43531323 311.95835549 68.45425415 314.95544434 C67.12800653 316.96167132 65.80132598 318.96761218 64.47421265 320.9732666 C62.58598937 323.82833115 60.70080318 326.68537774 58.81640625 329.54296875 C57.95643288 330.84161865 57.95643288 330.84161865 57.0790863 332.16650391 C56.54977005 332.97039551 56.0204538 333.77428711 55.47509766 334.60253906 C55.01261627 335.30292297 54.55013489 336.00330688 54.07363892 336.72491455 C52.87796696 338.65335664 51.8545871 340.68535705 50.83984375 342.71484375 C82.51984375 342.71484375 114.19984375 342.71484375 146.83984375 342.71484375 C145.39614711 339.10560214 144.30716436 336.67409906 142.20458984 333.58081055 C141.67527359 332.79701019 141.14595734 332.01320984 140.6006012 331.20565796 C140.02728561 330.36693146 139.45397003 329.52820496 138.86328125 328.6640625 C138.2649498 327.78037994 137.66661835 326.89669739 137.05015564 325.98623657 C135.10948803 323.12190067 133.16235425 320.26203045 131.21484375 317.40234375 C128.56870156 313.50499834 125.92506066 309.6059585 123.28125 305.70703125 C122.63324936 304.7524855 121.98524872 303.79793976 121.31761169 302.81446838 C117.65284293 297.41092985 114.01586356 291.99116643 110.4296875 286.53515625 C110.04862854 285.95657364 109.66756958 285.37799103 109.27496338 284.78187561 C107.58608153 282.21571582 105.90464663 279.64514376 104.23388672 277.06713867 C103.66686035 276.20451416 103.09983398 275.34188965 102.515625 274.453125 C102.04036377 273.72134033 101.56510254 272.98955566 101.07543945 272.2355957 C100.66769287 271.73374756 100.25994629 271.23189941 99.83984375 270.71484375 C99.17984375 270.71484375 98.51984375 270.71484375 97.83984375 270.71484375 Z M-193.16015625 363.71484375 C-192.05774715 365.47072267 -190.9522464 367.22466078 -189.84545898 368.9777832 C-189.2301683 369.95471634 -188.61487762 370.93164948 -187.98094177 371.93818665 C-185.64056733 375.50720521 -183.0566581 378.71963307 -180.22265625 381.90234375 C-179.67472412 382.52399414 -179.12679199 383.14564453 -178.56225586 383.78613281 C-151.27591047 414.35782898 -118.7658852 436.09721938 -79.47265625 448.15234375 C-78.27116943 448.52311035 -78.27116943 448.52311035 -77.04541016 448.90136719 C-71.747823 450.45485332 -66.66100887 451.237701 -61.16015625 451.71484375 C-60.80824219 450.92980469 -60.45632812 450.14476562 -60.09375 449.3359375 C-55.00695831 438.51156355 -49.17391855 432.99397587 -39.16015625 426.71484375 C-42.65581463 420.14382755 -46.5528031 413.96159829 -50.74609375 407.81640625 C-51.67610703 406.44299576 -51.67610703 406.44299576 -52.62490845 405.0418396 C-54.59147655 402.13877223 -56.5629952 399.23911385 -58.53515625 396.33984375 C-60.49940351 393.44720165 -62.46253272 390.55381224 -64.42398071 387.65927124 C-65.63879677 385.8670561 -66.85528443 384.07597233 -68.07382202 382.2862854 C-68.63775665 381.45527313 -69.20169128 380.62426086 -69.78271484 379.76806641 C-70.65370064 378.54700951 -70.65370064 378.54700951 -71.5422821 377.30128479 C-73.16015625 374.71484375 -73.16015625 374.71484375 -74.25032043 371.67320251 C-75.79256506 367.9403822 -76.90578716 366.15977392 -80.16015625 363.71484375 C-88.33677216 361.61207645 -97.20421309 362.44188432 -105.5625 362.640625 C-108.08594878 362.66114976 -110.60944149 362.67680387 -113.13294983 362.68778992 C-119.08714934 362.72544233 -125.03934928 362.81205054 -130.99252278 362.9226343 C-137.77337542 363.04584201 -144.55433838 363.10612844 -151.33603275 363.16128409 C-165.27864332 363.27608163 -179.21927709 363.46939847 -193.16015625 363.71484375 Z M-55.16015625 363.71484375 C-51.32081095 370.7224191 -51.32081095 370.7224191 -47.11401367 377.40844727 C-46.57383102 378.20859756 -46.03364838 379.00874786 -45.47709656 379.83314514 C-44.91231094 380.66164474 -44.34752533 381.49014435 -43.765625 382.34375 C-42.87729729 383.6564109 -42.87729729 383.6564109 -41.97102356 384.99559021 C-40.10005748 387.75855921 -38.22395578 390.51799463 -36.34765625 393.27734375 C-35.06931871 395.16317917 -33.79132064 397.04924475 -32.51367188 398.93554688 C-29.39975087 403.5313126 -26.28161891 408.12419749 -23.16015625 412.71484375 C-19.60627898 411.53021799 -19.19233362 410.68478764 -17.18920898 407.62573242 C-16.61528915 406.75780563 -16.04136932 405.88987885 -15.45005798 404.99565125 C-14.83747635 404.05091446 -14.22489471 403.10617767 -13.59375 402.1328125 C-12.95905289 401.16708817 -12.32435577 400.20136383 -11.67042542 399.20637512 C-10.32767417 397.16017133 -8.98882484 395.11140258 -7.65356445 393.06030273 C-5.60975802 389.92093257 -3.5550594 386.78893233 -1.49804688 383.65820312 C-0.19597127 381.67099429 1.10548176 379.68337735 2.40625 377.6953125 C3.02085587 376.75664841 3.63546173 375.81798431 4.26869202 374.85087585 C4.83945969 373.97349258 5.41022736 373.09610931 5.99829102 372.19213867 C6.49998306 371.42238205 7.00167511 370.65262543 7.51856995 369.85954285 C8.73979591 367.87724197 9.79860318 365.79732489 10.83984375 363.71484375 C-10.94015625 363.71484375 -32.72015625 363.71484375 -55.16015625 363.71484375 Z M9.60922241 402.15661621 C6.51058403 408.62239179 2.62232832 414.44608301 -1.48518848 420.30695724 C-4.18426366 423.6866036 -4.18426366 423.6866036 -5.16015625 427.71484375 C-3.69638229 428.62970248 -2.18621136 429.47064895 -0.66015625 430.27734375 C8.17728427 435.43460366 13.28372118 442.23355214 16.83984375 451.71484375 C23.35374951 451.16005218 29.22942572 449.96412094 35.46484375 448.02734375 C36.33657227 447.75970215 37.20830078 447.49206055 38.10644531 447.21630859 C61.88986836 439.77254198 84.35586532 428.29685833 103.83984375 412.71484375 C104.85304688 411.90660156 105.86625 411.09835937 106.91015625 410.265625 C121.93498017 398.03238733 136.22429723 384.05042968 146.4855957 367.50976562 C147.15012505 366.44042786 147.15012505 366.44042786 147.82807922 365.3494873 C148.16196152 364.81005493 148.49584381 364.27062256 148.83984375 363.71484375 C134.61545244 362.67653514 120.39704706 361.90946446 106.14228535 361.43510818 C99.51781885 361.20712452 92.91719709 360.89986844 86.30639648 360.39550781 C45.10347772 357.33410304 27.45576905 364.16628286 9.60922241 402.15661621 Z M-39.03515625 452.71484375 C-42.94964636 458.24118273 -44.17822903 463.00192633 -43.16015625 469.71484375 C-41.21680239 475.55358101 -38.52828423 480.5599177 -33.16796875 483.80859375 C-26.26374726 486.92489606 -20.4799094 487.27627341 -13.34765625 484.6796875 C-7.33273171 482.02667614 -4.8163714 478.19251786 -2.11328125 472.3671875 C-0.11654538 466.8106971 -0.33776575 462.00528347 -2.66015625 456.58984375 C-5.62693642 451.28366703 -10.36477018 446.64663911 -16.16015625 444.71484375 C-26.04200876 443.69005905 -32.37339 445.26138934 -39.03515625 452.71484375 Z " fill="#000000" transform="translate(278.16015625,5.28515625)"/>
</svg>
