<?xml version="1.0" standalone="no"?>
<!DOCTYPE svg PUBLIC "-//W3C//DTD SVG 20010904//EN"
 "http://www.w3.org/TR/2001/REC-SVG-20010904/DTD/svg10.dtd">
<svg version="1.0" xmlns="http://www.w3.org/2000/svg"
 width="200.000000pt" height="200.000000pt" viewBox="0 0 200.000000 200.000000"
 preserveAspectRatio="xMidYMid meet">

<g transform="translate(0.000000,200.000000) scale(0.100000,-0.100000)"
fill="#000000" stroke="none">
<path d="M759 1704 c-144 -76 -251 -187 -324 -339 -59 -120 -79 -225 -72 -365
14 -277 171 -513 422 -635 110 -53 183 -69 320 -69 145 0 212 16 345 81 155
76 297 233 359 396 l11 27 -61 -31 c-138 -69 -328 -89 -483 -49 -246 63 -443
260 -506 506 -38 146 -20 346 40 464 12 23 20 43 18 45 -2 2 -33 -12 -69 -31z"/>
</g>
</svg>
