<?xml version="1.0" encoding="UTF-8"?>
<svg version="1.1" xmlns="http://www.w3.org/2000/svg" width="138" height="82">
<path d="M0 0 C21.12 0 42.24 0 64 0 C58.37188209 11.25623583 58.37188209 11.25623583 55.87109375 15.5234375 C55.03892334 16.9475293 55.03892334 16.9475293 54.18994141 18.40039062 C53.61163574 19.38201172 53.03333008 20.36363281 52.4375 21.375 C51.83341309 22.40560547 51.22932617 23.43621094 50.60693359 24.49804688 C44.8069624 34.37330485 38.92364899 44.19851528 33 54 C29.05790462 52.68596821 28.69942468 51.21143347 26.69921875 47.62109375 C26.05791016 46.48260986 25.41660156 45.34412598 24.75585938 44.17114258 C24.06631664 42.9266447 23.3768655 41.68209606 22.6875 40.4375 C21.61996387 38.53333884 20.54922088 36.63100482 19.478302 34.72874451 C18.74667714 33.42868831 18.01611738 32.12803217 17.28659058 30.82679749 C13.0189963 23.22345667 8.59472636 15.71375578 4.16674805 8.20288086 C3.61672119 7.26581299 3.06669434 6.32874512 2.5 5.36328125 C2.0153125 4.54126221 1.530625 3.71924316 1.03125 2.87231445 C0 1 0 1 0 0 Z " fill="#000000" transform="translate(37,2)"/>
<path d="M0 0 C0.66 0 1.32 0 2 0 C2.4650293 0.83301636 2.4650293 0.83301636 2.93945312 1.68286133 C8.32533234 11.31296232 13.73318051 20.92493492 19.390625 30.3984375 C19.75438232 31.00807846 20.11813965 31.61771942 20.49291992 32.24583435 C22.28112866 35.23936456 24.07658626 38.2282846 25.88085938 41.2121582 C26.86022461 42.84544067 26.86022461 42.84544067 27.859375 44.51171875 C28.44170898 45.47553467 29.02404297 46.43935059 29.62402344 47.43237305 C31 50 31 50 32 54 C11.21 54 -9.58 54 -31 54 C-29.61053512 50.52633781 -28.29878472 47.57139768 -26.48828125 44.359375 C-25.98458008 43.46492676 -25.48087891 42.57047852 -24.96191406 41.64892578 C-24.41760742 40.69228027 -23.87330078 39.73563477 -23.3125 38.75 C-22.74885742 37.75597168 -22.18521484 36.76194336 -21.60449219 35.73779297 C-2.85905667 2.85905667 -2.85905667 2.85905667 0 0 Z " fill="#000000" transform="translate(104,26)"/>
<path d="M0 0 C4.1011411 1.50070472 5.35845204 3.80200104 7.43359375 7.546875 C8.39845703 9.26511475 8.39845703 9.26511475 9.3828125 11.01806641 C10.06783571 12.26197413 10.75272887 13.50595349 11.4375 14.75 C12.50031536 16.65380062 13.56695295 18.55542191 14.63406372 20.45681763 C15.35681703 21.74479403 16.07838835 23.03343441 16.79879761 24.32272339 C20.78436831 31.4411417 24.97063233 38.43851082 29.18920898 45.42089844 C29.69395752 46.26426758 30.19870605 47.10763672 30.71875 47.9765625 C31.38293945 49.07605225 31.38293945 49.07605225 32.06054688 50.19775391 C33 52 33 52 33 54 C12.21 54 -8.58 54 -30 54 C-28.60492908 49.81478725 -27.62635157 47.04663691 -25.453125 43.4453125 C-24.94426758 42.59420898 -24.43541016 41.74310547 -23.91113281 40.86621094 C-23.36295898 39.96161133 -22.81478516 39.05701172 -22.25 38.125 C-21.08260624 36.17491424 -19.91596814 34.22437598 -18.75 32.2734375 C-17.83541016 30.74734863 -17.83541016 30.74734863 -16.90234375 29.19042969 C-13.6476898 23.73203417 -10.44916448 18.24104127 -7.25 12.75 C-6.64188477 11.70859863 -6.03376953 10.66719727 -5.40722656 9.59423828 C-2.60000006 4.85369054 -2.60000006 4.85369054 0 0 Z " fill="#000000" transform="translate(32,26)"/>
</svg>
